<?xml version="1.0" standalone="no"?>
<!DOCTYPE svg PUBLIC "-//W3C//DTD SVG 1.1//EN" "http://www.w3.org/Graphics/SVG/1.1/DTD/svg11.dtd" >
<svg xmlns="http://www.w3.org/2000/svg" xmlns:xlink="http://www.w3.org/1999/xlink" version="1.1">
<metadata>
Created by FontForge 20170731 at Mon Jan  9 00:07:16 2017
 By Aleksey,,,
Copyright (c) 2016 by LOCUS, LOCUS_ART. All rights reserved.
</metadata>
<defs>
<font id="locus_sangsang" horiz-adv-x="900" >
  <font-face 
    font-family="locus_sangsang"
    font-weight="400"
    font-stretch="normal"
    units-per-em="1000"
    panose-1="2 0 5 4 3 0 0 2 0 3"
    ascent="800"
    descent="-200"
    x-height="492"
    cap-height="729"
    bbox="-34 -339.05 1094 851"
    underline-thickness="40"
    underline-position="-260"
    unicode-range="U+0002-FA0B"
  />
<missing-glyph horiz-adv-x="278" 
 />
    <glyph glyph-name=".notdef" horiz-adv-x="278" 
 />
    <glyph glyph-name=".null" horiz-adv-x="0" 
 />
    <glyph glyph-name="nonmarkingreturn" horiz-adv-x="333" 
 />
    <glyph glyph-name="NULL" horiz-adv-x="0" 
 />
    <glyph glyph-name="NULL" horiz-adv-x="0" 
 />
    <glyph glyph-name="uni0002" horiz-adv-x="0" 
 />
    <glyph glyph-name="space" unicode=" " horiz-adv-x="278" 
 />
    <glyph glyph-name="exclam" unicode="!" horiz-adv-x="344" 
d="M130 734h84q9 0 9 -9v-621q0 -9 -9 -9h-84q-9 0 -9 9v621q0 9 9 9zM130 -124h84q9 0 9 9v84q0 9 -9 9h-84q-9 0 -9 -9v-84q0 -9 9 -9z" />
    <glyph glyph-name="numbersign" unicode="#" horiz-adv-x="783" 
d="M719 427q0 -9 -8 -9h-117l-31 -226h148q8 0 8 -8v-85q0 -8 -8 -8h-161l-29 -207q0 -8 -8 -8h-85q-9 0 -9 10l28 205h-167l-28 -207q-2 -8 -9 -8h-85q-10 0 -8 10l28 205h-103q-8 0 -8 8v85q0 8 8 8h116l31 226h-147q-8 0 -8 9v84q0 9 8 9h161l28 207q2 7 9 7h85
q10 0 8 -9l-28 -205h168l28 207q2 7 9 7h85q10 0 8 -9l-28 -205h103q8 0 8 -9v-84zM492 418h-167l-31 -226h167z" />
    <glyph glyph-name="dollar" unicode="$" horiz-adv-x="617" 
d="M349 349q113 -27 163.5 -74.5t50.5 -125.5v-2q0 -42 -15.5 -77.5t-43.5 -62t-67.5 -43t-87.5 -20.5v-59q0 -9 -9 -9h-84q-8 0 -8 9v63q-115 19 -213 104q-2 2 -2.5 6t1.5 6l52 60q5 6 12 1q73 -66 150 -83v230q-44 12 -79.5 28t-60.5 39t-38.5 55t-13.5 75v2
q0 38 14 70.5t39.5 58t60.5 42.5t78 23v61q0 8 8 8h84q9 0 9 -8v-61q53 -7 97.5 -26.5t89.5 -54.5q6 -6 1 -12l-48 -63q-5 -6 -12 -1q-62 50 -128 63v-222zM155 475q0 -16 3.5 -30t14 -26t28.5 -22.5t47 -20.5v197q-43 -9 -68 -34.5t-25 -61.5v-2zM464 141q0 18 -4.5 33
t-17.5 27.5t-35 24t-58 21.5v-212q52 7 83.5 34.5t31.5 69.5v2z" />
    <glyph glyph-name="percent" unicode="%" horiz-adv-x="938" 
d="M244 360q-38 0 -72 14.5t-59.5 40t-40 59.5t-14.5 73t14.5 72.5t40 59t59.5 40t72 14.5q39 0 73 -14.5t59.5 -40t40 -59t14.5 -72.5t-14.5 -73t-40 -59.5t-59.5 -40t-73 -14.5zM244 632q-17 0 -32.5 -6.5t-27 -18t-18.5 -27t-7 -33.5t7 -33.5t18.5 -27t27 -18t32.5 -6.5
q18 0 33.5 6.5t27 18t18.5 27t7 33.5t-7 33.5t-18.5 27t-27 18t-33.5 6.5zM693 -122q-39 0 -72.5 14.5t-59 40t-40 59.5t-14.5 72q0 39 14.5 73t40 59.5t59 40t72.5 14.5t73 -14.5t59.5 -40t40 -59.5t14.5 -73q0 -38 -14.5 -72t-40 -59.5t-59.5 -40t-73 -14.5zM693 149
q-35 0 -60 -25t-25 -60t25 -60t60 -25t60 25t25 60t-25 60t-60 25zM266 -124h-99q-5 0 -6.5 3.5t0.5 7.5l501 842q3 5 10 5h99q4 0 6 -3.5t0 -6.5l-501 -842q-4 -6 -10 -6z" />
    <glyph glyph-name="ampersand" unicode="&#x26;" horiz-adv-x="756" 
d="M307 -124q-57 0 -110 21t-95 63q-32 32 -48 72.5t-17 82.5t14 82.5t45 73.5q5 7 11 12l12 10l93 76l-49 50q-35 35 -47.5 84.5t2.5 101.5q2 6 4.5 12t4.5 11q22 44 58 69.5t77 33t82 -3.5t74 -41l2 -2q29 -26 44.5 -61t16.5 -73t-14 -74t-43 -62l-2 -3l-61 -50l179 -183
q4 24 2 50t-11 55q-2 8 5 10l80 28q8 2 11 -6q19 -61 16 -116.5t-22 -104.5l142 -144q5 -7 -1 -12l-60 -59q-6 -6 -12 0l-122 125q-36 -45 -86 -76q-42 -26 -86 -39t-89 -13zM282 294l-100 -82q-3 -3 -6.5 -6t-5.5 -5q-17 -18 -25 -41t-7.5 -46t9.5 -45.5t26 -40.5
q30 -30 64.5 -42.5t68.5 -12.5t66 10.5t57 26.5q18 12 36 28t33 36zM294 633q-32 0 -57 -23q-25 -25 -25 -58q0 -34 24 -58l53 -55l64 53q24 24 24 59t-27 59l-2 2q-23 21 -54 21z" />
    <glyph glyph-name="quotesingle" unicode="'" horiz-adv-x="833" 
 />
    <glyph glyph-name="parenleft" unicode="(" horiz-adv-x="324" 
d="M271 -165q0 -9 -9 -9q-42 2 -79 18.5t-66 45.5q-31 31 -47.5 70.5t-16.5 83.5v523q0 44 16.5 83.5t47.5 70.5q29 29 66 45.5t79 18.5q9 0 9 -9v-92q-24 0 -45.5 -9.5t-37 -25t-25 -37t-9.5 -45.5v-523q0 -23 9 -44t26 -38q15 -16 34 -24t40 -10q8 -2 8 -9v-84z" />
    <glyph glyph-name="parenright" unicode=")" horiz-adv-x="324" 
d="M53 -165v84q0 7 8 9q43 2 74 33q17 17 26 38.5t9 44.5v523q0 23 -8.5 43.5t-23 36t-34.5 25t-43 11.5q-8 2 -8 9v93q44 0 83.5 -16.5t70.5 -47.5t47.5 -70.5t16.5 -83.5v-523q0 -44 -16.5 -83.5t-47.5 -70.5q-29 -29 -66 -45.5t-79 -18.5q-9 0 -9 9z" />
    <glyph glyph-name="asterisk" unicode="*" horiz-adv-x="580" 
d="M501 638q4 -7 -3 -12l-107 -61l107 -61q7 -5 3 -12l-42 -73q-5 -7 -12 -3l-106 61v-122q0 -3 -2.5 -6t-6.5 -3h-84q-4 0 -6.5 3t-2.5 6v122l-106 -61q-7 -4 -12 3l-42 73q-4 7 3 12l107 61l-107 61q-7 5 -3 12l42 73q6 8 12 3l106 -61v122q0 3 2.5 6t6.5 3h84q4 0 6.5 -3
t2.5 -6v-122l106 61q6 5 12 -3l42 -73v0z" />
    <glyph glyph-name="plus" unicode="+" horiz-adv-x="594" 
d="M508 356q8 0 8 -8v-85q0 -8 -8 -8h-160v-160q0 -9 -9 -9h-84q-9 0 -9 9v160h-160q-8 0 -8 8v85q0 8 8 8h160v160q0 9 9 9h84q9 0 9 -9v-160h160v0z" />
    <glyph glyph-name="comma" unicode="," horiz-adv-x="288" 
d="M195 -168v-1v-9q0 -36 -25 -61q-4 -4 -8 1l-17 18q-4 4 0 8q14 14 14 34v3h-57q-9 0 -9 9v84q0 8 9 8h84q9 0 9 -8v-86z" />
    <glyph glyph-name="hyphen" unicode="-" horiz-adv-x="594" 
d="M508 255h-422q-8 0 -8 8v85q0 8 8 8h422q8 0 8 -8v-85q0 -8 -8 -8z" />
    <glyph glyph-name="period" unicode="." horiz-adv-x="288" 
d="M186 -175h-84q-9 0 -9 9v84q0 8 9 8h84q9 0 9 -8v-84q0 -9 -9 -9z" />
    <glyph glyph-name="slash" unicode="/" horiz-adv-x="331" 
d="M151 -124h-85q-9 0 -9 10l115 841q2 7 9 7h85q10 0 8 -9l-114 -841q-2 -8 -9 -8z" />
    <glyph glyph-name="zero" unicode="0" horiz-adv-x="558" 
d="M279 -118q-45 0 -84 17t-68.5 46.5t-46.5 68.5t-17 84v337q0 45 17 84.5t46.5 69t68.5 46.5t84 17t84 -17t68.5 -46.5t46.5 -69t17 -84.5v-337q0 -45 -17 -84t-46.5 -68.5t-68.5 -46.5t-84 -17zM279 551q-24 0 -45 -9t-36.5 -25t-24.5 -37t-9 -45v-337q0 -24 9 -45
t24.5 -36.5t36.5 -24.5t45 -9t45 9t36.5 24.5t24.5 36.5t9 45v337q0 24 -9 45t-24.5 37t-36.5 25t-45 9z" />
    <glyph glyph-name="one" unicode="1" horiz-adv-x="432" 
d="M267 641v-752q0 -8 -9 -8h-84q-9 0 -9 8v752q0 9 9 9h84q9 0 9 -9z" />
    <glyph glyph-name="two" unicode="2" horiz-adv-x="565" 
d="M509 -119h-379q-21 0 -37 11t-24 27.5t-7 36t15 36.5l310 351q23 29 28 65t-10 69q-16 34 -45.5 53t-67.5 19q-25 0 -47 -9t-38.5 -25t-27 -37.5t-11.5 -45.5q-2 -8 -9 -8h-84q-8 0 -8 9q2 49 23.5 91.5t57 72t81.5 43.5t97 7q50 -8 91.5 -35.5t67.5 -71.5
q38 -63 32.5 -132.5t-50.5 -125.5l-268 -306h310q9 0 9 -9v-78q0 -8 -9 -8z" />
    <glyph glyph-name="three" unicode="3" horiz-adv-x="563" 
d="M413 301q48 -35 74.5 -92t18.5 -123q-5 -40 -22.5 -74.5t-44.5 -61.5t-62 -44.5t-75 -22.5q-51 -6 -97.5 9.5t-82 46.5t-57 74t-23.5 93q0 8 9 8h84q8 0 8 -8q2 -26 13 -48.5t28.5 -39t41 -26t49.5 -9.5q29 0 54 11.5t43 31.5t27.5 46t6.5 56q-3 25 -14 46.5t-29 37.5
t-41 25t-48 9h-70q-9 0 -9 9v83q0 9 9 9h71q23 0 43.5 10t34.5 26.5t20 38.5t1 46q-6 30 -27.5 51.5t-51.5 27.5q-23 4 -44 -1.5t-37.5 -18t-27 -31t-12.5 -40.5q0 -8 -8 -8h-84q-9 0 -9 9q2 43 20.5 80.5t49.5 63.5t71 39.5t84 8.5q34 -4 64.5 -19t54 -38t38.5 -53t20 -64
q7 -51 -10.5 -96.5t-51.5 -77.5z" />
    <glyph glyph-name="four" unicode="4" horiz-adv-x="587" 
d="M438 -119h-83q-4 0 -6.5 3t-2.5 6v162h-242q-20 0 -35.5 10t-24 25t-9 33t9.5 35l276 463q13 22 34.5 28.5t42 0.5t35 -23t14.5 -43v-434h97q8 0 8 -8v-78q0 -9 -8 -9h-97v-162q0 -3 -2.5 -6t-6.5 -3zM154 147h192v332z" />
    <glyph glyph-name="five" unicode="5" horiz-adv-x="568" 
d="M296 369q46 -2 87.5 -21t72.5 -50.5t50 -73t21 -87.5q2 -52 -16 -98t-51 -80.5t-78.5 -54.5t-96.5 -20q-61 0 -113.5 27.5t-87.5 77.5q-2 3 -1 6.5t4 5.5l70 45q7 5 12 -2q20 -28 50.5 -43.5t65.5 -15.5q32 0 60 13.5t47.5 36t29 53t3.5 63.5q-4 23 -16.5 44t-30.5 37
t-40.5 25.5t-45.5 10.5q-38 2 -65 -13t-43 -29q-10 -10 -23.5 -14.5t-27.5 -2.5q-26 3 -41.5 23.5t-12.5 46.5l40 311q4 26 23 42.5t45 16.5h302q9 0 9 -8v-84q0 -9 -9 -9h-273l-26 -197q25 10 51.5 15t54.5 3z" />
    <glyph glyph-name="six" unicode="6" horiz-adv-x="576" 
d="M288 375q48 0 90 -18.5t73.5 -50t50 -73.5t18.5 -90v-29q0 -48 -18.5 -90.5t-50 -74t-73.5 -49.5t-90 -18t-90.5 18t-74 49.5t-49.5 74t-18 90.5v1v28v251q0 53 20 100t55 81.5t82 54.5t100 20q91 0 155 -44q3 -2 3.5 -5.5t-1.5 -6.5l-51 -67q-6 -6 -11 -2q-38 24 -99 24
q-32 0 -59.5 -12t-48 -33t-32.5 -49t-12 -59v-61q28 19 61 29.5t70 10.5zM418 143q0 27 -10 51t-28 41.5t-41.5 28t-50.5 10.5t-51 -10.5t-41.5 -28t-28 -41.5t-10.5 -51v-29q0 -27 10.5 -51t28 -41.5t41.5 -28t51 -10.5t50.5 10.5t41.5 28t28 41.5t10 51v29z" />
    <glyph glyph-name="seven" unicode="7" horiz-adv-x="577" 
d="M243 -119h-90q-10 0 -6 10l255 663h-330q-9 0 -9 8v78q0 8 9 8h376q18 0 32.5 -8t23.5 -21.5t11.5 -30t-3.5 -32.5l-258 -668q-4 -7 -11 -7z" />
    <glyph glyph-name="eight" unicode="8" horiz-adv-x="559" 
d="M418 300q43 -32 68.5 -80.5t25.5 -106.5q0 -48 -18.5 -90.5t-50 -74t-73.5 -49.5t-90 -18t-90.5 18t-74 49.5t-50 74t-18.5 90.5q0 58 26 106.5t69 80.5q-29 28 -46.5 65.5t-17.5 81.5q0 42 16 78.5t43.5 64t64 43.5t78.5 16t78.5 -16t64 -43.5t43.5 -64t16 -78.5
q0 -44 -17.5 -81.5t-46.5 -65.5zM179 447q0 -21 8 -39.5t21.5 -32t32 -21.5t39.5 -8t39.5 8t32 21.5t21.5 32t8 39.5t-8 39.5t-21.5 32t-32 21.5t-39.5 8t-39.5 -8t-32 -21.5t-21.5 -32t-8 -39.5zM280 -19q27 0 51 10.5t42 28.5t28.5 42t10.5 51t-10.5 51t-28.5 42t-42 28.5
t-51 10.5t-51 -10.5t-42 -28.5t-28.5 -42t-10.5 -51t10.5 -51t28.5 -42t42 -28.5t51 -10.5z" />
    <glyph glyph-name="nine" unicode="9" horiz-adv-x="595" 
d="M295 650q48 0 90 -18.5t73.5 -50t50 -73.5t18.5 -90v-2v-28v-252q0 -53 -20 -99.5t-55 -81t-82 -54.5t-100 -20q-91 0 -155 43q-7 5 -2 12l51 67q6 7 11 2q37 -24 99 -24q31 0 59 12.5t48.5 33t32.5 48.5t12 60v62q-28 -20 -61 -30.5t-70 -10.5q-48 0 -90.5 18t-74 49.5
t-49.5 74t-18 90.5v30q0 48 18 90t49.5 73.5t74 50t90.5 18.5zM425 418q0 27 -10 50.5t-28 41.5t-41.5 28t-50.5 10t-51 -10t-41.5 -28t-28 -41.5t-10.5 -50.5v-30q0 -27 10.5 -50.5t28 -41.5t41.5 -28t51 -10t50.5 10t41.5 28t28 41.5t10 50.5v30z" />
    <glyph glyph-name="colon" unicode=":" horiz-adv-x="328" 
d="M206 11h-84q-9 0 -9 8v84q0 9 9 9h84q9 0 9 -9v-84q0 -8 -9 -8zM206 499h-84q-9 0 -9 9v84q0 8 9 8h84q9 0 9 -8v-84q0 -9 -9 -9z" />
    <glyph glyph-name="semicolon" unicode=";" horiz-adv-x="328" 
d="M206 499h-84q-4 0 -6.5 3.5t-2.5 6.5v81q0 3 2.5 6.5t6.5 3.5h84q4 0 6.5 -3.5t2.5 -6.5v-81q0 -3 -2.5 -6.5t-6.5 -3.5zM215 103q0 9 -9 9h-84q-9 0 -9 -9v-84q0 -9 9 -9h57v-3q0 -20 -14 -34q-4 -4 0 -8l17 -18q4 -6 8 0q25 25 25 60v10v86z" />
    <glyph glyph-name="less" unicode="&#x3c;" horiz-adv-x="380" 
d="M222 -169l-156 451q-8 22 0 45l156 451q1 6 8 6h83q5 0 7.5 -3.5t0.5 -7.5l-161 -469l161 -468q2 -4 -0.5 -7.5t-7.5 -3.5h-83q-7 0 -8 6z" />
    <glyph glyph-name="equal" unicode="=" horiz-adv-x="592" 
d="M507 366h-422q-8 0 -8 8v84q0 9 8 9h422q8 0 8 -9v-84q0 -8 -8 -8zM507 144h-422q-8 0 -8 9v84q0 9 8 9h422q8 0 8 -9v-84q0 -9 -8 -9z" />
    <glyph glyph-name="greater" unicode="&#x3e;" horiz-adv-x="380" 
d="M158 -169q-2 -6 -8 -6h-83q-5 0 -7.5 3.5t-0.5 7.5l161 468l-161 469q-2 4 0.5 7.5t7.5 3.5h83q6 0 8 -6l156 -451q7 -23 0 -45l-156 -451v0z" />
    <glyph glyph-name="question" unicode="?" horiz-adv-x="545" 
d="M329 94h-85q-8 0 -8 9v70q0 71 41 127l104 144q22 29 22 68v4q0 23 -8 43.5t-22.5 36t-34 25t-41.5 11.5q-24 2 -46 -5.5t-39 -22.5t-27.5 -35t-11.5 -44q-2 -8 -9 -8h-84q-9 0 -9 9q2 44 20.5 82.5t49 67t70.5 44t85 14.5q44 -2 82 -19.5t66 -47.5t44 -69t16 -82v-4
q0 -71 -41 -127l-104 -144q-22 -31 -22 -68v-70q0 -9 -8 -9zM330 -22h-84q-4 0 -6.5 -3t-2.5 -6v-84q0 -3 2.5 -6t6.5 -3h84q4 0 6 3t2 6v84q0 3 -2 6t-6 3z" />
    <glyph glyph-name="at" unicode="@" horiz-adv-x="768" 
d="M573 128q11 0 18 6.5t9 16.5v260q0 45 -17 84.5t-46.5 69t-68.5 47t-84 17.5t-84 -17t-68.5 -46.5t-46.5 -68.5t-17 -84v-215q0 -45 17 -84t46 -68.5t68.5 -46.5t84.5 -17h258q9 0 9 -9v-84q0 -9 -9 -9h-258q-66 0 -124 25t-101 68.5t-68 101t-25 123.5v213q0 66 25 124
t68.5 101.5t101.5 69t124 25.5t123.5 -25.5t100.5 -68.5t68 -100.5t25 -123.5v-258q0 -27 -10 -50.5t-27.5 -41t-41 -27.5t-50.5 -10h-220q-27 0 -50 10t-40.5 27.5t-27.5 41t-10 50.5v301q0 27 10 50.5t27.5 41t40.5 27.5t50 10h64q27 0 50.5 -10t41 -27.5t27.5 -41
t10 -50.5v-328h27zM445 127l-1 329q0 11 -8 19t-19 8h-64q-11 0 -19 -8t-8 -19v-301q0 -11 8 -19.5t19 -8.5h92z" />
    <glyph glyph-name="A" unicode="A" horiz-adv-x="781" 
d="M754 -110q2 -3 -0.5 -6t-6.5 -3h-90q-8 0 -10 7l-70 188h-373l-69 -188q-4 -7 -11 -7h-90q-4 0 -6 3t0 6l289 788q9 26 32 40t51 10q22 -3 38 -16.5t24 -33.5zM542 171l-152 411l-151 -411h303z" />
    <glyph glyph-name="B" unicode="B" horiz-adv-x="729" 
d="M566 304q45 -33 70.5 -83.5t23.5 -110.5q-2 -48 -21.5 -90t-52.5 -73t-76 -48.5t-91 -17.5h-281q-29 0 -48.5 19.5t-19.5 48.5v307v94v306q0 28 19.5 48t48.5 20h286q48 0 90.5 -18t74.5 -49.5t51 -73t20 -89.5q2 -58 -24 -108t-70 -82zM171 353l253 -2q28 0 52.5 11
t43 29.5t29 43.5t10.5 53t-10.5 53.5t-29 45t-43 31t-52.5 11.5h-253v-276zM424 -24q28 0 52.5 11.5t43 31t29 45t10.5 53.5t-10.5 53t-29 44t-43 30t-52.5 11h-253v-279h253z" />
    <glyph glyph-name="C" unicode="C" horiz-adv-x="714" 
d="M548 145q0 7 8 7h85q11 0 9 -10q-7 -56 -33 -103.5t-66 -83t-91.5 -55t-109.5 -18.5q-61 1 -114 25t-92.5 64.5t-62.5 94.5t-23 115v249q0 61 23 115t62.5 94.5t92.5 64.5t114 25q58 1 109.5 -18.5t91.5 -55t66 -83.5t33 -103q2 -10 -9 -10h-85q-8 0 -8 7q-6 35 -24 65.5
t-44.5 52t-60 33.5t-70.5 11q-40 -2 -74.5 -18t-60 -42.5t-40.5 -62t-15 -74.5v-250q0 -40 15 -75t40.5 -62t60 -43.5t73.5 -17.5q37 -1 71 11t60.5 33.5t44.5 52t24 65.5z" />
    <glyph glyph-name="D" unicode="D" horiz-adv-x="723" 
d="M367 -119h-229q-29 0 -48.5 19.5t-19.5 48.5v711q0 29 19.5 48.5t48.5 19.5h229q61 0 115.5 -23.5t94.5 -63.5t63.5 -94.5t23.5 -115.5v-253q0 -62 -23.5 -116t-63.5 -94t-94.5 -63.5t-115.5 -23.5zM171 -24h196q40 0 76 15.5t62.5 42t42 62t15.5 76.5v265q0 40 -15.5 76
t-42 62.5t-62.5 42t-76 15.5h-196v-657z" />
    <glyph glyph-name="E" unicode="E" horiz-adv-x="677" 
d="M171 633v-277h418q8 0 8 -9v-78q0 -9 -8 -9h-418v-284h433q9 0 9 -8v-79q0 -8 -9 -8h-467q-28 0 -48 19.5t-20 48.5v711q0 29 20 48.5t48 19.5h467q9 0 9 -8v-79q0 -8 -9 -8h-433z" />
    <glyph glyph-name="F" unicode="F" horiz-adv-x="682" 
d="M604 729q9 0 9 -8v-78q0 -9 -9 -9h-433v-277h428q9 0 9 -9v-78q0 -9 -9 -9h-428v-371q0 -9 -9 -9h-84q-9 0 -9 9v771q0 29 20 48.5t48 19.5h467v0z" />
    <glyph glyph-name="G" unicode="G" horiz-adv-x="732" 
d="M366 323q0 9 8 9h133h88q29 0 48.5 -20t19.5 -49v-84q0 -61 -23 -115t-62.5 -94t-92.5 -64t-114 -25q-62 -1 -117 22t-96 64t-65 96t-24 117v249q0 61 23 115t62.5 94.5t92.5 64.5t114 25q58 1 109.5 -18.5t91.5 -55t66 -83.5t33 -103q0 -10 -9 -10h-85q-8 0 -8 7
q-6 35 -24 65.5t-44.5 52t-60.5 33.5t-71 11q-39 -2 -73.5 -18t-60 -42.5t-40.5 -62t-15 -74.5v-250q0 -41 16 -77.5t43 -63.5t63 -42.5t77 -14.5q40 1 75 16.5t61.5 42t41.5 62t15 75.5l-1 58h-187q-8 0 -8 9v78v0z" />
    <glyph glyph-name="H" unicode="H" horiz-adv-x="734" 
d="M656 729q8 0 8 -8v-831q0 -9 -8 -9h-85q-8 0 -8 9v371h-392v-371q0 -9 -8 -9h-85q-8 0 -8 9v831q0 8 8 8h85q8 0 8 -8v-364h392v364q0 8 8 8h85v0z" />
    <glyph glyph-name="I" unicode="I" horiz-adv-x="252" 
d="M168 -119h-84q-9 0 -9 9v831q0 8 9 8h84q9 0 9 -8v-831q0 -9 -9 -9z" />
    <glyph glyph-name="J" unicode="J" horiz-adv-x="613" 
d="M512 729q8 0 8 -8v-535q0 -60 -21.5 -114t-59.5 -95t-89.5 -66.5t-111.5 -28.5q-59 -3 -111 15.5t-94 53.5q-7 5 -1 11l50 68q5 7 13 1q26 -23 60 -36t72 -12q40 1 75 17.5t61 44t41 63.5t15 76v537q0 8 8 8h85v0z" />
    <glyph glyph-name="K" unicode="K" horiz-adv-x="666" 
d="M662 -108q2 -3 0 -7t-6 -4h-95q-6 0 -9 6l-249 397l-133 -163v-231q0 -9 -8 -9h-84q-9 0 -9 9v831q0 8 9 8h84q8 0 8 -8v-447l365 451q4 4 9 4h104q5 0 7 -3.5t-1 -7.5l-287 -355l295 -471v0z" />
    <glyph glyph-name="L" unicode="L" horiz-adv-x="622" 
d="M604 -119h-467q-28 0 -48 19.5t-20 48.5v772q0 8 9 8h84q9 0 9 -8v-745h433q9 0 9 -8v-79q0 -8 -9 -8z" />
    <glyph glyph-name="M" unicode="M" horiz-adv-x="814" 
d="M733 -119h-85q-8 0 -8 9v591l-172 -346q-9 -19 -26 -28.5t-35 -9.5t-35 9.5t-26 28.5l-172 346v-591q0 -9 -9 -9h-84q-8 0 -8 9v785q0 23 15.5 38.5t38.5 15.5q15 0 28 -8t20 -22l232 -464l232 464q7 14 20 22t28 8q23 0 38.5 -15.5t15.5 -38.5v-785q0 -9 -8 -9z" />
    <glyph glyph-name="N" unicode="N" horiz-adv-x="730" 
d="M558 -93l-386 614v-631q0 -9 -8 -9h-84q-9 0 -9 9v785q0 23 16 38.5t39 15.5q30 0 46 -25l386 -614v631q0 8 8 8h84q9 0 9 -8v-785q0 -23 -16 -39t-39 -16q-30 0 -46 26z" />
    <glyph glyph-name="O" unicode="O" horiz-adv-x="734" 
d="M362 -119q-62 0 -116 23.5t-94 63.5t-63.5 94t-23.5 116v254q0 61 23.5 115.5t63.5 94.5t94 63.5t116 23.5q61 0 115.5 -23.5t94.5 -63.5t63.5 -94.5t23.5 -115.5v-254q0 -62 -23.5 -116t-63.5 -94t-94.5 -63.5t-115.5 -23.5zM362 628q-41 0 -76.5 -15.5t-62 -42
t-42 -62.5t-15.5 -76v-254q0 -41 15.5 -76.5t42 -62t62 -42t76.5 -15.5q40 0 76 15.5t62.5 42t42 62t15.5 76.5v254q0 40 -15.5 76t-42 62.5t-62.5 42t-76 15.5z" />
    <glyph glyph-name="P" unicode="P" horiz-adv-x="720" 
d="M424 730q50 0 94 -19.5t76 -53t50 -78t16 -94.5q-2 -48 -22 -89.5t-53 -72t-75.5 -48t-90.5 -17.5h-248v-368q0 -9 -9 -9h-84q-8 0 -8 9v368v61v342q0 29 19.5 49t48.5 20h286zM424 353q28 0 52.5 11.5t43 31t29 45t10.5 53.5t-10.5 53t-29 44.5t-43 31t-52.5 11.5h-253
v-281h253z" />
    <glyph glyph-name="Q" unicode="Q" horiz-adv-x="694" 
d="M678 -67q7 -7 0 -12l-59 -60q-7 -5 -12 0l-78 78q-38 -28 -82.5 -43t-94.5 -15q-62 0 -116 23.5t-94 63.5t-63.5 94t-23.5 116v254q0 61 23.5 115.5t63.5 94.5t94 63.5t116 23.5q61 0 115.5 -23.5t94.5 -63.5t63.5 -94.5t23.5 -115.5v-254q0 -46 -13 -88t-37 -78z
M352 -18q57 0 104 30l-75 75q-6 6 0 12l60 60q6 6 12 0l72 -73q23 43 23 92v254q0 40 -15.5 76t-42 62.5t-62.5 42t-76 15.5q-41 0 -76.5 -15.5t-62 -42t-42 -62.5t-15.5 -76v-254q0 -41 15.5 -76.5t42 -62t62 -42t76.5 -15.5z" />
    <glyph glyph-name="R" unicode="R" horiz-adv-x="725" 
d="M661 -106q2 -5 0 -9t-7 -4h-98q-5 0 -7 5l-213 372h-165v-368q0 -9 -8 -9h-85q-8 0 -8 9v368v50v353q0 29 19.5 49t48.5 20h287q50 0 93.5 -19.5t75.5 -53t50 -78t16 -94.5q-2 -44 -18.5 -82.5t-44.5 -68.5t-65.5 -49t-80.5 -25zM171 353h254q28 0 52.5 11.5t42.5 31
t28.5 45t10.5 53.5t-10.5 53t-28.5 44.5t-42.5 31t-52.5 11.5h-254v-281z" />
    <glyph glyph-name="S" unicode="S" horiz-adv-x="710" 
d="M398 357q142 -31 206 -87t64 -150v-2q0 -53 -21 -96.5t-58.5 -74.5t-90 -48.5t-115.5 -17.5q-95 0 -175 30.5t-155 95.5q-6 6 -1 12l56 65q6 7 12 1q64 -57 127 -82t140 -25q38 0 70 9.5t55 27t35.5 41.5t12.5 53v2q0 25 -8 46t-30 39t-62.5 33t-104.5 29
q-63 13 -114 31.5t-87.5 46t-56.5 67.5t-20 96v2q0 50 20.5 92t57 72.5t86.5 47.5t110 17q84 0 151 -23t132 -73q6 -5 1 -12l-52 -69q-6 -6 -12 -1q-53 42 -107 61.5t-116 19.5q-36 0 -66.5 -9t-52.5 -25.5t-34 -39.5t-12 -50v-2q0 -26 8 -47t31 -39t65.5 -33.5t110.5 -30.5
z" />
    <glyph glyph-name="T" unicode="T" horiz-adv-x="672" 
d="M625 729q8 0 8 -8v-79q0 -8 -8 -8h-238v-744q0 -3 -2.5 -6t-6.5 -3h-84q-4 0 -6.5 3t-2.5 6v744h-238q-8 0 -8 8v79q0 8 8 8h578v0z" />
    <glyph glyph-name="U" unicode="U" horiz-adv-x="734" 
d="M372 -119q-62 -1 -117 23t-96 65.5t-65 97t-24 118.5v536q0 8 8 8h85q8 0 8 -8v-538q0 -41 16 -77.5t43 -64.5t63 -44t77 -15q40 1 75 16.5t61.5 42t41.5 62t15 75.5v543q0 8 8 8h85q8 0 8 -8v-543q0 -61 -23 -114.5t-62.5 -94t-92.5 -64t-114 -24.5z" />
    <glyph glyph-name="V" unicode="V" horiz-adv-x="668" 
d="M262 -68l-235 788q-2 4 0.5 6.5t5.5 2.5h88q9 0 11 -8l198 -661l196 661q2 8 11 8h88q3 0 5.5 -2.5t0.5 -6.5l-234 -788q-6 -23 -25 -37t-42 -14q-24 0 -42.5 14t-25.5 37z" />
    <glyph glyph-name="W" unicode="W" horiz-adv-x="1009" 
d="M233 -68l-203 789q-1 3 1.5 5.5t5.5 2.5h87q9 0 11 -8l162 -630l142 588q5 22 23.5 36t41.5 14q23 1 41 -13t23 -37l146 -589l161 631q2 8 11 8h87q8 0 6 -8l-201 -789q-5 -23 -23 -37t-41 -14t-41.5 14t-23.5 37l-145 584l-141 -584q-6 -22 -24 -36.5t-41 -14.5t-41 14
t-24 37z" />
    <glyph glyph-name="X" unicode="X" horiz-adv-x="682" 
d="M651 -108q2 -4 0.5 -7.5t-6.5 -3.5h-99q-7 0 -10 5l-195 321l-195 -321q-3 -5 -10 -5h-99q-5 0 -6.5 3.5t0.5 7.5l251 413l-251 413q-2 4 -0.5 7.5t6.5 3.5h99q7 0 10 -6l195 -320l195 320q3 6 9 6h100q4 0 6 -3.5t0 -7.5l-251 -413l251 -413v0z" />
    <glyph glyph-name="Y" unicode="Y" horiz-adv-x="658" 
d="M633 729q5 0 6.5 -3.5t-0.5 -7.5l-259 -427v-401q0 -3 -2.5 -6t-6.5 -3h-84q-4 0 -6.5 3t-2.5 6v401l-259 427q-2 4 -0.5 7.5t6.5 3.5h100q6 0 9 -5l195 -321l195 321q3 5 9 5h100v0z" />
    <glyph glyph-name="Z" unicode="Z" horiz-adv-x="708" 
d="M613 -119h-491q-32 0 -55 23t-23 55q0 26 15 46l459 620h-439q-9 0 -9 9v87q0 8 9 8h491q32 0 55 -23t23 -55q0 -26 -15 -47l-459 -619h439q9 0 9 -9v-87q0 -8 -9 -8z" />
    <glyph glyph-name="bracketleft" unicode="[" horiz-adv-x="324" 
d="M263 -175h-142q-29 0 -48.5 19.5t-19.5 48.5v823q0 29 19.5 48.5t48.5 19.5h142q8 0 8 -8v-85q0 -8 -8 -8h-109v-757h109q8 0 8 -8v-85q0 -8 -8 -8z" />
    <glyph glyph-name="backslash" unicode="\" horiz-adv-x="1099" 
d="M1086 428q8 0 8 -9v-84q0 -9 -8 -9h-162l-101 -394q-5 -23 -23 -37t-41 -14t-41.5 14t-23.5 37l-98 394h-93l-95 -394q-6 -22 -24 -36.5t-41 -14.5t-41 14t-24 37l-101 394h-163q-9 0 -9 9v84q0 9 9 9h137l-76 293q-1 3 1.5 5.5t5.5 2.5h87q9 0 11 -8l75 -293h168l61 251
q5 22 23.5 36t41.5 14q23 1 41 -13t23 -37l63 -251h169l75 293q2 8 11 8h87q3 0 5.5 -2.5t0.5 -5.5l-74 -293h136zM399 326h-117l60 -235zM571 428l-22 88l-21 -88h43zM819 326h-118l58 -236z" />
    <glyph glyph-name="bracketright" unicode="]" horiz-adv-x="324" 
d="M203 -174h-142q-8 0 -8 8v85q0 8 8 8h109v757h-109q-8 0 -8 8v85q0 8 8 8h142q29 0 48.5 -19.5t19.5 -48.5v-823q0 -29 -19.5 -48.5t-48.5 -19.5z" />
    <glyph glyph-name="asciicircum" unicode="^" horiz-adv-x="592" 
d="M444 433l-158 195l-158 -195q-5 -6 -12 -1l-65 53q-6 5 -1 12l229 284q7 7 14 0l229 -284q5 -7 -1 -12l-66 -53q-2 -2 -5.5 -2t-5.5 3z" />
    <glyph glyph-name="underscore" unicode="_" horiz-adv-x="514" 
d="M468 -175h-422q-8 0 -8 9v84q0 8 8 8h422q8 0 8 -8v-84q0 -9 -8 -9z" />
    <glyph glyph-name="grave" unicode="`" horiz-adv-x="230" 
d="M56 784h82q7 0 9 -7l34 -154q1 -4 -1.5 -6.5t-5.5 -2.5h-38q-6 0 -8 5l-78 155q-4 10 6 10z" />
    <glyph glyph-name="a" unicode="a" horiz-adv-x="609" 
d="M441 483q0 9 8 9h85q8 0 8 -9v-234v-124v-236q0 -8 -8 -8h-85q-8 0 -8 8v39q-35 -25 -77 -37t-89 -7q-47 4 -86.5 25t-68.5 54t-45.5 74.5t-16.5 88.5v122q0 46 16.5 88t45.5 74.5t68.5 53.5t86.5 26t89 -7t77 -37v37zM300 -16q29 0 55 11t45 30t30 45t11 55v124
q0 29 -11 55t-30 45t-45 30t-55 11t-55 -11t-45 -30t-30 -45t-11 -55v-124q0 -29 11 -55t30 -45t45 -30t55 -11z" />
    <glyph glyph-name="b" unicode="b" horiz-adv-x="605" 
d="M330 490q46 -5 86 -26t69 -54.5t45.5 -76t16.5 -89.5v-114q0 -47 -16.5 -89.5t-45.5 -76t-69 -55t-86 -25.5q-47 -5 -89 7t-77 37v-40q0 -7 -7 -7h-88q-6 0 -6 7v237v124v473q0 7 6 7h88q7 0 7 -7v-276q35 25 77 37t89 7zM446 249q0 29 -11 55t-30 45t-45 30t-55 11
t-55 -11t-45 -30t-30 -45t-11 -55v-124q0 -29 11 -55t30 -45t45 -30t55 -11t55 11t45 30t30 45t11 55v124z" />
    <glyph glyph-name="c" unicode="c" horiz-adv-x="587" 
d="M422 54q5 7 12 7h88q5 0 7.5 -3t0.5 -8q-12 -38 -35 -69.5t-54 -54t-69 -34.5t-80 -11q-49 1 -92 21t-74.5 53t-50 77t-18.5 93v121q0 49 18.5 93t50 77t74.5 52.5t92 21.5q42 1 80 -11t69 -34.5t54 -54.5t35 -69q2 -5 -0.5 -8t-7.5 -3h-88q-8 0 -12 7q-20 35 -56 55
t-79 16q-27 -3 -50.5 -15t-41 -31t-27 -44t-9.5 -52v-122q0 -27 9.5 -52t27 -44t41 -31t50.5 -14q43 -4 79 16t56 55z" />
    <glyph glyph-name="d" unicode="d" horiz-adv-x="605" 
d="M441 721q0 9 8 9h85q8 0 8 -9v-471v-125v-235q0 -9 -8 -9h-85q-8 0 -8 9v38q-35 -25 -77 -37t-89 -7t-86.5 26t-68.5 53.5t-45.5 74.5t-16.5 89v121q0 46 16.5 88t45.5 75t68.5 54t86.5 26t89 -7.5t77 -37.5v275zM300 -16q29 0 55 11t45 30t30 45t11 55v125
q0 29 -11 54.5t-30 44.5t-45 30t-55 11t-55 -11t-45 -30t-30 -44.5t-11 -54.5v-125q0 -29 11 -55t30 -45t45 -30t55 -11z" />
    <glyph glyph-name="e" unicode="e" horiz-adv-x="600" 
d="M413 39q5 7 12 4l85 -23q8 -2 4 -10q-34 -64 -97.5 -99.5t-138.5 -28.5q-47 4 -87 25t-69.5 53.5t-46.5 75t-17 89.5v123q0 51 19.5 95.5t53.5 77.5t79.5 51.5t97.5 17.5q49 -2 92 -21.5t74.5 -52.5t49.5 -77t18 -93v-43q0 -29 -19.5 -45.5t-48.5 -16.5h-315v-8
q0 -27 9 -52t25 -45.5t38.5 -34.5t48.5 -17q40 -6 75 9.5t58 45.5zM159 236h282v12q0 29 -11 54.5t-30 45t-45 30.5t-55 11t-55 -11t-45 -30.5t-30 -45t-11 -54.5v-12z" />
    <glyph glyph-name="f" unicode="f" horiz-adv-x="418" 
d="M392 637q0 -9 -8 -9q-26 -2 -49 -12.5t-40 -28.5t-26.5 -41.5t-9.5 -49.5v-4h124q9 0 9 -9v-78q0 -9 -9 -9h-124v-506q0 -9 -8 -9h-84q-9 0 -9 9v506h-123q-9 0 -9 9v78q0 9 9 9h123v4q0 47 17.5 89t48 73.5t71.5 50.5t88 21q9 0 9 -9v-84v0z" />
    <glyph glyph-name="g" unicode="g" horiz-adv-x="600" 
d="M292 493q51 1 96.5 -17.5t79.5 -51.5t54 -77.5t20 -95.5v-31v-94v-213q0 -51 -19 -96t-51.5 -79.5t-76.5 -55t-95 -21.5q-50 0 -94 18.5t-77 50.5q-6 5 0 11l51 69q2 3 6.5 3t6.5 -3q24 -27 60 -40t77 -3q24 6 44.5 19t35.5 32t23 42t8 48v21q-35 -25 -77 -37t-89 -7
t-86.5 26t-68.5 53.5t-45.5 74.5t-16.5 89v121q0 49 18 93t49.5 77t74.5 52.5t92 21.5zM441 220v31q0 29 -11 54.5t-30 44.5t-45 30t-55 11t-55 -11t-45 -30t-30 -44.5t-11 -54.5v-125q0 -29 11 -55t30 -45t45 -30t55 -11t55 11t45 30t30 45t11 55v94z" />
    <glyph glyph-name="h" unicode="h" horiz-adv-x="605" 
d="M330 490q46 -5 86 -25.5t69 -53.5t45.5 -75t16.5 -88v-359q0 -8 -8 -8h-85q-8 0 -8 8v360q0 31 -12.5 58t-34 46.5t-50 29t-59.5 6.5q-27 -3 -50 -15t-40 -31t-26.5 -43.5t-9.5 -51.5v-315v-44q0 -8 -9 -8h-84q-8 0 -8 8v44v316v472q0 8 8 8h84q9 0 9 -8v-275
q35 25 77 37t89 7z" />
    <glyph glyph-name="i" unicode="i" horiz-adv-x="226" 
d="M155 -119h-84q-9 0 -9 8v594q0 9 9 9h84q9 0 9 -9v-594q0 -8 -9 -8zM155 710q9 0 9 -9v-84q0 -8 -9 -8h-84q-9 0 -9 8v84q0 9 9 9h84z" />
    <glyph glyph-name="j" unicode="j" horiz-adv-x="260" 
d="M187 492q9 0 9 -9v-578q0 -47 -17 -89.5t-47 -75t-70.5 -53.5t-86.5 -25q-9 -2 -9 8v85q0 8 7 8q26 4 48 17t38.5 31.5t25.5 42.5t9 51v578q0 9 9 9h84zM187 710q9 0 9 -8v-85q0 -8 -9 -8h-84q-9 0 -9 8v85q0 8 9 8h84z" />
    <glyph glyph-name="k" unicode="k" horiz-adv-x="554" 
d="M589 -108q2 -4 0.5 -7.5t-6.5 -3.5h-101q-7 0 -10 5l-191 294l-117 -137v-154q0 -8 -8 -8h-85q-8 0 -8 8v832q0 8 8 8h85q8 0 8 -8v-521l245 288q4 4 9 4h112q5 0 7 -4t-1 -8l-186 -219l239 -369v0z" />
    <glyph glyph-name="l" unicode="l" horiz-adv-x="230" 
d="M157 -119h-84q-9 0 -9 9v830q0 9 9 9h84q9 0 9 -9v-830q0 -9 -9 -9z" />
    <glyph glyph-name="m" unicode="m" horiz-adv-x="995" 
d="M691 491q50 0 94.5 -19t77.5 -52.5t52 -78t19 -94.5v-358q0 -8 -9 -8h-84q-8 0 -8 8v360q0 31 -12.5 58t-34 46.5t-50 29t-59.5 6.5q-27 -3 -50 -15t-40 -31t-26.5 -43.5t-9.5 -51.5v-315v-44q0 -8 -9 -8h-84q-9 0 -9 8v44v316q0 31 -12.5 58t-33.5 46.5t-49.5 29
t-60.5 6.5q-27 -3 -50 -15t-40 -31t-26.5 -43.5t-9.5 -51.5v-315v-44q0 -8 -8 -8h-84q-9 0 -9 8v44v316v234q0 9 9 9h84q8 0 8 -9v-37q30 21 66 33t75 12q59 0 109 -25.5t83 -68.5q33 43 82.5 68.5t108.5 25.5z" />
    <glyph glyph-name="n" unicode="n" horiz-adv-x="605" 
d="M330 490q46 -5 86 -26t69 -53.5t45.5 -74.5t16.5 -88v-359q0 -8 -8 -8h-85q-8 0 -8 8v360q0 31 -12.5 58t-34 46.5t-50 29t-59.5 6.5q-27 -3 -50 -15t-40 -31t-26.5 -43.5t-9.5 -51.5v-315v-44q0 -8 -8 -8h-85q-8 0 -8 8v44v316v234q0 9 8 9h85q8 0 8 -9v-37q35 25 77 37
t89 7z" />
    <glyph glyph-name="o" unicode="o" horiz-adv-x="598" 
d="M299 -118q-50 0 -94 19t-77 52t-52 77t-19 94v126q0 50 19 94t52 77t77 52t94 19t94 -19t77 -52t52 -77t19 -94v-126q0 -50 -19 -94t-52 -77t-77 -52t-94 -19zM299 391q-29 0 -55 -11t-45 -30.5t-30 -45t-11 -54.5v-126q0 -29 11 -55t30 -45t45 -30t55 -11t55 11t45 30
t30 45t11 55v126q0 29 -11 54.5t-30 45t-45 30.5t-55 11z" />
    <glyph glyph-name="p" unicode="p" horiz-adv-x="616" 
d="M341 491q46 -5 86 -25.5t69 -53.5t45.5 -75t16.5 -88v-123q0 -47 -16.5 -89t-45.5 -74.5t-69 -53.5t-86 -26q-47 -5 -89 7t-77 38v-247q0 -8 -8 -8h-85q-8 0 -8 8v443v126v234q0 9 8 9h85q8 0 8 -9v-37q35 25 77 37t89 7zM457 250q0 29 -11 55t-30 45t-45 30t-55 11
t-55 -11t-45 -30t-30 -45t-11 -55v-126q0 -29 11 -54.5t30 -45t45 -30.5t55 -11t55 11t45 30.5t30 45t11 54.5v126z" />
    <glyph glyph-name="q" unicode="q" horiz-adv-x="605" 
d="M441 484q0 9 8 9h85q8 0 8 -9v-234v-126v-443q0 -8 -8 -8h-85q-8 0 -8 8v247q-35 -26 -77 -38t-89 -7t-86.5 26t-68.5 53.5t-45.5 74.5t-16.5 89v123q0 46 16.5 88t45.5 75t68.5 53.5t86.5 25.5t89 -7t77 -37v37zM300 -17q29 0 55 11t45 30.5t30 45t11 54.5v126
q0 29 -11 55t-30 45t-45 30t-55 11t-55 -11t-45 -30t-30 -45t-11 -55v-126q0 -29 11 -54.5t30 -45t45 -30.5t55 -11z" />
    <glyph glyph-name="r" unicode="r" horiz-adv-x="411" 
d="M162 400q44 42 100 66t121 26q8 2 8 -8v-85q0 -8 -8 -8q-46 -2 -86.5 -20.5t-70.5 -49t-47 -72t-17 -87.5v-273q0 -8 -8 -8h-85q-8 0 -8 8v273v321q0 9 8 9h85q8 0 8 -9v-83v0z" />
    <glyph glyph-name="s" unicode="s" horiz-adv-x="552" 
d="M483 -13q-18 -34 -49 -59q-33 -25 -76 -35q-44 -12 -95 -12q-69 0 -131 17q-52 15 -100 58q-6 7 0 13l57 59q5 5 12 0q35 -32 72 -42q43 -13 90 -13q56 0 94 21q40 22 40 69q0 34 -20 54q-20 21 -64 24l-93 9q-80 6 -125 46q-43 38 -43 116q0 42 17 76q16 33 45 56
q31 23 68 35q38 13 85 13q67 0 119 -16q45 -12 82 -41q2 -2 2.5 -6t-2.5 -6l-54 -58q-4 -4 -11 -1q-24 19 -57 28q-20 5 -40 7.5t-41 2.5q-54 0 -83 -23t-29 -61q0 -29 19 -51q19 -21 67 -25l93 -8q81 -7 125 -47q44 -41 44 -119q0 -47 -18 -81z" />
    <glyph glyph-name="t" unicode="t" horiz-adv-x="448" 
d="M402 405q0 -9 -9 -9h-124v-281q0 -26 9.5 -49.5t26.5 -41.5t40 -29t49 -12q8 0 8 -9v-84q0 -9 -9 -9q-47 2 -88 21t-71.5 50.5t-48 73.5t-17.5 89v281h-123q-9 0 -9 9v78q0 9 9 9h123v133q0 9 9 9h84q8 0 8 -9v-133h124q9 0 9 -9v-78v0z" />
    <glyph glyph-name="u" unicode="u" horiz-adv-x="610" 
d="M539 492q8 0 8 -9v-45v-316v-233q0 -8 -8 -8h-85q-8 0 -8 8v37q-35 -25 -77 -37.5t-89 -7.5t-86.5 26t-68.5 54t-45.5 74.5t-16.5 88.5v359q0 9 8 9h85q8 0 8 -9v-361q0 -31 12.5 -58t34 -46.5t49.5 -29t60 -6.5q27 3 50 15.5t40 31t26.5 43t9.5 51.5v315v45q0 9 8 9h85z
" />
    <glyph glyph-name="v" unicode="v" horiz-adv-x="500" 
d="M189 -73l-173 556q-2 3 0.5 6t5.5 3h79q8 0 10 -8l139 -450l138 450q3 8 11 8h78q4 0 6.5 -3t0.5 -6l-172 -556q-6 -20 -23 -33t-38 -13q-22 0 -39 13t-23 33z" />
    <glyph glyph-name="w" unicode="w" horiz-adv-x="764" 
d="M738 492q4 0 6 -3t1 -6l-150 -556q-5 -20 -21.5 -33t-37.5 -13t-38 13t-22 33l-94 346l-93 -346q-5 -20 -21.5 -33t-37.5 -13t-38 13t-22 33l-151 556q-1 3 1 6t6 3h78q9 0 11 -9l114 -429l107 403q4 16 16.5 25.5t28.5 9.5h1h1q16 0 28.5 -9.5t16.5 -25.5l107 -403
l114 429q2 9 11 9h78v0z" />
    <glyph glyph-name="x" unicode="x" horiz-adv-x="506" 
d="M493 -112q2 -2 0.5 -4.5t-4.5 -2.5h-106q-6 0 -7 4l-124 204l-123 -203q-3 -5 -10 -5h-100q-4 0 -6 3.5t0 7.5l180 294l-180 295q-2 4 0 7.5t6 3.5h100q7 0 10 -6l123 -202l123 202q3 6 10 6h99q5 0 6.5 -3.5t-0.5 -7.5l-179 -295l182 -298v0z" />
    <glyph glyph-name="y" unicode="y" horiz-adv-x="512" 
d="M498 -87q0 -51 -19 -96.5t-51.5 -80t-76.5 -54.5t-95 -21q-50 -1 -94 18t-76 51q-6 6 -1 11l51 68q2 4 6.5 4t6.5 -3q24 -28 60 -41t78 -3q49 12 79.5 51.5t30.5 90.5v19q-35 -25 -77 -37.5t-89 -7.5t-86.5 26t-68.5 53.5t-45.5 74.5t-16.5 89v358q0 9 8 9h84q9 0 9 -9
v-360q0 -31 12.5 -57.5t33.5 -46t49.5 -29.5t60.5 -7q27 3 50 15.5t40 31t26.5 43t9.5 51.5v359q0 9 8 9h85q8 0 8 -9v-263v-307z" />
    <glyph glyph-name="z" unicode="z" horiz-adv-x="532" 
d="M461 -119h-322q-32 0 -54.5 22.5t-22.5 54.5q0 24 14 44l276 393h-281q-9 0 -9 9v79q0 9 9 9h321q32 0 55 -23t23 -55q0 -24 -14 -44l-276 -391h281q9 0 9 -8v-82q0 -8 -9 -8z" />
    <glyph glyph-name="bar" unicode="|" horiz-adv-x="338" 
d="M127 734h84q9 0 9 -9v-839q0 -10 -9 -10h-84q-9 0 -9 10v839q0 9 9 9z" />
    <glyph glyph-name="asciitilde" unicode="~" horiz-adv-x="616" 
d="M65 273q-7 4 -3 10q3 7 10.5 19.5t19.5 26t29 26t40 20.5l14 4t15 3q64 9 137 -34q32 -19 56.5 -19.5t42 7.5t28.5 20.5t16 20.5q3 7 11 3l70 -36q6 -3 4 -11q-4 -8 -11.5 -21t-19.5 -27.5t-29 -27.5t-40 -21l-14 -4t-14 -3q-65 -9 -138 34q-32 18 -56.5 19t-42.5 -7
t-29.5 -20.5t-17.5 -20.5q-4 -7 -11 -2z" />
    <glyph glyph-name="eogonek" unicode="&#x119;" horiz-adv-x="600" 
d="M413 39q5 7 12 4l85 -23q8 -2 4 -10q-34 -64 -97.5 -99.5t-138.5 -28.5q-47 4 -87 25t-69.5 53.5t-46.5 75t-17 89.5v123q0 51 19.5 95.5t53.5 77.5t79.5 51.5t97.5 17.5q49 -2 92 -21.5t74.5 -52.5t49.5 -77t18 -93v-43q0 -29 -19.5 -45.5t-48.5 -16.5h-315v-8
q0 -27 9 -52t25 -45.5t38.5 -34.5t48.5 -17q40 -6 75 9.5t58 45.5zM159 236h282v12q0 29 -11 54.5t-30 45t-45 30.5t-55 11t-55 -11t-45 -30.5t-30 -45t-11 -54.5v-12z" />
    <glyph glyph-name="quoteleft" unicode="&#x2018;" horiz-adv-x="242" 
d="M163 684h-84q-9 0 -9 8v86v1v10q0 35 25 60q4 4 8 0l17 -19q3 -3 0 -8q-14 -14 -14 -33v-4h57q9 0 9 -8v-85q0 -8 -9 -8z" />
    <glyph glyph-name="quoteright" unicode="&#x2019;" horiz-adv-x="242" 
d="M79 785h84q9 0 9 -8v-87v-10q0 -35 -25 -60q-4 -4 -8 0l-17 19q-4 3 0 7q14 16 14 34v4h-57q-9 0 -9 8v85q0 8 9 8z" />
    <glyph glyph-name="quotedblleft" unicode="&#x201c;" horiz-adv-x="378" 
d="M162 684h-84q-8 0 -8 8v86v1v10q0 34 24 60q4 3 9 0l16 -19q3 -3 0 -8q-13 -13 -13 -33v-4h56q9 0 9 -8v-85q0 -8 -9 -8zM300 684h-85q-8 0 -8 8v86v1v10q0 35 25 60q4 4 8 0l16 -19q3 -3 0 -8q-13 -15 -13 -33v-4h57q8 0 8 -8v-85q0 -8 -8 -8z" />
    <glyph glyph-name="quotedblright" unicode="&#x201d;" horiz-adv-x="378" 
d="M78 785h84q9 0 9 -8v-87v-10q0 -35 -25 -60q-4 -4 -8 0l-16 19q-4 3 0 7q13 16 13 34v4h-57q-8 0 -8 8v85q0 8 8 8zM215 785h85q8 0 8 -8v-87v-10q0 -34 -24 -60q-5 -3 -9 0l-16 19q-4 3 0 7q13 14 13 34v4h-57q-8 0 -8 8v85q0 8 8 8z" />
    <glyph glyph-name="uni3131" unicode="&#x3131;" horiz-adv-x="821" 
d="M125 578q0 9 9 9h494q29 0 48.5 -20t19.5 -48v-487q0 -8 -8 -8h-85q-8 0 -8 8v459h-461q-9 0 -9 8v79v0z" />
    <glyph glyph-name="uni3132" unicode="&#x3132;" horiz-adv-x="949" 
d="M105 576q0 8 9 8h275q28 0 48 -19.5t20 -48.5v-487q0 -9 -9 -9h-84q-9 0 -9 9v459h-241q-9 0 -9 9v79zM493 576q0 8 9 8h274q29 0 48.5 -19.5t19.5 -48.5v-487q0 -9 -8 -9h-84q-9 0 -9 9v459h-241q-9 0 -9 9v79z" />
    <glyph glyph-name="uni3133" unicode="&#x3133;" horiz-adv-x="1064" 
d="M105 576q0 8 9 8h274q29 0 48.5 -19.5t19.5 -48.5v-487q0 -9 -8 -9h-85q-8 0 -8 9v459h-241q-9 0 -9 9v79zM772 456q0 -1 2 -16.5t9 -41.5t19.5 -61t32.5 -75t50 -82t71 -82q6 -6 0 -12l-58 -61q-5 -7 -12 0q-62 60 -101.5 122t-63.5 118q-23 -56 -62.5 -118t-102.5 -122
q-6 -8 -12 0l-58 61q-5 7 0 12q63 61 99.5 124t55 115t24 85t5.5 34h1v120q0 8 8 8h84q9 0 9 -8v-120z" />
    <glyph glyph-name="uni3134" unicode="&#x3134;" horiz-adv-x="820" 
d="M687 120q8 0 8 -9v-79q0 -8 -8 -8h-494q-29 0 -48.5 20t-19.5 48v486q0 9 8 9h85q8 0 8 -9v-458h461z" />
    <glyph glyph-name="uni3135" unicode="&#x3135;" horiz-adv-x="1018" 
d="M764 420l5.5 -30t24.5 -76.5t55 -103t97 -110.5q6 -7 1 -12l-55 -64q-5 -6 -12 -1q-63 55 -103 112.5t-63 108.5q-24 -51 -64 -108.5t-103 -112.5q-7 -5 -12 1l-55 64q-6 5 1 12q62 54 98 111t55 103t24 76l5 30v68h-141q-8 0 -8 9v79q0 8 8 8h141h101h140q9 0 9 -8v-79
q0 -9 -9 -9h-140v-68zM456 29q0 -9 -9 -9h-274q-29 0 -48.5 20t-19.5 48v488q0 8 8 8h85q8 0 8 -8v-460h241q9 0 9 -8v-79z" />
    <glyph glyph-name="uni3136" unicode="&#x3136;" horiz-adv-x="961" 
d="M512 584h273q8 0 8 -8v-74q0 -9 -8 -9h-273q-9 0 -9 9v74q0 8 9 8zM448 456h400q8 0 8 -8v-74q0 -9 -8 -9h-400q-8 0 -8 9v74q0 8 8 8zM648 -35q-37 0 -69.5 14t-56.5 38t-38 56.5t-14 69.5v10q0 37 14 69.5t38 56.5t56.5 38t69.5 14t69.5 -14t57 -38t38.5 -56.5
t14 -69.5v-10q0 -37 -14 -69.5t-38.5 -56.5t-57 -38t-69.5 -14zM648 230q-32 0 -54.5 -22.5t-22.5 -54.5v-10q0 -32 22.5 -54.5t54.5 -22.5t54.5 22.5t22.5 54.5v10q0 32 -22.5 54.5t-54.5 22.5zM457 7v79q0 9 -9 9h-241v459q0 9 -9 9h-84q-9 0 -9 -9v-487q0 -29 20 -48.5
t48 -19.5h275q9 0 9 8z" />
    <glyph glyph-name="uni3137" unicode="&#x3137;" horiz-adv-x="822" 
d="M688 120q9 0 9 -8v-79q0 -9 -9 -9h-495q-28 0 -48 20t-20 48v427q0 28 20 48t48 20h470q8 0 8 -9v-79q0 -8 -8 -8h-436v-371h461z" />
    <glyph glyph-name="uni3138" unicode="&#x3138;" horiz-adv-x="1003" 
d="M207 119h268q9 0 9 -8v-79q0 -9 -9 -9h-302q-28 0 -48 20t-20 48v428q0 29 20 48.5t48 19.5h275q8 0 8 -8v-79q0 -9 -8 -9h-241v-372zM890 119q8 0 8 -8v-79q0 -9 -8 -9h-302q-29 0 -48.5 20t-19.5 48v428q0 29 19.5 48.5t48.5 19.5h274q9 0 9 -8v-79q0 -9 -9 -9h-241
v-372h269z" />
    <glyph glyph-name="uni3139" unicode="&#x3139;" horiz-adv-x="821" 
d="M227 257v-137h461q8 0 8 -8v-79q0 -9 -8 -9h-494q-29 0 -49 20t-20 48v253q0 8 9 8h461v138h-461q-9 0 -9 8v79q0 9 9 9h494q29 0 48.5 -20t19.5 -48v-253q0 -9 -8 -9h-461z" />
    <glyph glyph-name="uni313A" unicode="&#x313a;" horiz-adv-x="950" 
d="M105 576q0 8 9 8h275q29 0 48.5 -19.5t19.5 -48.5v-253q0 -9 -9 -9h-242v-138h242q9 0 9 -8v-79q0 -9 -9 -9h-275q-29 0 -48.5 20t-19.5 48v254q0 8 9 8h242v138h-242q-9 0 -9 9v79zM494 576q0 8 8 8h275q28 0 48 -19.5t20 -48.5v-487q0 -9 -9 -9h-84q-9 0 -9 9v459h-241
q-8 0 -8 9v79z" />
    <glyph glyph-name="uni313B" unicode="&#x313b;" horiz-adv-x="962" 
d="M493 516q0 29 19.5 48.5t48.5 19.5h228q28 0 48 -19.5t20 -48.5v-428q0 -28 -20 -48t-48 -20h-34l-194 1q-29 0 -48.5 19.5t-19.5 48.5v427zM755 116v372h-161v-372h161zM105 576q0 8 9 8h275q29 0 48.5 -19.5t19.5 -48.5v-253q0 -9 -9 -9h-242v-138h242q9 0 9 -8v-79
q0 -9 -9 -9h-275q-29 0 -48.5 20t-19.5 48v254q0 8 9 8h242v138h-242q-9 0 -9 9v79z" />
    <glyph glyph-name="uni313C" unicode="&#x313c;" horiz-adv-x="962" 
d="M756 576q0 8 8 8h85q8 0 8 -8v-487q0 -29 -19.5 -49t-48.5 -19h-228q-29 0 -48.5 19.5t-19.5 48.5v487q0 8 8 8h85q8 0 8 -8v-168h162v168zM756 117v195h-162v-195h162zM105 576q0 8 8 8h276q28 0 48 -19.5t20 -48.5v-253q0 -9 -9 -9h-242v-138h242q9 0 9 -8v-79
q0 -9 -9 -9h-275q-29 0 -48.5 20t-19.5 48v254q0 8 8 8h242v138h-242q-8 0 -8 9v79z" />
    <glyph glyph-name="uni313D" unicode="&#x313d;" horiz-adv-x="1060" 
d="M105 576q0 8 8 8h276q28 0 48 -19.5t20 -48.5v-253q0 -9 -9 -9h-242v-138h242q9 0 9 -8v-79q0 -9 -9 -9h-275q-29 0 -48.5 20t-19.5 48v254q0 8 8 8h242v138h-242q-8 0 -8 9v79zM769 456q0 -1 5.5 -34.5t24 -85t55 -115t98.5 -123.5q6 -5 1 -12l-58 -61q-6 -8 -12 0
q-63 60 -102.5 122t-62.5 118q-24 -56 -63.5 -118t-101.5 -122q-7 -7 -13 0l-57 61q-7 7 0 12q41 40 71 82t50 82t32.5 75t19.5 61t9 41.5t2 16.5v120q0 8 8 8h85q8 0 8 -8v-120h1z" />
    <glyph glyph-name="uni313E" unicode="&#x313e;" horiz-adv-x="950" 
d="M845 497q0 -9 -9 -9h-242v-138h242q9 0 9 -8v-79q0 -9 -9 -9h-242v-138h242q9 0 9 -8v-79q0 -9 -9 -9h-275q-29 0 -48.5 20t-19.5 48v428q0 29 19.5 48.5t48.5 19.5h275q9 0 9 -8v-79zM105 576q0 8 9 8h275q29 0 48.5 -19.5t19.5 -48.5v-253q0 -9 -8 -9h-242v-138h242
q8 0 8 -8v-79q0 -9 -8 -9h-276q-28 0 -48 20t-20 48v254q0 8 9 8h242v138h-242q-9 0 -9 9v79z" />
    <glyph glyph-name="uni313F" unicode="&#x313f;" horiz-adv-x="954" 
d="M800 458q9 0 9 -9l-17 -333h49q8 0 8 -8v-79q0 -9 -8 -9h-340q-8 0 -8 9v79q0 8 8 8h49l-17 333q0 9 9 9h84q9 0 9 -8l16 -334h40l16 334q0 8 9 8h84zM493 576q0 8 8 8h340q8 0 8 -8v-79q0 -9 -8 -9h-340q-8 0 -8 9v79zM105 576q0 8 8 8h276q28 0 48 -19.5t20 -48.5v-253
q0 -9 -9 -9h-242v-138h242q9 0 9 -8v-79q0 -9 -9 -9h-275q-29 0 -48.5 20t-19.5 48v254q0 8 8 8h242v138h-242q-8 0 -8 9v79z" />
    <glyph glyph-name="uni3140" unicode="&#x3140;" horiz-adv-x="1014" 
d="M564 584h274q8 0 8 -8v-74q0 -9 -8 -9h-274q-8 0 -8 9v74q0 8 8 8zM501 456h400q8 0 8 -8v-74q0 -9 -8 -9h-400q-8 0 -8 9v74q0 8 8 8zM701 -35q-37 0 -69.5 14t-56.5 38t-38 56.5t-14 69.5v10q0 37 14 69.5t38 56.5t56.5 38t69.5 14t69.5 -14t56.5 -38t38 -56.5
t14 -69.5v-10q0 -37 -14 -69.5t-38 -56.5t-56.5 -38t-69.5 -14zM701 230q-32 0 -54.5 -22.5t-22.5 -54.5v-10q0 -32 22.5 -54.5t54.5 -22.5t54.5 22.5t22.5 54.5v10q0 32 -22.5 54.5t-54.5 22.5zM105 554v-79q0 -8 8 -8h242v-138h-242q-8 0 -8 -9v-253q0 -29 19.5 -48.5
t48.5 -19.5h275q9 0 9 8v79q0 9 -9 9h-242v138h242q9 0 9 8v254q0 28 -20 48t-48 20h-276q-8 0 -8 -9z" />
    <glyph glyph-name="uni3141" unicode="&#x3141;" horiz-adv-x="820" 
d="M627 587q29 0 48.5 -20t19.5 -48v-427q0 -28 -19.5 -48t-48.5 -20h-434q-29 0 -48.5 20t-19.5 48v427q0 28 19.5 48t48.5 20h434zM226 491v-371h368v371h-368z" />
    <glyph glyph-name="uni3142" unicode="&#x3142;" horiz-adv-x="821" 
d="M690 587q6 0 6 -7v-488q0 -28 -19.5 -48t-48.5 -20h-435q-28 0 -48 20t-20 48v488q0 7 7 7h88q7 0 7 -7v-165h368v165q0 7 7 7h88zM227 319v-199h368v199h-368z" />
    <glyph glyph-name="uni3143" unicode="&#x3143;" horiz-adv-x="1004" 
d="M388 579q0 8 8 8h85q8 0 8 -8v-488q0 -28 -19.5 -48t-48.5 -20h-228q-29 0 -48.5 20t-19.5 48v488q0 8 8 8h85q8 0 8 -8v-168h162v168zM388 315h-162v-195h162v195zM788 579q0 8 8 8h84q9 0 9 -8v-488q0 -28 -19.5 -48t-48.5 -20h-228q-29 0 -48.5 20t-19.5 48v488
q0 8 8 8h85q8 0 8 -8v-168h162v168zM788 315h-162v-195h162v195z" />
    <glyph glyph-name="uni3144" unicode="&#x3144;" horiz-adv-x="1033" 
d="M335 576q0 8 8 8h84q9 0 9 -8v-487q0 -29 -20 -49t-48 -20l-228 1q-29 0 -48.5 19.5t-19.5 48.5v487q0 8 8 8h85q8 0 8 -8v-168h162v168zM335 117v195h-162v-195h162zM742 456q0 -1 5.5 -34.5t24.5 -85t55.5 -115t98.5 -123.5q5 -5 0 -12l-58 -61q-6 -8 -12 0
q-63 60 -102.5 122t-62.5 118q-24 -56 -63.5 -118t-101.5 -122q-7 -7 -12 0l-58 61q-6 6 0 12q41 40 71 82t50 82t32.5 75t19.5 61t9 41.5t2 16.5v120q0 8 9 8h84q8 0 8 -8v-120h1z" />
    <glyph glyph-name="uni3145" unicode="&#x3145;" horiz-adv-x="898" 
d="M500 463q0 -2 3.5 -18t13 -42t27.5 -60.5t48 -73t73 -80t104 -81.5q7 -5 3 -12l-46 -71q-5 -7 -12 -2q-54 36 -96 73t-74.5 73.5t-55.5 71t-39 65.5q-16 -31 -39 -65.5t-55.5 -71t-74.5 -73.5t-96 -73q-7 -5 -12 2l-46 71q-4 7 3 12q92 61 145.5 123.5t81 114t35 84
t7.5 33.5v118q0 9 9 9h84q9 0 9 -9v-118v0z" />
    <glyph glyph-name="uni3146" unicode="&#x3146;" horiz-adv-x="1030" 
d="M738 493q0 -26 3 -51.5t11 -50.5q7 -27 19.5 -61t33 -72t49.5 -78t68 -78q6 -6 0 -12l-58 -61q-5 -7 -12 0q-60 58 -99.5 119t-63.5 115q-21 -48 -45 -86t-45 -65t-35.5 -42t-16.5 -17l-30 -28q-6 -6 -12 0l-29 30q-51 53 -84 104.5t-53 99.5q-24 -54 -62.5 -113.5
t-98.5 -116.5q-6 -6 -13 0l-58 61q-5 7 1 12q45 43 76 89t51.5 88t32 78t17.5 61q7 31 7 66v96q0 8 8 8h85q8 0 8 -8v-125q0 -2 2 -27t13.5 -65t35.5 -91t69 -106q16 20 36 49.5t38 67t31.5 82t18.5 94.5v121q0 8 8 8h84q9 0 9 -8v-87v0z" />
    <glyph glyph-name="uni3147" unicode="&#x3147;" horiz-adv-x="848" 
d="M424 1q-62 0 -116.5 23.5t-95 64t-64 94.5t-23.5 116v12q0 62 23.5 116.5t64 95t95 64t116.5 23.5t116.5 -23.5t95 -64t64 -95t23.5 -116.5v-12q0 -62 -23.5 -116t-64 -94.5t-95 -64t-116.5 -23.5zM424 509q-41 0 -77 -15.5t-63 -42.5t-42.5 -63t-15.5 -77v-12
q0 -41 15.5 -76.5t42.5 -62.5t63 -42.5t77 -15.5t77 15.5t62.5 42.5t42 62.5t15.5 76.5v12q0 41 -15.5 77t-42 63t-62.5 42.5t-77 15.5z" />
    <glyph glyph-name="uni3148" unicode="&#x3148;" horiz-adv-x="820" 
d="M461 400q0 -2 8 -29t35.5 -68.5t80 -92.5t141.5 -100q8 -4 4 -11l-41 -74q-3 -8 -11 -4q-55 30 -97.5 62t-75 63.5t-56 61t-39.5 56.5q-16 -27 -39.5 -56.5t-56 -61t-75 -63.5t-97.5 -62q-7 -4 -12 4l-40 74q-4 8 4 11q89 49 141.5 100.5t80 93.5t35.5 68.5t8 27.5v95
h-226q-8 0 -8 8v79q0 9 8 9h554q8 0 8 -9v-79q0 -8 -8 -8h-226v-95v0z" />
    <glyph glyph-name="uni3149" unicode="&#x3149;" horiz-adv-x="944" 
d="M695 419q0 -31 7 -56q6 -21 17.5 -50.5t31.5 -63.5t50.5 -70.5t73.5 -72.5q7 -5 2 -12l-53 -66q-5 -6 -12 -1q-62 51 -101.5 103t-64.5 100q-21 -42 -45.5 -75t-46 -56.5t-36.5 -37t-17 -14.5l-33 -26l-32 28q-52 45 -86 90.5t-54 86.5q-25 -47 -64.5 -98t-99.5 -101
q-7 -5 -12 1l-53 66q-5 6 1 12q44 36 74.5 73t50.5 71.5t31.5 64t17.5 50.5q7 25 7 56v73h-135q-9 0 -9 8v79q0 9 9 9h332q9 0 9 -9v-79q0 -8 -9 -8h-96v-98q0 -2 2 -22.5t13.5 -54t36 -76t68.5 -87.5q16 16 35.5 40.5t37.5 55.5t32 68t19 79v95h-97q-8 0 -8 8v79q0 9 8 9
h333q9 0 9 -9v-79q0 -8 -9 -8h-135v-75v0z" />
    <glyph glyph-name="uni314A" unicode="&#x314a;" horiz-adv-x="821" 
d="M462 296q1 -6 11.5 -26t37.5 -49t75.5 -63.5t126.5 -68.5q8 -4 4 -11l-32 -78q-4 -7 -12 -4q-107 46 -168.5 94.5t-93.5 90.5q-32 -42 -93.5 -90.5t-168.5 -94.5q-8 -3 -12 4l-32 78q-4 7 4 11q80 34 128.5 69.5t75.5 64.5t36.5 48.5t10.5 23.5v65h-226q-9 0 -9 8v79
q0 9 9 9h554q8 0 8 -9v-79q0 -8 -8 -8h-226v-64zM585 616q8 0 8 -9v-79q0 -8 -8 -8h-348q-8 0 -8 8v79q0 9 8 9h348z" />
    <glyph glyph-name="uni314B" unicode="&#x314b;" horiz-adv-x="821" 
d="M125 578q0 9 9 9h494q29 0 48.5 -20t19.5 -48v-486q0 -9 -8 -9h-85q-8 0 -8 9v213h-461q-9 0 -9 9v79q0 8 9 8h461v149h-461q-9 0 -9 8v79v0z" />
    <glyph glyph-name="uni314C" unicode="&#x314c;" horiz-adv-x="821" 
d="M696 499q0 -8 -8 -8h-461v-137h443q8 0 8 -9v-79q0 -8 -8 -8h-443v-138h461q8 0 8 -9v-79q0 -8 -8 -8h-495q-28 0 -48 19.5t-20 48.5v427q0 28 20 48t48 20h495q8 0 8 -9v-79v0z" />
    <glyph glyph-name="uni314D" unicode="&#x314d;" horiz-adv-x="794" 
d="M660 587q9 0 9 -9v-79q0 -8 -9 -8h-527q-8 0 -8 8v79q0 9 8 9h527zM674 120q9 0 9 -8v-79q0 -9 -9 -9h-554q-9 0 -9 9v79q0 8 9 8h90l-14 321q-2 9 8 9h85q8 0 8 -8l14 -322h178l14 322q0 8 8 8h85q10 0 8 -9l-14 -321h84z" />
    <glyph glyph-name="uni314E" unicode="&#x314e;" horiz-adv-x="818" 
d="M422 377q43 0 81.5 -16.5t67 -45t45 -66.5t16.5 -81q0 -44 -16.5 -82t-45 -66.5t-67 -45t-81.5 -16.5h-26q-44 0 -82 16.5t-66.5 45t-45 66.5t-16.5 82q0 43 16.5 81t45 66.5t66.5 45t82 16.5h26zM422 60q22 0 42 8.5t34.5 23t23 34t8.5 42.5q0 22 -8.5 41.5t-23 34.5
t-34.5 23.5t-42 8.5h-26q-23 0 -42.5 -8.5t-34 -23.5t-23 -34.5t-8.5 -41.5q0 -23 8.5 -42.5t23 -34t34 -23t42.5 -8.5h26zM125 501q0 8 9 8h550q9 0 9 -8v-79q0 -9 -9 -9h-550q-9 0 -9 9v79zM597 653q8 0 8 -9v-79q0 -8 -8 -8h-376q-9 0 -9 8v79q0 9 9 9h376z" />
    <glyph glyph-name="uni314F" unicode="&#x314f;" horiz-adv-x="806" 
d="M545 386q8 0 8 -9v-78q0 -9 -8 -9h-109v-400q0 -9 -9 -9h-84q-8 0 -8 9v831q0 8 8 8h84q9 0 9 -8v-335h109v0z" />
    <glyph glyph-name="uni3150" unicode="&#x3150;" horiz-adv-x="824" 
d="M545 729q9 0 9 -8v-831q0 -9 -9 -9h-84q-8 0 -8 9v400h-82v-400q0 -9 -8 -9h-85q-8 0 -8 9v831q0 8 8 8h85q8 0 8 -8v-335h82v335q0 8 8 8h84v0z" />
    <glyph glyph-name="uni3151" unicode="&#x3151;" horiz-adv-x="809" 
d="M436 248h109q8 0 8 -9v-78q0 -9 -8 -9h-109v-262q0 -9 -9 -9h-84q-8 0 -8 9v831q0 8 8 8h84q9 0 9 -8v-196h109q8 0 8 -9v-78q0 -9 -8 -9h-109v-181z" />
    <glyph glyph-name="uni3152" unicode="&#x3152;" horiz-adv-x="824" 
d="M545 729q9 0 9 -8v-831q0 -9 -9 -9h-84q-8 0 -8 9v262h-82v-262q0 -9 -8 -9h-85q-8 0 -8 9v831q0 8 8 8h85q8 0 8 -8v-196h82v196q0 8 8 8h84zM453 248v181h-82v-181h82z" />
    <glyph glyph-name="uni3153" unicode="&#x3153;" horiz-adv-x="827" 
d="M484 729q8 0 8 -8v-831q0 -9 -8 -9h-85q-8 0 -8 9v398h-127q-8 0 -8 8v78q0 9 8 9h127v338q0 8 8 8h85v0z" />
    <glyph glyph-name="uni3154" unicode="&#x3154;" horiz-adv-x="849" 
d="M430 729q9 0 9 -8v-831q0 -9 -9 -9h-84q-9 0 -9 9v398h-126q-9 0 -9 8v78q0 9 9 9h126v338q0 8 9 8h84zM601 729q8 0 8 -8v-831q0 -9 -8 -9h-84q-9 0 -9 9v831q0 8 9 8h84z" />
    <glyph glyph-name="uni3155" unicode="&#x3155;" horiz-adv-x="827" 
d="M484 729q8 0 8 -8v-831q0 -9 -8 -9h-85q-8 0 -8 9v251h-127q-8 0 -8 8v78q0 9 8 9h127v181h-127q-8 0 -8 9v78q0 8 8 8h127v209q0 8 8 8h85v0z" />
    <glyph glyph-name="uni3156" unicode="&#x3156;" horiz-adv-x="849" 
d="M430 729q9 0 9 -8v-831q0 -9 -9 -9h-84q-9 0 -9 9v251h-126q-9 0 -9 8v78q0 9 9 9h126v181h-126q-9 0 -9 9v78q0 8 9 8h126v209q0 8 9 8h84zM601 729q8 0 8 -8v-831q0 -9 -8 -9h-84q-9 0 -9 9v831q0 8 9 8h84z" />
    <glyph glyph-name="uni3157" unicode="&#x3157;" horiz-adv-x="822" 
d="M779 236q8 0 8 -8v-79q0 -8 -8 -8h-736q-8 0 -8 8v79q0 8 8 8h317v226q0 8 9 8h84q9 0 9 -8v-226h317z" />
    <glyph glyph-name="uni3158" unicode="&#x3158;" horiz-adv-x="881" 
d="M851 386q8 0 8 -9v-78q0 -9 -8 -9h-97v-400q0 -9 -8 -9h-85q-8 0 -8 9v831q0 8 8 8h85q8 0 8 -8v-335h97zM562 41q9 0 9 -8v-79q0 -8 -9 -8h-531q-9 0 -9 8v79q0 8 9 8h197v153q0 9 8 9h85q8 0 8 -9v-153h233z" />
    <glyph glyph-name="uni3159" unicode="&#x3159;" horiz-adv-x="812" 
d="M417 41q8 0 8 -8v-79q0 -8 -8 -8h-364q-8 0 -8 8v79q0 8 8 8h137v153q0 9 9 9h84q9 0 9 -9v-153h125zM758 729q9 0 9 -8v-831q0 -9 -9 -9h-84q-8 0 -8 9v400h-70v-400q0 -9 -8 -9h-85q-8 0 -8 9v831q0 8 8 8h85q8 0 8 -8v-335h70v335q0 8 8 8h84z" />
    <glyph glyph-name="uni315A" unicode="&#x315a;" horiz-adv-x="880" 
d="M806 729q9 0 9 -8v-831q0 -9 -9 -9h-84q-9 0 -9 9v831q0 8 9 8h84zM617 41q8 0 8 -8v-79q0 -8 -8 -8h-544q-8 0 -8 8v79q0 8 8 8h197v153q0 9 9 9h84q9 0 9 -9v-153h245z" />
    <glyph glyph-name="uni315B" unicode="&#x315b;" horiz-adv-x="822" 
d="M778 236q9 0 9 -8v-79q0 -8 -9 -8h-735q-8 0 -8 8v79q0 8 8 8h155v225q0 9 8 9h85q8 0 8 -9v-225h223v225q0 9 9 9h84q9 0 9 -9v-225h154z" />
    <glyph glyph-name="uni315C" unicode="&#x315c;" horiz-adv-x="822" 
d="M779 479q8 0 8 -8v-79q0 -8 -8 -8h-317v-244q0 -8 -9 -8h-84q-9 0 -9 8v244h-317q-8 0 -8 8v79q0 8 8 8h736v0z" />
    <glyph glyph-name="uni315D" unicode="&#x315d;" horiz-adv-x="873" 
d="M800 729q8 0 8 -9v-831q0 -8 -8 -8h-84q-9 0 -9 8v112h-127q-8 0 -8 9v78q0 9 8 9h127v623q0 9 9 9h84zM614 180q0 -9 -9 -9h-257v-281q0 -9 -8 -9h-85q-8 0 -8 9v281h-173q-9 0 -9 9v78q0 9 9 9h531q9 0 9 -9v-78z" />
    <glyph glyph-name="uni315E" unicode="&#x315e;" horiz-adv-x="862" 
d="M788 729q9 0 9 -9v-831q0 -8 -9 -8h-84q-8 0 -8 8v831q0 9 8 9h84zM618 729q8 0 8 -9v-831q0 -8 -8 -8h-84q-9 0 -9 8v112h-127q-8 0 -8 9v78q0 9 8 9h127v623q0 9 9 9h84zM445 180q0 -9 -8 -9h-161v-281q0 -9 -9 -9h-84q-9 0 -9 9v281h-101q-8 0 -8 9v78q0 9 8 9h364
q8 0 8 -9v-78z" />
    <glyph glyph-name="uni315F" unicode="&#x315f;" horiz-adv-x="867" 
d="M793 729q8 0 8 -9v-831q0 -8 -8 -8h-85q-8 0 -8 8v831q0 9 8 9h85zM616 267q9 0 9 -9v-78q0 -9 -9 -9h-269v-281q0 -9 -8 -9h-85q-8 0 -8 9v281h-173q-8 0 -8 9v78q0 9 8 9h543z" />
    <glyph glyph-name="uni3160" unicode="&#x3160;" horiz-adv-x="822" 
d="M778 479q9 0 9 -9v-78q0 -8 -9 -8h-148v-244q0 -8 -9 -8h-84q-9 0 -9 8v244h-235v-244q0 -8 -8 -8h-84q-9 0 -9 8v244h-149q-8 0 -8 8v78q0 9 8 9h735v0z" />
    <glyph glyph-name="uni3161" unicode="&#x3161;" horiz-adv-x="822" 
d="M786 353q1 0 1 -1v-94h-1h-750h-1v94q0 1 1 1h750v0z" />
    <glyph glyph-name="uni3162" unicode="&#x3162;" horiz-adv-x="884" 
d="M628 41q9 0 9 -8v-79q0 -8 -9 -8h-555q-8 0 -8 8v79q0 8 8 8h555zM811 729q8 0 8 -8v-831q0 -9 -8 -9h-84q-9 0 -9 9v831q0 8 9 8h84z" />
    <glyph glyph-name="uni3163" unicode="&#x3163;" horiz-adv-x="822" 
d="M462 -110q0 -9 -9 -9h-84q-9 0 -9 9v831q0 8 9 8h84q9 0 9 -8v-831z" />
    <glyph glyph-name="uni3164" unicode="&#x3164;" horiz-adv-x="891" 
 />
    <glyph glyph-name="uni3165" unicode="&#x3165;" horiz-adv-x="899" 
 />
    <glyph glyph-name="uni3166" unicode="&#x3166;" 
 />
    <glyph glyph-name="uni3167" unicode="&#x3167;" 
 />
    <glyph glyph-name="uni3168" unicode="&#x3168;" 
 />
    <glyph glyph-name="uni3169" unicode="&#x3169;" 
 />
    <glyph glyph-name="uni316A" unicode="&#x316a;" 
 />
    <glyph glyph-name="uni316B" unicode="&#x316b;" 
 />
    <glyph glyph-name="uni316C" unicode="&#x316c;" 
 />
    <glyph glyph-name="uni316D" unicode="&#x316d;" 
 />
    <glyph glyph-name="uni316E" unicode="&#x316e;" 
 />
    <glyph glyph-name="uni316F" unicode="&#x316f;" 
 />
    <glyph glyph-name="uni3170" unicode="&#x3170;" 
 />
    <glyph glyph-name="uni3171" unicode="&#x3171;" 
 />
    <glyph glyph-name="uni3172" unicode="&#x3172;" 
 />
    <glyph glyph-name="uni3173" unicode="&#x3173;" 
 />
    <glyph glyph-name="uni3174" unicode="&#x3174;" 
 />
    <glyph glyph-name="uni3175" unicode="&#x3175;" 
 />
    <glyph glyph-name="uni3176" unicode="&#x3176;" 
 />
    <glyph glyph-name="uni3177" unicode="&#x3177;" 
 />
    <glyph glyph-name="uni3178" unicode="&#x3178;" 
 />
    <glyph glyph-name="uni3179" unicode="&#x3179;" 
 />
    <glyph glyph-name="uni317A" unicode="&#x317a;" 
 />
    <glyph glyph-name="uni317B" unicode="&#x317b;" 
 />
    <glyph glyph-name="uni317C" unicode="&#x317c;" 
 />
    <glyph glyph-name="uni317D" unicode="&#x317d;" 
 />
    <glyph glyph-name="uni317E" unicode="&#x317e;" 
 />
    <glyph glyph-name="uni317F" unicode="&#x317f;" 
 />
    <glyph glyph-name="uni3180" unicode="&#x3180;" 
 />
    <glyph glyph-name="uni3181" unicode="&#x3181;" 
 />
    <glyph glyph-name="uni3182" unicode="&#x3182;" 
 />
    <glyph glyph-name="uni3183" unicode="&#x3183;" 
 />
    <glyph glyph-name="uni3184" unicode="&#x3184;" 
 />
    <glyph glyph-name="uni3185" unicode="&#x3185;" 
 />
    <glyph glyph-name="uni3186" unicode="&#x3186;" 
 />
    <glyph glyph-name="uni3187" unicode="&#x3187;" 
 />
    <glyph glyph-name="uni3188" unicode="&#x3188;" 
 />
    <glyph glyph-name="uni3189" unicode="&#x3189;" 
 />
    <glyph glyph-name="uni318A" unicode="&#x318a;" 
 />
    <glyph glyph-name="uni318B" unicode="&#x318b;" 
 />
    <glyph glyph-name="uni318C" unicode="&#x318c;" 
 />
    <glyph glyph-name="uni318D" unicode="&#x318d;" 
 />
    <glyph glyph-name="uni318E" unicode="&#x318e;" 
 />
    <glyph glyph-name="uni4E00" unicode="&#x4e00;" horiz-adv-x="1027" 
 />
    <glyph glyph-name="uni4E01" unicode="&#x4e01;" horiz-adv-x="1027" 
 />
    <glyph glyph-name="uni4E03" unicode="&#x4e03;" horiz-adv-x="1027" 
 />
    <glyph glyph-name="uni4E07" unicode="&#x4e07;" horiz-adv-x="1027" 
 />
    <glyph glyph-name="uni4E08" unicode="&#x4e08;" horiz-adv-x="1027" 
 />
    <glyph glyph-name="uni4E09" unicode="&#x4e09;" horiz-adv-x="1027" 
 />
    <glyph glyph-name="uni4E0A" unicode="&#x4e0a;" horiz-adv-x="1027" 
 />
    <glyph glyph-name="uni4E0B" unicode="&#x4e0b;" horiz-adv-x="1027" 
 />
    <glyph glyph-name="uni4E0D" unicode="&#x4e0d;" horiz-adv-x="1027" 
 />
    <glyph glyph-name="uni4E11" unicode="&#x4e11;" horiz-adv-x="1027" 
 />
    <glyph glyph-name="uni4E14" unicode="&#x4e14;" horiz-adv-x="1027" 
 />
    <glyph glyph-name="uni4E15" unicode="&#x4e15;" horiz-adv-x="1027" 
 />
    <glyph glyph-name="uni4E16" unicode="&#x4e16;" horiz-adv-x="1027" 
 />
    <glyph glyph-name="uni4E18" unicode="&#x4e18;" horiz-adv-x="1027" 
 />
    <glyph glyph-name="uni4E19" unicode="&#x4e19;" horiz-adv-x="1027" 
 />
    <glyph glyph-name="uni4E1E" unicode="&#x4e1e;" horiz-adv-x="1027" 
 />
    <glyph glyph-name="uni4E2D" unicode="&#x4e2d;" horiz-adv-x="1027" 
 />
    <glyph glyph-name="uni4E32" unicode="&#x4e32;" horiz-adv-x="1027" 
 />
    <glyph glyph-name="uni4E38" unicode="&#x4e38;" horiz-adv-x="1027" 
 />
    <glyph glyph-name="uni4E39" unicode="&#x4e39;" horiz-adv-x="1027" 
 />
    <glyph glyph-name="uni4E3B" unicode="&#x4e3b;" horiz-adv-x="1027" 
 />
    <glyph glyph-name="uni4E42" unicode="&#x4e42;" horiz-adv-x="1027" 
 />
    <glyph glyph-name="uni4E43" unicode="&#x4e43;" horiz-adv-x="1027" 
 />
    <glyph glyph-name="uni4E45" unicode="&#x4e45;" horiz-adv-x="1027" 
 />
    <glyph glyph-name="uni4E4B" unicode="&#x4e4b;" horiz-adv-x="1027" 
 />
    <glyph glyph-name="uni4E4D" unicode="&#x4e4d;" horiz-adv-x="1027" 
 />
    <glyph glyph-name="uni4E4E" unicode="&#x4e4e;" horiz-adv-x="1027" 
 />
    <glyph glyph-name="uni4E4F" unicode="&#x4e4f;" horiz-adv-x="1027" 
 />
    <glyph glyph-name="uni4E56" unicode="&#x4e56;" horiz-adv-x="1027" 
 />
    <glyph glyph-name="uni4E58" unicode="&#x4e58;" horiz-adv-x="1027" 
 />
    <glyph glyph-name="uni4E59" unicode="&#x4e59;" horiz-adv-x="1027" 
 />
    <glyph glyph-name="uni4E5D" unicode="&#x4e5d;" horiz-adv-x="1027" 
 />
    <glyph glyph-name="uni4E5E" unicode="&#x4e5e;" horiz-adv-x="1027" 
 />
    <glyph glyph-name="uni4E5F" unicode="&#x4e5f;" horiz-adv-x="1027" 
 />
    <glyph glyph-name="uni4E6B" unicode="&#x4e6b;" horiz-adv-x="1027" 
 />
    <glyph glyph-name="uni4E6D" unicode="&#x4e6d;" horiz-adv-x="1027" 
 />
    <glyph glyph-name="uni4E73" unicode="&#x4e73;" horiz-adv-x="1027" 
 />
    <glyph glyph-name="uni4E76" unicode="&#x4e76;" horiz-adv-x="1027" 
 />
    <glyph glyph-name="uni4E77" unicode="&#x4e77;" horiz-adv-x="1027" 
 />
    <glyph glyph-name="uni4E7E" unicode="&#x4e7e;" horiz-adv-x="1027" 
 />
    <glyph glyph-name="uni4E82" unicode="&#x4e82;" horiz-adv-x="1027" 
 />
    <glyph glyph-name="uni4E86" unicode="&#x4e86;" horiz-adv-x="1027" 
 />
    <glyph glyph-name="uni4E88" unicode="&#x4e88;" horiz-adv-x="1027" 
 />
    <glyph glyph-name="uni4E8B" unicode="&#x4e8b;" horiz-adv-x="1027" 
 />
    <glyph glyph-name="uni4E8C" unicode="&#x4e8c;" horiz-adv-x="1027" 
 />
    <glyph glyph-name="uni4E8E" unicode="&#x4e8e;" horiz-adv-x="1027" 
 />
    <glyph glyph-name="uni4E90" unicode="&#x4e90;" horiz-adv-x="1027" 
 />
    <glyph glyph-name="uni4E91" unicode="&#x4e91;" horiz-adv-x="1027" 
 />
    <glyph glyph-name="uni4E92" unicode="&#x4e92;" horiz-adv-x="1027" 
 />
    <glyph glyph-name="uni4E94" unicode="&#x4e94;" horiz-adv-x="1027" 
 />
    <glyph glyph-name="uni4E95" unicode="&#x4e95;" horiz-adv-x="1027" 
 />
    <glyph glyph-name="uni4E98" unicode="&#x4e98;" horiz-adv-x="1027" 
 />
    <glyph glyph-name="uni4E9B" unicode="&#x4e9b;" horiz-adv-x="1027" 
 />
    <glyph glyph-name="uni4E9E" unicode="&#x4e9e;" horiz-adv-x="1027" 
 />
    <glyph glyph-name="uni4EA1" unicode="&#x4ea1;" horiz-adv-x="1027" 
 />
    <glyph glyph-name="uni4EA2" unicode="&#x4ea2;" horiz-adv-x="1027" 
 />
    <glyph glyph-name="uni4EA4" unicode="&#x4ea4;" horiz-adv-x="1027" 
 />
    <glyph glyph-name="uni4EA5" unicode="&#x4ea5;" horiz-adv-x="1027" 
 />
    <glyph glyph-name="uni4EA6" unicode="&#x4ea6;" horiz-adv-x="1027" 
 />
    <glyph glyph-name="uni4EA8" unicode="&#x4ea8;" horiz-adv-x="1027" 
 />
    <glyph glyph-name="uni4EAB" unicode="&#x4eab;" horiz-adv-x="1027" 
 />
    <glyph glyph-name="uni4EAC" unicode="&#x4eac;" horiz-adv-x="1027" 
 />
    <glyph glyph-name="uni4EAD" unicode="&#x4ead;" horiz-adv-x="1027" 
 />
    <glyph glyph-name="uni4EAE" unicode="&#x4eae;" horiz-adv-x="1027" 
 />
    <glyph glyph-name="uni4EB6" unicode="&#x4eb6;" horiz-adv-x="1027" 
 />
    <glyph glyph-name="uni4EBA" unicode="&#x4eba;" horiz-adv-x="1027" 
 />
    <glyph glyph-name="uni4EC0" unicode="&#x4ec0;" horiz-adv-x="1027" 
 />
    <glyph glyph-name="uni4EC1" unicode="&#x4ec1;" horiz-adv-x="1027" 
 />
    <glyph glyph-name="uni4EC4" unicode="&#x4ec4;" horiz-adv-x="1027" 
 />
    <glyph glyph-name="uni4EC7" unicode="&#x4ec7;" horiz-adv-x="1027" 
 />
    <glyph glyph-name="uni4ECA" unicode="&#x4eca;" horiz-adv-x="1027" 
 />
    <glyph glyph-name="uni4ECB" unicode="&#x4ecb;" horiz-adv-x="1027" 
 />
    <glyph glyph-name="uni4ECD" unicode="&#x4ecd;" horiz-adv-x="1027" 
 />
    <glyph glyph-name="uni4ED4" unicode="&#x4ed4;" horiz-adv-x="1027" 
 />
    <glyph glyph-name="uni4ED5" unicode="&#x4ed5;" horiz-adv-x="1027" 
 />
    <glyph glyph-name="uni4ED6" unicode="&#x4ed6;" horiz-adv-x="1027" 
 />
    <glyph glyph-name="uni4ED7" unicode="&#x4ed7;" horiz-adv-x="1027" 
 />
    <glyph glyph-name="uni4ED8" unicode="&#x4ed8;" horiz-adv-x="1027" 
 />
    <glyph glyph-name="uni4ED9" unicode="&#x4ed9;" horiz-adv-x="1027" 
 />
    <glyph glyph-name="uni4EDD" unicode="&#x4edd;" horiz-adv-x="1027" 
 />
    <glyph glyph-name="uni4EDF" unicode="&#x4edf;" horiz-adv-x="1027" 
 />
    <glyph glyph-name="uni4EE3" unicode="&#x4ee3;" horiz-adv-x="1027" 
 />
    <glyph glyph-name="uni4EE4" unicode="&#x4ee4;" horiz-adv-x="1027" 
 />
    <glyph glyph-name="uni4EE5" unicode="&#x4ee5;" horiz-adv-x="1027" 
 />
    <glyph glyph-name="uni4EF0" unicode="&#x4ef0;" horiz-adv-x="1027" 
 />
    <glyph glyph-name="uni4EF2" unicode="&#x4ef2;" horiz-adv-x="1027" 
 />
    <glyph glyph-name="uni4EF6" unicode="&#x4ef6;" horiz-adv-x="1027" 
 />
    <glyph glyph-name="uni4EF7" unicode="&#x4ef7;" horiz-adv-x="1027" 
 />
    <glyph glyph-name="uni4EFB" unicode="&#x4efb;" horiz-adv-x="1027" 
 />
    <glyph glyph-name="uni4F01" unicode="&#x4f01;" horiz-adv-x="1027" 
 />
    <glyph glyph-name="uni4F09" unicode="&#x4f09;" horiz-adv-x="1027" 
 />
    <glyph glyph-name="uni4F0A" unicode="&#x4f0a;" horiz-adv-x="1027" 
 />
    <glyph glyph-name="uni4F0B" unicode="&#x4f0b;" horiz-adv-x="1027" 
 />
    <glyph glyph-name="uni4F0D" unicode="&#x4f0d;" horiz-adv-x="1027" 
 />
    <glyph glyph-name="uni4F0E" unicode="&#x4f0e;" horiz-adv-x="1027" 
 />
    <glyph glyph-name="uni4F0F" unicode="&#x4f0f;" horiz-adv-x="1027" 
 />
    <glyph glyph-name="uni4F10" unicode="&#x4f10;" horiz-adv-x="1027" 
 />
    <glyph glyph-name="uni4F11" unicode="&#x4f11;" horiz-adv-x="1027" 
 />
    <glyph glyph-name="uni4F2F" unicode="&#x4f2f;" horiz-adv-x="1027" 
 />
    <glyph glyph-name="uni4F34" unicode="&#x4f34;" horiz-adv-x="1027" 
 />
    <glyph glyph-name="uni4F36" unicode="&#x4f36;" horiz-adv-x="1027" 
 />
    <glyph glyph-name="uni4F38" unicode="&#x4f38;" horiz-adv-x="1027" 
 />
    <glyph glyph-name="uni4F3A" unicode="&#x4f3a;" horiz-adv-x="1027" 
 />
    <glyph glyph-name="uni4F3C" unicode="&#x4f3c;" horiz-adv-x="1027" 
 />
    <glyph glyph-name="uni4F3D" unicode="&#x4f3d;" horiz-adv-x="1027" 
 />
    <glyph glyph-name="uni4F43" unicode="&#x4f43;" horiz-adv-x="1027" 
 />
    <glyph glyph-name="uni4F46" unicode="&#x4f46;" horiz-adv-x="1027" 
 />
    <glyph glyph-name="uni4F47" unicode="&#x4f47;" horiz-adv-x="1027" 
 />
    <glyph glyph-name="uni4F48" unicode="&#x4f48;" horiz-adv-x="1027" 
 />
    <glyph glyph-name="uni4F4D" unicode="&#x4f4d;" horiz-adv-x="1027" 
 />
    <glyph glyph-name="uni4F4E" unicode="&#x4f4e;" horiz-adv-x="1027" 
 />
    <glyph glyph-name="uni4F4F" unicode="&#x4f4f;" horiz-adv-x="1027" 
 />
    <glyph glyph-name="uni4F50" unicode="&#x4f50;" horiz-adv-x="1027" 
 />
    <glyph glyph-name="uni4F51" unicode="&#x4f51;" horiz-adv-x="1027" 
 />
    <glyph glyph-name="uni4F55" unicode="&#x4f55;" horiz-adv-x="1027" 
 />
    <glyph glyph-name="uni4F59" unicode="&#x4f59;" horiz-adv-x="1027" 
 />
    <glyph glyph-name="uni4F5A" unicode="&#x4f5a;" horiz-adv-x="1027" 
 />
    <glyph glyph-name="uni4F5B" unicode="&#x4f5b;" horiz-adv-x="1027" 
 />
    <glyph glyph-name="uni4F5C" unicode="&#x4f5c;" horiz-adv-x="1027" 
 />
    <glyph glyph-name="uni4F69" unicode="&#x4f69;" horiz-adv-x="1027" 
 />
    <glyph glyph-name="uni4F6F" unicode="&#x4f6f;" horiz-adv-x="1027" 
 />
    <glyph glyph-name="uni4F70" unicode="&#x4f70;" horiz-adv-x="1027" 
 />
    <glyph glyph-name="uni4F73" unicode="&#x4f73;" horiz-adv-x="1027" 
 />
    <glyph glyph-name="uni4F76" unicode="&#x4f76;" horiz-adv-x="1027" 
 />
    <glyph glyph-name="uni4F7A" unicode="&#x4f7a;" horiz-adv-x="1027" 
 />
    <glyph glyph-name="uni4F7E" unicode="&#x4f7e;" horiz-adv-x="1027" 
 />
    <glyph glyph-name="uni4F7F" unicode="&#x4f7f;" horiz-adv-x="1027" 
 />
    <glyph glyph-name="uni4F81" unicode="&#x4f81;" horiz-adv-x="1027" 
 />
    <glyph glyph-name="uni4F83" unicode="&#x4f83;" horiz-adv-x="1027" 
 />
    <glyph glyph-name="uni4F84" unicode="&#x4f84;" horiz-adv-x="1027" 
 />
    <glyph glyph-name="uni4F86" unicode="&#x4f86;" horiz-adv-x="1027" 
 />
    <glyph glyph-name="uni4F88" unicode="&#x4f88;" horiz-adv-x="1027" 
 />
    <glyph glyph-name="uni4F8A" unicode="&#x4f8a;" horiz-adv-x="1027" 
 />
    <glyph glyph-name="uni4F8B" unicode="&#x4f8b;" horiz-adv-x="1027" 
 />
    <glyph glyph-name="uni4F8D" unicode="&#x4f8d;" horiz-adv-x="1027" 
 />
    <glyph glyph-name="uni4F8F" unicode="&#x4f8f;" horiz-adv-x="1027" 
 />
    <glyph glyph-name="uni4F91" unicode="&#x4f91;" horiz-adv-x="1027" 
 />
    <glyph glyph-name="uni4F96" unicode="&#x4f96;" horiz-adv-x="1027" 
 />
    <glyph glyph-name="uni4F98" unicode="&#x4f98;" horiz-adv-x="1027" 
 />
    <glyph glyph-name="uni4F9B" unicode="&#x4f9b;" horiz-adv-x="1027" 
 />
    <glyph glyph-name="uni4F9D" unicode="&#x4f9d;" horiz-adv-x="1027" 
 />
    <glyph glyph-name="uni4FAE" unicode="&#x4fae;" horiz-adv-x="1027" 
 />
    <glyph glyph-name="uni4FAF" unicode="&#x4faf;" horiz-adv-x="1027" 
 />
    <glyph glyph-name="uni4FB5" unicode="&#x4fb5;" horiz-adv-x="1027" 
 />
    <glyph glyph-name="uni4FB6" unicode="&#x4fb6;" horiz-adv-x="1027" 
 />
    <glyph glyph-name="uni4FBF" unicode="&#x4fbf;" horiz-adv-x="1027" 
 />
    <glyph glyph-name="uni4FC2" unicode="&#x4fc2;" horiz-adv-x="1027" 
 />
    <glyph glyph-name="uni4FC3" unicode="&#x4fc3;" horiz-adv-x="1027" 
 />
    <glyph glyph-name="uni4FC4" unicode="&#x4fc4;" horiz-adv-x="1027" 
 />
    <glyph glyph-name="uni4FC9" unicode="&#x4fc9;" horiz-adv-x="1027" 
 />
    <glyph glyph-name="uni4FCA" unicode="&#x4fca;" horiz-adv-x="1027" 
 />
    <glyph glyph-name="uni4FCE" unicode="&#x4fce;" horiz-adv-x="1027" 
 />
    <glyph glyph-name="uni4FD1" unicode="&#x4fd1;" horiz-adv-x="1027" 
 />
    <glyph glyph-name="uni4FD3" unicode="&#x4fd3;" horiz-adv-x="1027" 
 />
    <glyph glyph-name="uni4FD4" unicode="&#x4fd4;" horiz-adv-x="1027" 
 />
    <glyph glyph-name="uni4FD7" unicode="&#x4fd7;" horiz-adv-x="1027" 
 />
    <glyph glyph-name="uni4FDA" unicode="&#x4fda;" horiz-adv-x="1027" 
 />
    <glyph glyph-name="uni4FDD" unicode="&#x4fdd;" horiz-adv-x="1027" 
 />
    <glyph glyph-name="uni4FDF" unicode="&#x4fdf;" horiz-adv-x="1027" 
 />
    <glyph glyph-name="uni4FE0" unicode="&#x4fe0;" horiz-adv-x="1027" 
 />
    <glyph glyph-name="uni4FE1" unicode="&#x4fe1;" horiz-adv-x="1027" 
 />
    <glyph glyph-name="uni4FEE" unicode="&#x4fee;" horiz-adv-x="1027" 
 />
    <glyph glyph-name="uni4FEF" unicode="&#x4fef;" horiz-adv-x="1027" 
 />
    <glyph glyph-name="uni4FF1" unicode="&#x4ff1;" horiz-adv-x="1027" 
 />
    <glyph glyph-name="uni4FF3" unicode="&#x4ff3;" horiz-adv-x="1027" 
 />
    <glyph glyph-name="uni4FF5" unicode="&#x4ff5;" horiz-adv-x="1027" 
 />
    <glyph glyph-name="uni4FF8" unicode="&#x4ff8;" horiz-adv-x="1027" 
 />
    <glyph glyph-name="uni4FFA" unicode="&#x4ffa;" horiz-adv-x="1027" 
 />
    <glyph glyph-name="uni5002" unicode="&#x5002;" horiz-adv-x="1027" 
 />
    <glyph glyph-name="uni5006" unicode="&#x5006;" horiz-adv-x="1027" 
 />
    <glyph glyph-name="uni5009" unicode="&#x5009;" horiz-adv-x="1027" 
 />
    <glyph glyph-name="uni500B" unicode="&#x500b;" horiz-adv-x="1027" 
 />
    <glyph glyph-name="uni500D" unicode="&#x500d;" horiz-adv-x="1027" 
 />
    <glyph glyph-name="uni5011" unicode="&#x5011;" horiz-adv-x="1027" 
 />
    <glyph glyph-name="uni5012" unicode="&#x5012;" horiz-adv-x="1027" 
 />
    <glyph glyph-name="uni5016" unicode="&#x5016;" horiz-adv-x="1027" 
 />
    <glyph glyph-name="uni5019" unicode="&#x5019;" horiz-adv-x="1027" 
 />
    <glyph glyph-name="uni501A" unicode="&#x501a;" horiz-adv-x="1027" 
 />
    <glyph glyph-name="uni501C" unicode="&#x501c;" horiz-adv-x="1027" 
 />
    <glyph glyph-name="uni501E" unicode="&#x501e;" horiz-adv-x="1027" 
 />
    <glyph glyph-name="uni501F" unicode="&#x501f;" horiz-adv-x="1027" 
 />
    <glyph glyph-name="uni5021" unicode="&#x5021;" horiz-adv-x="1027" 
 />
    <glyph glyph-name="uni5023" unicode="&#x5023;" horiz-adv-x="1027" 
 />
    <glyph glyph-name="uni5024" unicode="&#x5024;" horiz-adv-x="1027" 
 />
    <glyph glyph-name="uni5026" unicode="&#x5026;" horiz-adv-x="1027" 
 />
    <glyph glyph-name="uni5027" unicode="&#x5027;" horiz-adv-x="1027" 
 />
    <glyph glyph-name="uni5028" unicode="&#x5028;" horiz-adv-x="1027" 
 />
    <glyph glyph-name="uni502A" unicode="&#x502a;" horiz-adv-x="1027" 
 />
    <glyph glyph-name="uni502B" unicode="&#x502b;" horiz-adv-x="1027" 
 />
    <glyph glyph-name="uni502C" unicode="&#x502c;" horiz-adv-x="1027" 
 />
    <glyph glyph-name="uni502D" unicode="&#x502d;" horiz-adv-x="1027" 
 />
    <glyph glyph-name="uni503B" unicode="&#x503b;" horiz-adv-x="1027" 
 />
    <glyph glyph-name="uni5043" unicode="&#x5043;" horiz-adv-x="1027" 
 />
    <glyph glyph-name="uni5047" unicode="&#x5047;" horiz-adv-x="1027" 
 />
    <glyph glyph-name="uni5048" unicode="&#x5048;" horiz-adv-x="1027" 
 />
    <glyph glyph-name="uni5049" unicode="&#x5049;" horiz-adv-x="1027" 
 />
    <glyph glyph-name="uni504F" unicode="&#x504f;" horiz-adv-x="1027" 
 />
    <glyph glyph-name="uni5055" unicode="&#x5055;" horiz-adv-x="1027" 
 />
    <glyph glyph-name="uni505A" unicode="&#x505a;" horiz-adv-x="1027" 
 />
    <glyph glyph-name="uni505C" unicode="&#x505c;" horiz-adv-x="1027" 
 />
    <glyph glyph-name="uni5065" unicode="&#x5065;" horiz-adv-x="1027" 
 />
    <glyph glyph-name="uni5074" unicode="&#x5074;" horiz-adv-x="1027" 
 />
    <glyph glyph-name="uni5075" unicode="&#x5075;" horiz-adv-x="1027" 
 />
    <glyph glyph-name="uni5076" unicode="&#x5076;" horiz-adv-x="1027" 
 />
    <glyph glyph-name="uni5078" unicode="&#x5078;" horiz-adv-x="1027" 
 />
    <glyph glyph-name="uni5080" unicode="&#x5080;" horiz-adv-x="1027" 
 />
    <glyph glyph-name="uni5085" unicode="&#x5085;" horiz-adv-x="1027" 
 />
    <glyph glyph-name="uni508D" unicode="&#x508d;" horiz-adv-x="1027" 
 />
    <glyph glyph-name="uni5091" unicode="&#x5091;" horiz-adv-x="1027" 
 />
    <glyph glyph-name="uni5098" unicode="&#x5098;" horiz-adv-x="1027" 
 />
    <glyph glyph-name="uni5099" unicode="&#x5099;" horiz-adv-x="1027" 
 />
    <glyph glyph-name="uni50AC" unicode="&#x50ac;" horiz-adv-x="1027" 
 />
    <glyph glyph-name="uni50AD" unicode="&#x50ad;" horiz-adv-x="1027" 
 />
    <glyph glyph-name="uni50B2" unicode="&#x50b2;" horiz-adv-x="1027" 
 />
    <glyph glyph-name="uni50B3" unicode="&#x50b3;" horiz-adv-x="1027" 
 />
    <glyph glyph-name="uni50B5" unicode="&#x50b5;" horiz-adv-x="1027" 
 />
    <glyph glyph-name="uni50B7" unicode="&#x50b7;" horiz-adv-x="1027" 
 />
    <glyph glyph-name="uni50BE" unicode="&#x50be;" horiz-adv-x="1027" 
 />
    <glyph glyph-name="uni50C5" unicode="&#x50c5;" horiz-adv-x="1027" 
 />
    <glyph glyph-name="uni50C9" unicode="&#x50c9;" horiz-adv-x="1027" 
 />
    <glyph glyph-name="uni50CA" unicode="&#x50ca;" horiz-adv-x="1027" 
 />
    <glyph glyph-name="uni50CF" unicode="&#x50cf;" horiz-adv-x="1027" 
 />
    <glyph glyph-name="uni50D1" unicode="&#x50d1;" horiz-adv-x="1027" 
 />
    <glyph glyph-name="uni50D5" unicode="&#x50d5;" horiz-adv-x="1027" 
 />
    <glyph glyph-name="uni50D6" unicode="&#x50d6;" horiz-adv-x="1027" 
 />
    <glyph glyph-name="uni50DA" unicode="&#x50da;" horiz-adv-x="1027" 
 />
    <glyph glyph-name="uni50DE" unicode="&#x50de;" horiz-adv-x="1027" 
 />
    <glyph glyph-name="uni50E5" unicode="&#x50e5;" horiz-adv-x="1027" 
 />
    <glyph glyph-name="uni50E7" unicode="&#x50e7;" horiz-adv-x="1027" 
 />
    <glyph glyph-name="uni50ED" unicode="&#x50ed;" horiz-adv-x="1027" 
 />
    <glyph glyph-name="uni50F9" unicode="&#x50f9;" horiz-adv-x="1027" 
 />
    <glyph glyph-name="uni50FB" unicode="&#x50fb;" horiz-adv-x="1027" 
 />
    <glyph glyph-name="uni50FF" unicode="&#x50ff;" horiz-adv-x="1027" 
 />
    <glyph glyph-name="uni5100" unicode="&#x5100;" horiz-adv-x="1027" 
 />
    <glyph glyph-name="uni5101" unicode="&#x5101;" horiz-adv-x="1027" 
 />
    <glyph glyph-name="uni5104" unicode="&#x5104;" horiz-adv-x="1027" 
 />
    <glyph glyph-name="uni5106" unicode="&#x5106;" horiz-adv-x="1027" 
 />
    <glyph glyph-name="uni5109" unicode="&#x5109;" horiz-adv-x="1027" 
 />
    <glyph glyph-name="uni5112" unicode="&#x5112;" horiz-adv-x="1027" 
 />
    <glyph glyph-name="uni511F" unicode="&#x511f;" horiz-adv-x="1027" 
 />
    <glyph glyph-name="uni5121" unicode="&#x5121;" horiz-adv-x="1027" 
 />
    <glyph glyph-name="uni512A" unicode="&#x512a;" horiz-adv-x="1027" 
 />
    <glyph glyph-name="uni5132" unicode="&#x5132;" horiz-adv-x="1027" 
 />
    <glyph glyph-name="uni5137" unicode="&#x5137;" horiz-adv-x="1027" 
 />
    <glyph glyph-name="uni513A" unicode="&#x513a;" horiz-adv-x="1027" 
 />
    <glyph glyph-name="uni513C" unicode="&#x513c;" horiz-adv-x="1027" 
 />
    <glyph glyph-name="uni5140" unicode="&#x5140;" horiz-adv-x="1027" 
 />
    <glyph glyph-name="uni5141" unicode="&#x5141;" horiz-adv-x="1027" 
 />
    <glyph glyph-name="uni5143" unicode="&#x5143;" horiz-adv-x="1027" 
 />
    <glyph glyph-name="uni5144" unicode="&#x5144;" horiz-adv-x="1027" 
 />
    <glyph glyph-name="uni5145" unicode="&#x5145;" horiz-adv-x="1027" 
 />
    <glyph glyph-name="uni5146" unicode="&#x5146;" horiz-adv-x="1027" 
 />
    <glyph glyph-name="uni5147" unicode="&#x5147;" horiz-adv-x="1027" 
 />
    <glyph glyph-name="uni5148" unicode="&#x5148;" horiz-adv-x="1027" 
 />
    <glyph glyph-name="uni5149" unicode="&#x5149;" horiz-adv-x="1027" 
 />
    <glyph glyph-name="uni514B" unicode="&#x514b;" horiz-adv-x="1027" 
 />
    <glyph glyph-name="uni514C" unicode="&#x514c;" horiz-adv-x="1027" 
 />
    <glyph glyph-name="uni514D" unicode="&#x514d;" horiz-adv-x="1027" 
 />
    <glyph glyph-name="uni514E" unicode="&#x514e;" horiz-adv-x="1027" 
 />
    <glyph glyph-name="uni5152" unicode="&#x5152;" horiz-adv-x="1027" 
 />
    <glyph glyph-name="uni515C" unicode="&#x515c;" horiz-adv-x="1027" 
 />
    <glyph glyph-name="uni5162" unicode="&#x5162;" horiz-adv-x="1027" 
 />
    <glyph glyph-name="uni5165" unicode="&#x5165;" horiz-adv-x="1027" 
 />
    <glyph glyph-name="uni5167" unicode="&#x5167;" horiz-adv-x="1027" 
 />
    <glyph glyph-name="uni5168" unicode="&#x5168;" horiz-adv-x="1027" 
 />
    <glyph glyph-name="uni5169" unicode="&#x5169;" horiz-adv-x="1027" 
 />
    <glyph glyph-name="uni516A" unicode="&#x516a;" horiz-adv-x="1027" 
 />
    <glyph glyph-name="uni516B" unicode="&#x516b;" horiz-adv-x="1027" 
 />
    <glyph glyph-name="uni516C" unicode="&#x516c;" horiz-adv-x="1027" 
 />
    <glyph glyph-name="uni516D" unicode="&#x516d;" horiz-adv-x="1027" 
 />
    <glyph glyph-name="uni516E" unicode="&#x516e;" horiz-adv-x="1027" 
 />
    <glyph glyph-name="uni5171" unicode="&#x5171;" horiz-adv-x="1027" 
 />
    <glyph glyph-name="uni5175" unicode="&#x5175;" horiz-adv-x="1027" 
 />
    <glyph glyph-name="uni5176" unicode="&#x5176;" horiz-adv-x="1027" 
 />
    <glyph glyph-name="uni5177" unicode="&#x5177;" horiz-adv-x="1027" 
 />
    <glyph glyph-name="uni5178" unicode="&#x5178;" horiz-adv-x="1027" 
 />
    <glyph glyph-name="uni517C" unicode="&#x517c;" horiz-adv-x="1027" 
 />
    <glyph glyph-name="uni5180" unicode="&#x5180;" horiz-adv-x="1027" 
 />
    <glyph glyph-name="uni5186" unicode="&#x5186;" horiz-adv-x="1027" 
 />
    <glyph glyph-name="uni518A" unicode="&#x518a;" horiz-adv-x="1027" 
 />
    <glyph glyph-name="uni518D" unicode="&#x518d;" horiz-adv-x="1027" 
 />
    <glyph glyph-name="uni5192" unicode="&#x5192;" horiz-adv-x="1027" 
 />
    <glyph glyph-name="uni5195" unicode="&#x5195;" horiz-adv-x="1027" 
 />
    <glyph glyph-name="uni5197" unicode="&#x5197;" horiz-adv-x="1027" 
 />
    <glyph glyph-name="uni51A0" unicode="&#x51a0;" horiz-adv-x="1027" 
 />
    <glyph glyph-name="uni51A5" unicode="&#x51a5;" horiz-adv-x="1027" 
 />
    <glyph glyph-name="uni51AA" unicode="&#x51aa;" horiz-adv-x="1027" 
 />
    <glyph glyph-name="uni51AC" unicode="&#x51ac;" horiz-adv-x="1027" 
 />
    <glyph glyph-name="uni51B6" unicode="&#x51b6;" horiz-adv-x="1027" 
 />
    <glyph glyph-name="uni51B7" unicode="&#x51b7;" horiz-adv-x="1027" 
 />
    <glyph glyph-name="uni51BD" unicode="&#x51bd;" horiz-adv-x="1027" 
 />
    <glyph glyph-name="uni51C4" unicode="&#x51c4;" horiz-adv-x="1027" 
 />
    <glyph glyph-name="uni51C6" unicode="&#x51c6;" horiz-adv-x="1027" 
 />
    <glyph glyph-name="uni51C9" unicode="&#x51c9;" horiz-adv-x="1027" 
 />
    <glyph glyph-name="uni51CB" unicode="&#x51cb;" horiz-adv-x="1027" 
 />
    <glyph glyph-name="uni51CC" unicode="&#x51cc;" horiz-adv-x="1027" 
 />
    <glyph glyph-name="uni51CD" unicode="&#x51cd;" horiz-adv-x="1027" 
 />
    <glyph glyph-name="uni51DC" unicode="&#x51dc;" horiz-adv-x="1027" 
 />
    <glyph glyph-name="uni51DD" unicode="&#x51dd;" horiz-adv-x="1027" 
 />
    <glyph glyph-name="uni51DE" unicode="&#x51de;" horiz-adv-x="1027" 
 />
    <glyph glyph-name="uni51E1" unicode="&#x51e1;" horiz-adv-x="1027" 
 />
    <glyph glyph-name="uni51F0" unicode="&#x51f0;" horiz-adv-x="1027" 
 />
    <glyph glyph-name="uni51F1" unicode="&#x51f1;" horiz-adv-x="1027" 
 />
    <glyph glyph-name="uni51F6" unicode="&#x51f6;" horiz-adv-x="1027" 
 />
    <glyph glyph-name="uni51F8" unicode="&#x51f8;" horiz-adv-x="1027" 
 />
    <glyph glyph-name="uni51F9" unicode="&#x51f9;" horiz-adv-x="1027" 
 />
    <glyph glyph-name="uni51FA" unicode="&#x51fa;" horiz-adv-x="1027" 
 />
    <glyph glyph-name="uni51FD" unicode="&#x51fd;" horiz-adv-x="1027" 
 />
    <glyph glyph-name="uni5200" unicode="&#x5200;" horiz-adv-x="1027" 
 />
    <glyph glyph-name="uni5203" unicode="&#x5203;" horiz-adv-x="1027" 
 />
    <glyph glyph-name="uni5206" unicode="&#x5206;" horiz-adv-x="1027" 
 />
    <glyph glyph-name="uni5207" unicode="&#x5207;" horiz-adv-x="1027" 
 />
    <glyph glyph-name="uni5208" unicode="&#x5208;" horiz-adv-x="1027" 
 />
    <glyph glyph-name="uni520A" unicode="&#x520a;" horiz-adv-x="1027" 
 />
    <glyph glyph-name="uni520E" unicode="&#x520e;" horiz-adv-x="1027" 
 />
    <glyph glyph-name="uni5211" unicode="&#x5211;" horiz-adv-x="1027" 
 />
    <glyph glyph-name="uni5217" unicode="&#x5217;" horiz-adv-x="1027" 
 />
    <glyph glyph-name="uni521D" unicode="&#x521d;" horiz-adv-x="1027" 
 />
    <glyph glyph-name="uni5224" unicode="&#x5224;" horiz-adv-x="1027" 
 />
    <glyph glyph-name="uni5225" unicode="&#x5225;" horiz-adv-x="1027" 
 />
    <glyph glyph-name="uni5229" unicode="&#x5229;" horiz-adv-x="1027" 
 />
    <glyph glyph-name="uni522A" unicode="&#x522a;" horiz-adv-x="1027" 
 />
    <glyph glyph-name="uni522E" unicode="&#x522e;" horiz-adv-x="1027" 
 />
    <glyph glyph-name="uni5230" unicode="&#x5230;" horiz-adv-x="1027" 
 />
    <glyph glyph-name="uni5236" unicode="&#x5236;" horiz-adv-x="1027" 
 />
    <glyph glyph-name="uni5237" unicode="&#x5237;" horiz-adv-x="1027" 
 />
    <glyph glyph-name="uni5238" unicode="&#x5238;" horiz-adv-x="1027" 
 />
    <glyph glyph-name="uni5239" unicode="&#x5239;" horiz-adv-x="1027" 
 />
    <glyph glyph-name="uni523A" unicode="&#x523a;" horiz-adv-x="1027" 
 />
    <glyph glyph-name="uni523B" unicode="&#x523b;" horiz-adv-x="1027" 
 />
    <glyph glyph-name="uni5243" unicode="&#x5243;" horiz-adv-x="1027" 
 />
    <glyph glyph-name="uni5247" unicode="&#x5247;" horiz-adv-x="1027" 
 />
    <glyph glyph-name="uni524A" unicode="&#x524a;" horiz-adv-x="1027" 
 />
    <glyph glyph-name="uni524B" unicode="&#x524b;" horiz-adv-x="1027" 
 />
    <glyph glyph-name="uni524C" unicode="&#x524c;" horiz-adv-x="1027" 
 />
    <glyph glyph-name="uni524D" unicode="&#x524d;" horiz-adv-x="1027" 
 />
    <glyph glyph-name="uni5254" unicode="&#x5254;" horiz-adv-x="1027" 
 />
    <glyph glyph-name="uni5256" unicode="&#x5256;" horiz-adv-x="1027" 
 />
    <glyph glyph-name="uni525B" unicode="&#x525b;" horiz-adv-x="1027" 
 />
    <glyph glyph-name="uni525D" unicode="&#x525d;" horiz-adv-x="1027" 
 />
    <glyph glyph-name="uni5261" unicode="&#x5261;" horiz-adv-x="1027" 
 />
    <glyph glyph-name="uni5269" unicode="&#x5269;" horiz-adv-x="1027" 
 />
    <glyph glyph-name="uni526A" unicode="&#x526a;" horiz-adv-x="1027" 
 />
    <glyph glyph-name="uni526F" unicode="&#x526f;" horiz-adv-x="1027" 
 />
    <glyph glyph-name="uni5272" unicode="&#x5272;" horiz-adv-x="1027" 
 />
    <glyph glyph-name="uni5275" unicode="&#x5275;" horiz-adv-x="1027" 
 />
    <glyph glyph-name="uni527D" unicode="&#x527d;" horiz-adv-x="1027" 
 />
    <glyph glyph-name="uni527F" unicode="&#x527f;" horiz-adv-x="1027" 
 />
    <glyph glyph-name="uni5283" unicode="&#x5283;" horiz-adv-x="1027" 
 />
    <glyph glyph-name="uni5287" unicode="&#x5287;" horiz-adv-x="1027" 
 />
    <glyph glyph-name="uni5288" unicode="&#x5288;" horiz-adv-x="1027" 
 />
    <glyph glyph-name="uni5289" unicode="&#x5289;" horiz-adv-x="1027" 
 />
    <glyph glyph-name="uni528D" unicode="&#x528d;" horiz-adv-x="1027" 
 />
    <glyph glyph-name="uni5291" unicode="&#x5291;" horiz-adv-x="1027" 
 />
    <glyph glyph-name="uni5292" unicode="&#x5292;" horiz-adv-x="1027" 
 />
    <glyph glyph-name="uni529B" unicode="&#x529b;" horiz-adv-x="1027" 
 />
    <glyph glyph-name="uni529F" unicode="&#x529f;" horiz-adv-x="1027" 
 />
    <glyph glyph-name="uni52A0" unicode="&#x52a0;" horiz-adv-x="1027" 
 />
    <glyph glyph-name="uni52A3" unicode="&#x52a3;" horiz-adv-x="1027" 
 />
    <glyph glyph-name="uni52A4" unicode="&#x52a4;" horiz-adv-x="1027" 
 />
    <glyph glyph-name="uni52A9" unicode="&#x52a9;" horiz-adv-x="1027" 
 />
    <glyph glyph-name="uni52AA" unicode="&#x52aa;" horiz-adv-x="1027" 
 />
    <glyph glyph-name="uni52AB" unicode="&#x52ab;" horiz-adv-x="1027" 
 />
    <glyph glyph-name="uni52BE" unicode="&#x52be;" horiz-adv-x="1027" 
 />
    <glyph glyph-name="uni52C1" unicode="&#x52c1;" horiz-adv-x="1027" 
 />
    <glyph glyph-name="uni52C3" unicode="&#x52c3;" horiz-adv-x="1027" 
 />
    <glyph glyph-name="uni52C5" unicode="&#x52c5;" horiz-adv-x="1027" 
 />
    <glyph glyph-name="uni52C7" unicode="&#x52c7;" horiz-adv-x="1027" 
 />
    <glyph glyph-name="uni52C9" unicode="&#x52c9;" horiz-adv-x="1027" 
 />
    <glyph glyph-name="uni52CD" unicode="&#x52cd;" horiz-adv-x="1027" 
 />
    <glyph glyph-name="uni52D2" unicode="&#x52d2;" horiz-adv-x="1027" 
 />
    <glyph glyph-name="uni52D5" unicode="&#x52d5;" horiz-adv-x="1027" 
 />
    <glyph glyph-name="uni52D6" unicode="&#x52d6;" horiz-adv-x="1027" 
 />
    <glyph glyph-name="uni52D8" unicode="&#x52d8;" horiz-adv-x="1027" 
 />
    <glyph glyph-name="uni52D9" unicode="&#x52d9;" horiz-adv-x="1027" 
 />
    <glyph glyph-name="uni52DB" unicode="&#x52db;" horiz-adv-x="1027" 
 />
    <glyph glyph-name="uni52DD" unicode="&#x52dd;" horiz-adv-x="1027" 
 />
    <glyph glyph-name="uni52DE" unicode="&#x52de;" horiz-adv-x="1027" 
 />
    <glyph glyph-name="uni52DF" unicode="&#x52df;" horiz-adv-x="1027" 
 />
    <glyph glyph-name="uni52E2" unicode="&#x52e2;" horiz-adv-x="1027" 
 />
    <glyph glyph-name="uni52E3" unicode="&#x52e3;" horiz-adv-x="1027" 
 />
    <glyph glyph-name="uni52E4" unicode="&#x52e4;" horiz-adv-x="1027" 
 />
    <glyph glyph-name="uni52F3" unicode="&#x52f3;" horiz-adv-x="1027" 
 />
    <glyph glyph-name="uni52F5" unicode="&#x52f5;" horiz-adv-x="1027" 
 />
    <glyph glyph-name="uni52F8" unicode="&#x52f8;" horiz-adv-x="1027" 
 />
    <glyph glyph-name="uni52FA" unicode="&#x52fa;" horiz-adv-x="1027" 
 />
    <glyph glyph-name="uni52FB" unicode="&#x52fb;" horiz-adv-x="1027" 
 />
    <glyph glyph-name="uni52FE" unicode="&#x52fe;" horiz-adv-x="1027" 
 />
    <glyph glyph-name="uni52FF" unicode="&#x52ff;" horiz-adv-x="1027" 
 />
    <glyph glyph-name="uni5305" unicode="&#x5305;" horiz-adv-x="1027" 
 />
    <glyph glyph-name="uni5308" unicode="&#x5308;" horiz-adv-x="1027" 
 />
    <glyph glyph-name="uni530D" unicode="&#x530d;" horiz-adv-x="1027" 
 />
    <glyph glyph-name="uni530F" unicode="&#x530f;" horiz-adv-x="1027" 
 />
    <glyph glyph-name="uni5310" unicode="&#x5310;" horiz-adv-x="1027" 
 />
    <glyph glyph-name="uni5315" unicode="&#x5315;" horiz-adv-x="1027" 
 />
    <glyph glyph-name="uni5316" unicode="&#x5316;" horiz-adv-x="1027" 
 />
    <glyph glyph-name="uni5317" unicode="&#x5317;" horiz-adv-x="1027" 
 />
    <glyph glyph-name="uni5319" unicode="&#x5319;" horiz-adv-x="1027" 
 />
    <glyph glyph-name="uni5320" unicode="&#x5320;" horiz-adv-x="1027" 
 />
    <glyph glyph-name="uni5321" unicode="&#x5321;" horiz-adv-x="1027" 
 />
    <glyph glyph-name="uni5323" unicode="&#x5323;" horiz-adv-x="1027" 
 />
    <glyph glyph-name="uni532A" unicode="&#x532a;" horiz-adv-x="1027" 
 />
    <glyph glyph-name="uni532F" unicode="&#x532f;" horiz-adv-x="1027" 
 />
    <glyph glyph-name="uni5339" unicode="&#x5339;" horiz-adv-x="1027" 
 />
    <glyph glyph-name="uni533F" unicode="&#x533f;" horiz-adv-x="1027" 
 />
    <glyph glyph-name="uni5340" unicode="&#x5340;" horiz-adv-x="1027" 
 />
    <glyph glyph-name="uni5341" unicode="&#x5341;" horiz-adv-x="1027" 
 />
    <glyph glyph-name="uni5343" unicode="&#x5343;" horiz-adv-x="1027" 
 />
    <glyph glyph-name="uni5344" unicode="&#x5344;" horiz-adv-x="1027" 
 />
    <glyph glyph-name="uni5347" unicode="&#x5347;" horiz-adv-x="1027" 
 />
    <glyph glyph-name="uni5348" unicode="&#x5348;" horiz-adv-x="1027" 
 />
    <glyph glyph-name="uni5349" unicode="&#x5349;" horiz-adv-x="1027" 
 />
    <glyph glyph-name="uni534A" unicode="&#x534a;" horiz-adv-x="1027" 
 />
    <glyph glyph-name="uni534D" unicode="&#x534d;" horiz-adv-x="1027" 
 />
    <glyph glyph-name="uni5351" unicode="&#x5351;" horiz-adv-x="1027" 
 />
    <glyph glyph-name="uni5352" unicode="&#x5352;" horiz-adv-x="1027" 
 />
    <glyph glyph-name="uni5353" unicode="&#x5353;" horiz-adv-x="1027" 
 />
    <glyph glyph-name="uni5354" unicode="&#x5354;" horiz-adv-x="1027" 
 />
    <glyph glyph-name="uni5357" unicode="&#x5357;" horiz-adv-x="1027" 
 />
    <glyph glyph-name="uni535A" unicode="&#x535a;" horiz-adv-x="1027" 
 />
    <glyph glyph-name="uni535C" unicode="&#x535c;" horiz-adv-x="1027" 
 />
    <glyph glyph-name="uni535E" unicode="&#x535e;" horiz-adv-x="1027" 
 />
    <glyph glyph-name="uni5360" unicode="&#x5360;" horiz-adv-x="1027" 
 />
    <glyph glyph-name="uni5366" unicode="&#x5366;" horiz-adv-x="1027" 
 />
    <glyph glyph-name="uni5368" unicode="&#x5368;" horiz-adv-x="1027" 
 />
    <glyph glyph-name="uni536F" unicode="&#x536f;" horiz-adv-x="1027" 
 />
    <glyph glyph-name="uni5370" unicode="&#x5370;" horiz-adv-x="1027" 
 />
    <glyph glyph-name="uni5371" unicode="&#x5371;" horiz-adv-x="1027" 
 />
    <glyph glyph-name="uni5374" unicode="&#x5374;" horiz-adv-x="1027" 
 />
    <glyph glyph-name="uni5375" unicode="&#x5375;" horiz-adv-x="1027" 
 />
    <glyph glyph-name="uni5377" unicode="&#x5377;" horiz-adv-x="1027" 
 />
    <glyph glyph-name="uni537D" unicode="&#x537d;" horiz-adv-x="1027" 
 />
    <glyph glyph-name="uni537F" unicode="&#x537f;" horiz-adv-x="1027" 
 />
    <glyph glyph-name="uni5384" unicode="&#x5384;" horiz-adv-x="1027" 
 />
    <glyph glyph-name="uni5393" unicode="&#x5393;" horiz-adv-x="1027" 
 />
    <glyph glyph-name="uni5398" unicode="&#x5398;" horiz-adv-x="1027" 
 />
    <glyph glyph-name="uni539A" unicode="&#x539a;" horiz-adv-x="1027" 
 />
    <glyph glyph-name="uni539F" unicode="&#x539f;" horiz-adv-x="1027" 
 />
    <glyph glyph-name="uni53A0" unicode="&#x53a0;" horiz-adv-x="1027" 
 />
    <glyph glyph-name="uni53A5" unicode="&#x53a5;" horiz-adv-x="1027" 
 />
    <glyph glyph-name="uni53A6" unicode="&#x53a6;" horiz-adv-x="1027" 
 />
    <glyph glyph-name="uni53AD" unicode="&#x53ad;" horiz-adv-x="1027" 
 />
    <glyph glyph-name="uni53BB" unicode="&#x53bb;" horiz-adv-x="1027" 
 />
    <glyph glyph-name="uni53C3" unicode="&#x53c3;" horiz-adv-x="1027" 
 />
    <glyph glyph-name="uni53C8" unicode="&#x53c8;" horiz-adv-x="1027" 
 />
    <glyph glyph-name="uni53C9" unicode="&#x53c9;" horiz-adv-x="1027" 
 />
    <glyph glyph-name="uni53CA" unicode="&#x53ca;" horiz-adv-x="1027" 
 />
    <glyph glyph-name="uni53CB" unicode="&#x53cb;" horiz-adv-x="1027" 
 />
    <glyph glyph-name="uni53CD" unicode="&#x53cd;" horiz-adv-x="1027" 
 />
    <glyph glyph-name="uni53D4" unicode="&#x53d4;" horiz-adv-x="1027" 
 />
    <glyph glyph-name="uni53D6" unicode="&#x53d6;" horiz-adv-x="1027" 
 />
    <glyph glyph-name="uni53D7" unicode="&#x53d7;" horiz-adv-x="1027" 
 />
    <glyph glyph-name="uni53DB" unicode="&#x53db;" horiz-adv-x="1027" 
 />
    <glyph glyph-name="uni53E1" unicode="&#x53e1;" horiz-adv-x="1027" 
 />
    <glyph glyph-name="uni53E2" unicode="&#x53e2;" horiz-adv-x="1027" 
 />
    <glyph glyph-name="uni53E3" unicode="&#x53e3;" horiz-adv-x="1027" 
 />
    <glyph glyph-name="uni53E4" unicode="&#x53e4;" horiz-adv-x="1027" 
 />
    <glyph glyph-name="uni53E5" unicode="&#x53e5;" horiz-adv-x="1027" 
 />
    <glyph glyph-name="uni53E9" unicode="&#x53e9;" horiz-adv-x="1027" 
 />
    <glyph glyph-name="uni53EA" unicode="&#x53ea;" horiz-adv-x="1027" 
 />
    <glyph glyph-name="uni53EB" unicode="&#x53eb;" horiz-adv-x="1027" 
 />
    <glyph glyph-name="uni53EC" unicode="&#x53ec;" horiz-adv-x="1027" 
 />
    <glyph glyph-name="uni53ED" unicode="&#x53ed;" horiz-adv-x="1027" 
 />
    <glyph glyph-name="uni53EF" unicode="&#x53ef;" horiz-adv-x="1027" 
 />
    <glyph glyph-name="uni53F0" unicode="&#x53f0;" horiz-adv-x="1027" 
 />
    <glyph glyph-name="uni53F1" unicode="&#x53f1;" horiz-adv-x="1027" 
 />
    <glyph glyph-name="uni53F2" unicode="&#x53f2;" horiz-adv-x="1027" 
 />
    <glyph glyph-name="uni53F3" unicode="&#x53f3;" horiz-adv-x="1027" 
 />
    <glyph glyph-name="uni53F8" unicode="&#x53f8;" horiz-adv-x="1027" 
 />
    <glyph glyph-name="uni5403" unicode="&#x5403;" horiz-adv-x="1027" 
 />
    <glyph glyph-name="uni5404" unicode="&#x5404;" horiz-adv-x="1027" 
 />
    <glyph glyph-name="uni5408" unicode="&#x5408;" horiz-adv-x="1027" 
 />
    <glyph glyph-name="uni5409" unicode="&#x5409;" horiz-adv-x="1027" 
 />
    <glyph glyph-name="uni540A" unicode="&#x540a;" horiz-adv-x="1027" 
 />
    <glyph glyph-name="uni540C" unicode="&#x540c;" horiz-adv-x="1027" 
 />
    <glyph glyph-name="uni540D" unicode="&#x540d;" horiz-adv-x="1027" 
 />
    <glyph glyph-name="uni540E" unicode="&#x540e;" horiz-adv-x="1027" 
 />
    <glyph glyph-name="uni540F" unicode="&#x540f;" horiz-adv-x="1027" 
 />
    <glyph glyph-name="uni5410" unicode="&#x5410;" horiz-adv-x="1027" 
 />
    <glyph glyph-name="uni5411" unicode="&#x5411;" horiz-adv-x="1027" 
 />
    <glyph glyph-name="uni541B" unicode="&#x541b;" horiz-adv-x="1027" 
 />
    <glyph glyph-name="uni541D" unicode="&#x541d;" horiz-adv-x="1027" 
 />
    <glyph glyph-name="uni541F" unicode="&#x541f;" horiz-adv-x="1027" 
 />
    <glyph glyph-name="uni5420" unicode="&#x5420;" horiz-adv-x="1027" 
 />
    <glyph glyph-name="uni5426" unicode="&#x5426;" horiz-adv-x="1027" 
 />
    <glyph glyph-name="uni5429" unicode="&#x5429;" horiz-adv-x="1027" 
 />
    <glyph glyph-name="uni542B" unicode="&#x542b;" horiz-adv-x="1027" 
 />
    <glyph glyph-name="uni5433" unicode="&#x5433;" horiz-adv-x="1027" 
 />
    <glyph glyph-name="uni5438" unicode="&#x5438;" horiz-adv-x="1027" 
 />
    <glyph glyph-name="uni5439" unicode="&#x5439;" horiz-adv-x="1027" 
 />
    <glyph glyph-name="uni543B" unicode="&#x543b;" horiz-adv-x="1027" 
 />
    <glyph glyph-name="uni543C" unicode="&#x543c;" horiz-adv-x="1027" 
 />
    <glyph glyph-name="uni543E" unicode="&#x543e;" horiz-adv-x="1027" 
 />
    <glyph glyph-name="uni5442" unicode="&#x5442;" horiz-adv-x="1027" 
 />
    <glyph glyph-name="uni5448" unicode="&#x5448;" horiz-adv-x="1027" 
 />
    <glyph glyph-name="uni544A" unicode="&#x544a;" horiz-adv-x="1027" 
 />
    <glyph glyph-name="uni5451" unicode="&#x5451;" horiz-adv-x="1027" 
 />
    <glyph glyph-name="uni5468" unicode="&#x5468;" horiz-adv-x="1027" 
 />
    <glyph glyph-name="uni546A" unicode="&#x546a;" horiz-adv-x="1027" 
 />
    <glyph glyph-name="uni5471" unicode="&#x5471;" horiz-adv-x="1027" 
 />
    <glyph glyph-name="uni5473" unicode="&#x5473;" horiz-adv-x="1027" 
 />
    <glyph glyph-name="uni5475" unicode="&#x5475;" horiz-adv-x="1027" 
 />
    <glyph glyph-name="uni547B" unicode="&#x547b;" horiz-adv-x="1027" 
 />
    <glyph glyph-name="uni547C" unicode="&#x547c;" horiz-adv-x="1027" 
 />
    <glyph glyph-name="uni547D" unicode="&#x547d;" horiz-adv-x="1027" 
 />
    <glyph glyph-name="uni5480" unicode="&#x5480;" horiz-adv-x="1027" 
 />
    <glyph glyph-name="uni5486" unicode="&#x5486;" horiz-adv-x="1027" 
 />
    <glyph glyph-name="uni548C" unicode="&#x548c;" horiz-adv-x="1027" 
 />
    <glyph glyph-name="uni548E" unicode="&#x548e;" horiz-adv-x="1027" 
 />
    <glyph glyph-name="uni5490" unicode="&#x5490;" horiz-adv-x="1027" 
 />
    <glyph glyph-name="uni54A4" unicode="&#x54a4;" horiz-adv-x="1027" 
 />
    <glyph glyph-name="uni54A8" unicode="&#x54a8;" horiz-adv-x="1027" 
 />
    <glyph glyph-name="uni54AB" unicode="&#x54ab;" horiz-adv-x="1027" 
 />
    <glyph glyph-name="uni54AC" unicode="&#x54ac;" horiz-adv-x="1027" 
 />
    <glyph glyph-name="uni54B3" unicode="&#x54b3;" horiz-adv-x="1027" 
 />
    <glyph glyph-name="uni54B8" unicode="&#x54b8;" horiz-adv-x="1027" 
 />
    <glyph glyph-name="uni54BD" unicode="&#x54bd;" horiz-adv-x="1027" 
 />
    <glyph glyph-name="uni54C0" unicode="&#x54c0;" horiz-adv-x="1027" 
 />
    <glyph glyph-name="uni54C1" unicode="&#x54c1;" horiz-adv-x="1027" 
 />
    <glyph glyph-name="uni54C4" unicode="&#x54c4;" horiz-adv-x="1027" 
 />
    <glyph glyph-name="uni54C8" unicode="&#x54c8;" horiz-adv-x="1027" 
 />
    <glyph glyph-name="uni54C9" unicode="&#x54c9;" horiz-adv-x="1027" 
 />
    <glyph glyph-name="uni54E1" unicode="&#x54e1;" horiz-adv-x="1027" 
 />
    <glyph glyph-name="uni54E5" unicode="&#x54e5;" horiz-adv-x="1027" 
 />
    <glyph glyph-name="uni54E8" unicode="&#x54e8;" horiz-adv-x="1027" 
 />
    <glyph glyph-name="uni54ED" unicode="&#x54ed;" horiz-adv-x="1027" 
 />
    <glyph glyph-name="uni54EE" unicode="&#x54ee;" horiz-adv-x="1027" 
 />
    <glyph glyph-name="uni54F2" unicode="&#x54f2;" horiz-adv-x="1027" 
 />
    <glyph glyph-name="uni54FA" unicode="&#x54fa;" horiz-adv-x="1027" 
 />
    <glyph glyph-name="uni5504" unicode="&#x5504;" horiz-adv-x="1027" 
 />
    <glyph glyph-name="uni5506" unicode="&#x5506;" horiz-adv-x="1027" 
 />
    <glyph glyph-name="uni5507" unicode="&#x5507;" horiz-adv-x="1027" 
 />
    <glyph glyph-name="uni550E" unicode="&#x550e;" horiz-adv-x="1027" 
 />
    <glyph glyph-name="uni5510" unicode="&#x5510;" horiz-adv-x="1027" 
 />
    <glyph glyph-name="uni551C" unicode="&#x551c;" horiz-adv-x="1027" 
 />
    <glyph glyph-name="uni552F" unicode="&#x552f;" horiz-adv-x="1027" 
 />
    <glyph glyph-name="uni5531" unicode="&#x5531;" horiz-adv-x="1027" 
 />
    <glyph glyph-name="uni5535" unicode="&#x5535;" horiz-adv-x="1027" 
 />
    <glyph glyph-name="uni553E" unicode="&#x553e;" horiz-adv-x="1027" 
 />
    <glyph glyph-name="uni5544" unicode="&#x5544;" horiz-adv-x="1027" 
 />
    <glyph glyph-name="uni5546" unicode="&#x5546;" horiz-adv-x="1027" 
 />
    <glyph glyph-name="uni554F" unicode="&#x554f;" horiz-adv-x="1027" 
 />
    <glyph glyph-name="uni5553" unicode="&#x5553;" horiz-adv-x="1027" 
 />
    <glyph glyph-name="uni5556" unicode="&#x5556;" horiz-adv-x="1027" 
 />
    <glyph glyph-name="uni555E" unicode="&#x555e;" horiz-adv-x="1027" 
 />
    <glyph glyph-name="uni5563" unicode="&#x5563;" horiz-adv-x="1027" 
 />
    <glyph glyph-name="uni557C" unicode="&#x557c;" horiz-adv-x="1027" 
 />
    <glyph glyph-name="uni5580" unicode="&#x5580;" horiz-adv-x="1027" 
 />
    <glyph glyph-name="uni5584" unicode="&#x5584;" horiz-adv-x="1027" 
 />
    <glyph glyph-name="uni5586" unicode="&#x5586;" horiz-adv-x="1027" 
 />
    <glyph glyph-name="uni5587" unicode="&#x5587;" horiz-adv-x="1027" 
 />
    <glyph glyph-name="uni5589" unicode="&#x5589;" horiz-adv-x="1027" 
 />
    <glyph glyph-name="uni558A" unicode="&#x558a;" horiz-adv-x="1027" 
 />
    <glyph glyph-name="uni5598" unicode="&#x5598;" horiz-adv-x="1027" 
 />
    <glyph glyph-name="uni5599" unicode="&#x5599;" horiz-adv-x="1027" 
 />
    <glyph glyph-name="uni559A" unicode="&#x559a;" horiz-adv-x="1027" 
 />
    <glyph glyph-name="uni559C" unicode="&#x559c;" horiz-adv-x="1027" 
 />
    <glyph glyph-name="uni559D" unicode="&#x559d;" horiz-adv-x="1027" 
 />
    <glyph glyph-name="uni55A7" unicode="&#x55a7;" horiz-adv-x="1027" 
 />
    <glyph glyph-name="uni55A9" unicode="&#x55a9;" horiz-adv-x="1027" 
 />
    <glyph glyph-name="uni55AA" unicode="&#x55aa;" horiz-adv-x="1027" 
 />
    <glyph glyph-name="uni55AB" unicode="&#x55ab;" horiz-adv-x="1027" 
 />
    <glyph glyph-name="uni55AC" unicode="&#x55ac;" horiz-adv-x="1027" 
 />
    <glyph glyph-name="uni55AE" unicode="&#x55ae;" horiz-adv-x="1027" 
 />
    <glyph glyph-name="uni55C5" unicode="&#x55c5;" horiz-adv-x="1027" 
 />
    <glyph glyph-name="uni55C7" unicode="&#x55c7;" horiz-adv-x="1027" 
 />
    <glyph glyph-name="uni55D4" unicode="&#x55d4;" horiz-adv-x="1027" 
 />
    <glyph glyph-name="uni55DA" unicode="&#x55da;" horiz-adv-x="1027" 
 />
    <glyph glyph-name="uni55DC" unicode="&#x55dc;" horiz-adv-x="1027" 
 />
    <glyph glyph-name="uni55DF" unicode="&#x55df;" horiz-adv-x="1027" 
 />
    <glyph glyph-name="uni55E3" unicode="&#x55e3;" horiz-adv-x="1027" 
 />
    <glyph glyph-name="uni55E4" unicode="&#x55e4;" horiz-adv-x="1027" 
 />
    <glyph glyph-name="uni55FD" unicode="&#x55fd;" horiz-adv-x="1027" 
 />
    <glyph glyph-name="uni55FE" unicode="&#x55fe;" horiz-adv-x="1027" 
 />
    <glyph glyph-name="uni5606" unicode="&#x5606;" horiz-adv-x="1027" 
 />
    <glyph glyph-name="uni5609" unicode="&#x5609;" horiz-adv-x="1027" 
 />
    <glyph glyph-name="uni5614" unicode="&#x5614;" horiz-adv-x="1027" 
 />
    <glyph glyph-name="uni5617" unicode="&#x5617;" horiz-adv-x="1027" 
 />
    <glyph glyph-name="uni562F" unicode="&#x562f;" horiz-adv-x="1027" 
 />
    <glyph glyph-name="uni5632" unicode="&#x5632;" horiz-adv-x="1027" 
 />
    <glyph glyph-name="uni5634" unicode="&#x5634;" horiz-adv-x="1027" 
 />
    <glyph glyph-name="uni5636" unicode="&#x5636;" horiz-adv-x="1027" 
 />
    <glyph glyph-name="uni5653" unicode="&#x5653;" horiz-adv-x="1027" 
 />
    <glyph glyph-name="uni5668" unicode="&#x5668;" horiz-adv-x="1027" 
 />
    <glyph glyph-name="uni566B" unicode="&#x566b;" horiz-adv-x="1027" 
 />
    <glyph glyph-name="uni5674" unicode="&#x5674;" horiz-adv-x="1027" 
 />
    <glyph glyph-name="uni5686" unicode="&#x5686;" horiz-adv-x="1027" 
 />
    <glyph glyph-name="uni56A5" unicode="&#x56a5;" horiz-adv-x="1027" 
 />
    <glyph glyph-name="uni56AC" unicode="&#x56ac;" horiz-adv-x="1027" 
 />
    <glyph glyph-name="uni56AE" unicode="&#x56ae;" horiz-adv-x="1027" 
 />
    <glyph glyph-name="uni56B4" unicode="&#x56b4;" horiz-adv-x="1027" 
 />
    <glyph glyph-name="uni56BC" unicode="&#x56bc;" horiz-adv-x="1027" 
 />
    <glyph glyph-name="uni56CA" unicode="&#x56ca;" horiz-adv-x="1027" 
 />
    <glyph glyph-name="uni56CD" unicode="&#x56cd;" horiz-adv-x="1027" 
 />
    <glyph glyph-name="uni56D1" unicode="&#x56d1;" horiz-adv-x="1027" 
 />
    <glyph glyph-name="uni56DA" unicode="&#x56da;" horiz-adv-x="1027" 
 />
    <glyph glyph-name="uni56DB" unicode="&#x56db;" horiz-adv-x="1027" 
 />
    <glyph glyph-name="uni56DE" unicode="&#x56de;" horiz-adv-x="1027" 
 />
    <glyph glyph-name="uni56E0" unicode="&#x56e0;" horiz-adv-x="1027" 
 />
    <glyph glyph-name="uni56F0" unicode="&#x56f0;" horiz-adv-x="1027" 
 />
    <glyph glyph-name="uni56F9" unicode="&#x56f9;" horiz-adv-x="1027" 
 />
    <glyph glyph-name="uni56FA" unicode="&#x56fa;" horiz-adv-x="1027" 
 />
    <glyph glyph-name="uni5703" unicode="&#x5703;" horiz-adv-x="1027" 
 />
    <glyph glyph-name="uni5704" unicode="&#x5704;" horiz-adv-x="1027" 
 />
    <glyph glyph-name="uni5708" unicode="&#x5708;" horiz-adv-x="1027" 
 />
    <glyph glyph-name="uni570B" unicode="&#x570b;" horiz-adv-x="1027" 
 />
    <glyph glyph-name="uni570D" unicode="&#x570d;" horiz-adv-x="1027" 
 />
    <glyph glyph-name="uni5712" unicode="&#x5712;" horiz-adv-x="1027" 
 />
    <glyph glyph-name="uni5713" unicode="&#x5713;" horiz-adv-x="1027" 
 />
    <glyph glyph-name="uni5716" unicode="&#x5716;" horiz-adv-x="1027" 
 />
    <glyph glyph-name="uni5718" unicode="&#x5718;" horiz-adv-x="1027" 
 />
    <glyph glyph-name="uni571F" unicode="&#x571f;" horiz-adv-x="1027" 
 />
    <glyph glyph-name="uni5728" unicode="&#x5728;" horiz-adv-x="1027" 
 />
    <glyph glyph-name="uni572D" unicode="&#x572d;" horiz-adv-x="1027" 
 />
    <glyph glyph-name="uni5730" unicode="&#x5730;" horiz-adv-x="1027" 
 />
    <glyph glyph-name="uni573B" unicode="&#x573b;" horiz-adv-x="1027" 
 />
    <glyph glyph-name="uni5740" unicode="&#x5740;" horiz-adv-x="1027" 
 />
    <glyph glyph-name="uni5742" unicode="&#x5742;" horiz-adv-x="1027" 
 />
    <glyph glyph-name="uni5747" unicode="&#x5747;" horiz-adv-x="1027" 
 />
    <glyph glyph-name="uni574A" unicode="&#x574a;" horiz-adv-x="1027" 
 />
    <glyph glyph-name="uni574D" unicode="&#x574d;" horiz-adv-x="1027" 
 />
    <glyph glyph-name="uni574E" unicode="&#x574e;" horiz-adv-x="1027" 
 />
    <glyph glyph-name="uni5750" unicode="&#x5750;" horiz-adv-x="1027" 
 />
    <glyph glyph-name="uni5751" unicode="&#x5751;" horiz-adv-x="1027" 
 />
    <glyph glyph-name="uni5761" unicode="&#x5761;" horiz-adv-x="1027" 
 />
    <glyph glyph-name="uni5764" unicode="&#x5764;" horiz-adv-x="1027" 
 />
    <glyph glyph-name="uni5766" unicode="&#x5766;" horiz-adv-x="1027" 
 />
    <glyph glyph-name="uni576A" unicode="&#x576a;" horiz-adv-x="1027" 
 />
    <glyph glyph-name="uni576E" unicode="&#x576e;" horiz-adv-x="1027" 
 />
    <glyph glyph-name="uni5770" unicode="&#x5770;" horiz-adv-x="1027" 
 />
    <glyph glyph-name="uni5775" unicode="&#x5775;" horiz-adv-x="1027" 
 />
    <glyph glyph-name="uni577C" unicode="&#x577c;" horiz-adv-x="1027" 
 />
    <glyph glyph-name="uni5782" unicode="&#x5782;" horiz-adv-x="1027" 
 />
    <glyph glyph-name="uni5788" unicode="&#x5788;" horiz-adv-x="1027" 
 />
    <glyph glyph-name="uni578B" unicode="&#x578b;" horiz-adv-x="1027" 
 />
    <glyph glyph-name="uni5793" unicode="&#x5793;" horiz-adv-x="1027" 
 />
    <glyph glyph-name="uni57A0" unicode="&#x57a0;" horiz-adv-x="1027" 
 />
    <glyph glyph-name="uni57A2" unicode="&#x57a2;" horiz-adv-x="1027" 
 />
    <glyph glyph-name="uni57A3" unicode="&#x57a3;" horiz-adv-x="1027" 
 />
    <glyph glyph-name="uni57C3" unicode="&#x57c3;" horiz-adv-x="1027" 
 />
    <glyph glyph-name="uni57C7" unicode="&#x57c7;" horiz-adv-x="1027" 
 />
    <glyph glyph-name="uni57C8" unicode="&#x57c8;" horiz-adv-x="1027" 
 />
    <glyph glyph-name="uni57CB" unicode="&#x57cb;" horiz-adv-x="1027" 
 />
    <glyph glyph-name="uni57CE" unicode="&#x57ce;" horiz-adv-x="1027" 
 />
    <glyph glyph-name="uni57DF" unicode="&#x57df;" horiz-adv-x="1027" 
 />
    <glyph glyph-name="uni57E0" unicode="&#x57e0;" horiz-adv-x="1027" 
 />
    <glyph glyph-name="uni57F0" unicode="&#x57f0;" horiz-adv-x="1027" 
 />
    <glyph glyph-name="uni57F4" unicode="&#x57f4;" horiz-adv-x="1027" 
 />
    <glyph glyph-name="uni57F7" unicode="&#x57f7;" horiz-adv-x="1027" 
 />
    <glyph glyph-name="uni57F9" unicode="&#x57f9;" horiz-adv-x="1027" 
 />
    <glyph glyph-name="uni57FA" unicode="&#x57fa;" horiz-adv-x="1027" 
 />
    <glyph glyph-name="uni57FC" unicode="&#x57fc;" horiz-adv-x="1027" 
 />
    <glyph glyph-name="uni5800" unicode="&#x5800;" horiz-adv-x="1027" 
 />
    <glyph glyph-name="uni5802" unicode="&#x5802;" horiz-adv-x="1027" 
 />
    <glyph glyph-name="uni5805" unicode="&#x5805;" horiz-adv-x="1027" 
 />
    <glyph glyph-name="uni5806" unicode="&#x5806;" horiz-adv-x="1027" 
 />
    <glyph glyph-name="uni5808" unicode="&#x5808;" horiz-adv-x="1027" 
 />
    <glyph glyph-name="uni5809" unicode="&#x5809;" horiz-adv-x="1027" 
 />
    <glyph glyph-name="uni580A" unicode="&#x580a;" horiz-adv-x="1027" 
 />
    <glyph glyph-name="uni581E" unicode="&#x581e;" horiz-adv-x="1027" 
 />
    <glyph glyph-name="uni5821" unicode="&#x5821;" horiz-adv-x="1027" 
 />
    <glyph glyph-name="uni5824" unicode="&#x5824;" horiz-adv-x="1027" 
 />
    <glyph glyph-name="uni5827" unicode="&#x5827;" horiz-adv-x="1027" 
 />
    <glyph glyph-name="uni582A" unicode="&#x582a;" horiz-adv-x="1027" 
 />
    <glyph glyph-name="uni582F" unicode="&#x582f;" horiz-adv-x="1027" 
 />
    <glyph glyph-name="uni5830" unicode="&#x5830;" horiz-adv-x="1027" 
 />
    <glyph glyph-name="uni5831" unicode="&#x5831;" horiz-adv-x="1027" 
 />
    <glyph glyph-name="uni5834" unicode="&#x5834;" horiz-adv-x="1027" 
 />
    <glyph glyph-name="uni5835" unicode="&#x5835;" horiz-adv-x="1027" 
 />
    <glyph glyph-name="uni583A" unicode="&#x583a;" horiz-adv-x="1027" 
 />
    <glyph glyph-name="uni584A" unicode="&#x584a;" horiz-adv-x="1027" 
 />
    <glyph glyph-name="uni584B" unicode="&#x584b;" horiz-adv-x="1027" 
 />
    <glyph glyph-name="uni584F" unicode="&#x584f;" horiz-adv-x="1027" 
 />
    <glyph glyph-name="uni5851" unicode="&#x5851;" horiz-adv-x="1027" 
 />
    <glyph glyph-name="uni5854" unicode="&#x5854;" horiz-adv-x="1027" 
 />
    <glyph glyph-name="uni5857" unicode="&#x5857;" horiz-adv-x="1027" 
 />
    <glyph glyph-name="uni5858" unicode="&#x5858;" horiz-adv-x="1027" 
 />
    <glyph glyph-name="uni585A" unicode="&#x585a;" horiz-adv-x="1027" 
 />
    <glyph glyph-name="uni585E" unicode="&#x585e;" horiz-adv-x="1027" 
 />
    <glyph glyph-name="uni5861" unicode="&#x5861;" horiz-adv-x="1027" 
 />
    <glyph glyph-name="uni5862" unicode="&#x5862;" horiz-adv-x="1027" 
 />
    <glyph glyph-name="uni5864" unicode="&#x5864;" horiz-adv-x="1027" 
 />
    <glyph glyph-name="uni5875" unicode="&#x5875;" horiz-adv-x="1027" 
 />
    <glyph glyph-name="uni5879" unicode="&#x5879;" horiz-adv-x="1027" 
 />
    <glyph glyph-name="uni587C" unicode="&#x587c;" horiz-adv-x="1027" 
 />
    <glyph glyph-name="uni587E" unicode="&#x587e;" horiz-adv-x="1027" 
 />
    <glyph glyph-name="uni5883" unicode="&#x5883;" horiz-adv-x="1027" 
 />
    <glyph glyph-name="uni5885" unicode="&#x5885;" horiz-adv-x="1027" 
 />
    <glyph glyph-name="uni5889" unicode="&#x5889;" horiz-adv-x="1027" 
 />
    <glyph glyph-name="uni5893" unicode="&#x5893;" horiz-adv-x="1027" 
 />
    <glyph glyph-name="uni589C" unicode="&#x589c;" horiz-adv-x="1027" 
 />
    <glyph glyph-name="uni589E" unicode="&#x589e;" horiz-adv-x="1027" 
 />
    <glyph glyph-name="uni589F" unicode="&#x589f;" horiz-adv-x="1027" 
 />
    <glyph glyph-name="uni58A8" unicode="&#x58a8;" horiz-adv-x="1027" 
 />
    <glyph glyph-name="uni58A9" unicode="&#x58a9;" horiz-adv-x="1027" 
 />
    <glyph glyph-name="uni58AE" unicode="&#x58ae;" horiz-adv-x="1027" 
 />
    <glyph glyph-name="uni58B3" unicode="&#x58b3;" horiz-adv-x="1027" 
 />
    <glyph glyph-name="uni58BA" unicode="&#x58ba;" horiz-adv-x="1027" 
 />
    <glyph glyph-name="uni58BB" unicode="&#x58bb;" horiz-adv-x="1027" 
 />
    <glyph glyph-name="uni58BE" unicode="&#x58be;" horiz-adv-x="1027" 
 />
    <glyph glyph-name="uni58C1" unicode="&#x58c1;" horiz-adv-x="1027" 
 />
    <glyph glyph-name="uni58C5" unicode="&#x58c5;" horiz-adv-x="1027" 
 />
    <glyph glyph-name="uni58C7" unicode="&#x58c7;" horiz-adv-x="1027" 
 />
    <glyph glyph-name="uni58CE" unicode="&#x58ce;" horiz-adv-x="1027" 
 />
    <glyph glyph-name="uni58D1" unicode="&#x58d1;" horiz-adv-x="1027" 
 />
    <glyph glyph-name="uni58D3" unicode="&#x58d3;" horiz-adv-x="1027" 
 />
    <glyph glyph-name="uni58D5" unicode="&#x58d5;" horiz-adv-x="1027" 
 />
    <glyph glyph-name="uni58D8" unicode="&#x58d8;" horiz-adv-x="1027" 
 />
    <glyph glyph-name="uni58D9" unicode="&#x58d9;" horiz-adv-x="1027" 
 />
    <glyph glyph-name="uni58DE" unicode="&#x58de;" horiz-adv-x="1027" 
 />
    <glyph glyph-name="uni58DF" unicode="&#x58df;" horiz-adv-x="1027" 
 />
    <glyph glyph-name="uni58E4" unicode="&#x58e4;" horiz-adv-x="1027" 
 />
    <glyph glyph-name="uni58EB" unicode="&#x58eb;" horiz-adv-x="1027" 
 />
    <glyph glyph-name="uni58EC" unicode="&#x58ec;" horiz-adv-x="1027" 
 />
    <glyph glyph-name="uni58EF" unicode="&#x58ef;" horiz-adv-x="1027" 
 />
    <glyph glyph-name="uni58F9" unicode="&#x58f9;" horiz-adv-x="1027" 
 />
    <glyph glyph-name="uni58FA" unicode="&#x58fa;" horiz-adv-x="1027" 
 />
    <glyph glyph-name="uni58FB" unicode="&#x58fb;" horiz-adv-x="1027" 
 />
    <glyph glyph-name="uni58FD" unicode="&#x58fd;" horiz-adv-x="1027" 
 />
    <glyph glyph-name="uni590F" unicode="&#x590f;" horiz-adv-x="1027" 
 />
    <glyph glyph-name="uni5914" unicode="&#x5914;" horiz-adv-x="1027" 
 />
    <glyph glyph-name="uni5915" unicode="&#x5915;" horiz-adv-x="1027" 
 />
    <glyph glyph-name="uni5916" unicode="&#x5916;" horiz-adv-x="1027" 
 />
    <glyph glyph-name="uni5919" unicode="&#x5919;" horiz-adv-x="1027" 
 />
    <glyph glyph-name="uni591A" unicode="&#x591a;" horiz-adv-x="1027" 
 />
    <glyph glyph-name="uni591C" unicode="&#x591c;" horiz-adv-x="1027" 
 />
    <glyph glyph-name="uni5922" unicode="&#x5922;" horiz-adv-x="1027" 
 />
    <glyph glyph-name="uni5927" unicode="&#x5927;" horiz-adv-x="1027" 
 />
    <glyph glyph-name="uni5929" unicode="&#x5929;" horiz-adv-x="1027" 
 />
    <glyph glyph-name="uni592A" unicode="&#x592a;" horiz-adv-x="1027" 
 />
    <glyph glyph-name="uni592B" unicode="&#x592b;" horiz-adv-x="1027" 
 />
    <glyph glyph-name="uni592D" unicode="&#x592d;" horiz-adv-x="1027" 
 />
    <glyph glyph-name="uni592E" unicode="&#x592e;" horiz-adv-x="1027" 
 />
    <glyph glyph-name="uni5931" unicode="&#x5931;" horiz-adv-x="1027" 
 />
    <glyph glyph-name="uni5937" unicode="&#x5937;" horiz-adv-x="1027" 
 />
    <glyph glyph-name="uni593E" unicode="&#x593e;" horiz-adv-x="1027" 
 />
    <glyph glyph-name="uni5944" unicode="&#x5944;" horiz-adv-x="1027" 
 />
    <glyph glyph-name="uni5947" unicode="&#x5947;" horiz-adv-x="1027" 
 />
    <glyph glyph-name="uni5948" unicode="&#x5948;" horiz-adv-x="1027" 
 />
    <glyph glyph-name="uni5949" unicode="&#x5949;" horiz-adv-x="1027" 
 />
    <glyph glyph-name="uni594E" unicode="&#x594e;" horiz-adv-x="1027" 
 />
    <glyph glyph-name="uni594F" unicode="&#x594f;" horiz-adv-x="1027" 
 />
    <glyph glyph-name="uni5950" unicode="&#x5950;" horiz-adv-x="1027" 
 />
    <glyph glyph-name="uni5951" unicode="&#x5951;" horiz-adv-x="1027" 
 />
    <glyph glyph-name="uni5954" unicode="&#x5954;" horiz-adv-x="1027" 
 />
    <glyph glyph-name="uni5955" unicode="&#x5955;" horiz-adv-x="1027" 
 />
    <glyph glyph-name="uni5957" unicode="&#x5957;" horiz-adv-x="1027" 
 />
    <glyph glyph-name="uni595A" unicode="&#x595a;" horiz-adv-x="1027" 
 />
    <glyph glyph-name="uni5960" unicode="&#x5960;" horiz-adv-x="1027" 
 />
    <glyph glyph-name="uni5962" unicode="&#x5962;" horiz-adv-x="1027" 
 />
    <glyph glyph-name="uni5967" unicode="&#x5967;" horiz-adv-x="1027" 
 />
    <glyph glyph-name="uni596A" unicode="&#x596a;" horiz-adv-x="1027" 
 />
    <glyph glyph-name="uni596B" unicode="&#x596b;" horiz-adv-x="1027" 
 />
    <glyph glyph-name="uni596C" unicode="&#x596c;" horiz-adv-x="1027" 
 />
    <glyph glyph-name="uni596D" unicode="&#x596d;" horiz-adv-x="1027" 
 />
    <glyph glyph-name="uni596E" unicode="&#x596e;" horiz-adv-x="1027" 
 />
    <glyph glyph-name="uni5973" unicode="&#x5973;" horiz-adv-x="1027" 
 />
    <glyph glyph-name="uni5974" unicode="&#x5974;" horiz-adv-x="1027" 
 />
    <glyph glyph-name="uni5978" unicode="&#x5978;" horiz-adv-x="1027" 
 />
    <glyph glyph-name="uni597D" unicode="&#x597d;" horiz-adv-x="1027" 
 />
    <glyph glyph-name="uni5982" unicode="&#x5982;" horiz-adv-x="1027" 
 />
    <glyph glyph-name="uni5983" unicode="&#x5983;" horiz-adv-x="1027" 
 />
    <glyph glyph-name="uni5984" unicode="&#x5984;" horiz-adv-x="1027" 
 />
    <glyph glyph-name="uni598A" unicode="&#x598a;" horiz-adv-x="1027" 
 />
    <glyph glyph-name="uni5993" unicode="&#x5993;" horiz-adv-x="1027" 
 />
    <glyph glyph-name="uni5996" unicode="&#x5996;" horiz-adv-x="1027" 
 />
    <glyph glyph-name="uni5997" unicode="&#x5997;" horiz-adv-x="1027" 
 />
    <glyph glyph-name="uni5999" unicode="&#x5999;" horiz-adv-x="1027" 
 />
    <glyph glyph-name="uni59A5" unicode="&#x59a5;" horiz-adv-x="1027" 
 />
    <glyph glyph-name="uni59A8" unicode="&#x59a8;" horiz-adv-x="1027" 
 />
    <glyph glyph-name="uni59AC" unicode="&#x59ac;" horiz-adv-x="1027" 
 />
    <glyph glyph-name="uni59B9" unicode="&#x59b9;" horiz-adv-x="1027" 
 />
    <glyph glyph-name="uni59BB" unicode="&#x59bb;" horiz-adv-x="1027" 
 />
    <glyph glyph-name="uni59BE" unicode="&#x59be;" horiz-adv-x="1027" 
 />
    <glyph glyph-name="uni59C3" unicode="&#x59c3;" horiz-adv-x="1027" 
 />
    <glyph glyph-name="uni59C6" unicode="&#x59c6;" horiz-adv-x="1027" 
 />
    <glyph glyph-name="uni59C9" unicode="&#x59c9;" horiz-adv-x="1027" 
 />
    <glyph glyph-name="uni59CB" unicode="&#x59cb;" horiz-adv-x="1027" 
 />
    <glyph glyph-name="uni59D0" unicode="&#x59d0;" horiz-adv-x="1027" 
 />
    <glyph glyph-name="uni59D1" unicode="&#x59d1;" horiz-adv-x="1027" 
 />
    <glyph glyph-name="uni59D3" unicode="&#x59d3;" horiz-adv-x="1027" 
 />
    <glyph glyph-name="uni59D4" unicode="&#x59d4;" horiz-adv-x="1027" 
 />
    <glyph glyph-name="uni59D9" unicode="&#x59d9;" horiz-adv-x="1027" 
 />
    <glyph glyph-name="uni59DA" unicode="&#x59da;" horiz-adv-x="1027" 
 />
    <glyph glyph-name="uni59DC" unicode="&#x59dc;" horiz-adv-x="1027" 
 />
    <glyph glyph-name="uni59DD" unicode="&#x59dd;" horiz-adv-x="1027" 
 />
    <glyph glyph-name="uni59E6" unicode="&#x59e6;" horiz-adv-x="1027" 
 />
    <glyph glyph-name="uni59E8" unicode="&#x59e8;" horiz-adv-x="1027" 
 />
    <glyph glyph-name="uni59EA" unicode="&#x59ea;" horiz-adv-x="1027" 
 />
    <glyph glyph-name="uni59EC" unicode="&#x59ec;" horiz-adv-x="1027" 
 />
    <glyph glyph-name="uni59EE" unicode="&#x59ee;" horiz-adv-x="1027" 
 />
    <glyph glyph-name="uni59F8" unicode="&#x59f8;" horiz-adv-x="1027" 
 />
    <glyph glyph-name="uni59FB" unicode="&#x59fb;" horiz-adv-x="1027" 
 />
    <glyph glyph-name="uni59FF" unicode="&#x59ff;" horiz-adv-x="1027" 
 />
    <glyph glyph-name="uni5A01" unicode="&#x5a01;" horiz-adv-x="1027" 
 />
    <glyph glyph-name="uni5A03" unicode="&#x5a03;" horiz-adv-x="1027" 
 />
    <glyph glyph-name="uni5A11" unicode="&#x5a11;" horiz-adv-x="1027" 
 />
    <glyph glyph-name="uni5A18" unicode="&#x5a18;" horiz-adv-x="1027" 
 />
    <glyph glyph-name="uni5A1B" unicode="&#x5a1b;" horiz-adv-x="1027" 
 />
    <glyph glyph-name="uni5A1C" unicode="&#x5a1c;" horiz-adv-x="1027" 
 />
    <glyph glyph-name="uni5A1F" unicode="&#x5a1f;" horiz-adv-x="1027" 
 />
    <glyph glyph-name="uni5A20" unicode="&#x5a20;" horiz-adv-x="1027" 
 />
    <glyph glyph-name="uni5A25" unicode="&#x5a25;" horiz-adv-x="1027" 
 />
    <glyph glyph-name="uni5A29" unicode="&#x5a29;" horiz-adv-x="1027" 
 />
    <glyph glyph-name="uni5A36" unicode="&#x5a36;" horiz-adv-x="1027" 
 />
    <glyph glyph-name="uni5A3C" unicode="&#x5a3c;" horiz-adv-x="1027" 
 />
    <glyph glyph-name="uni5A41" unicode="&#x5a41;" horiz-adv-x="1027" 
 />
    <glyph glyph-name="uni5A46" unicode="&#x5a46;" horiz-adv-x="1027" 
 />
    <glyph glyph-name="uni5A49" unicode="&#x5a49;" horiz-adv-x="1027" 
 />
    <glyph glyph-name="uni5A5A" unicode="&#x5a5a;" horiz-adv-x="1027" 
 />
    <glyph glyph-name="uni5A62" unicode="&#x5a62;" horiz-adv-x="1027" 
 />
    <glyph glyph-name="uni5A66" unicode="&#x5a66;" horiz-adv-x="1027" 
 />
    <glyph glyph-name="uni5A92" unicode="&#x5a92;" horiz-adv-x="1027" 
 />
    <glyph glyph-name="uni5A9A" unicode="&#x5a9a;" horiz-adv-x="1027" 
 />
    <glyph glyph-name="uni5A9B" unicode="&#x5a9b;" horiz-adv-x="1027" 
 />
    <glyph glyph-name="uni5AA4" unicode="&#x5aa4;" horiz-adv-x="1027" 
 />
    <glyph glyph-name="uni5AC1" unicode="&#x5ac1;" horiz-adv-x="1027" 
 />
    <glyph glyph-name="uni5AC2" unicode="&#x5ac2;" horiz-adv-x="1027" 
 />
    <glyph glyph-name="uni5AC4" unicode="&#x5ac4;" horiz-adv-x="1027" 
 />
    <glyph glyph-name="uni5AC9" unicode="&#x5ac9;" horiz-adv-x="1027" 
 />
    <glyph glyph-name="uni5ACC" unicode="&#x5acc;" horiz-adv-x="1027" 
 />
    <glyph glyph-name="uni5AE1" unicode="&#x5ae1;" horiz-adv-x="1027" 
 />
    <glyph glyph-name="uni5AE6" unicode="&#x5ae6;" horiz-adv-x="1027" 
 />
    <glyph glyph-name="uni5AE9" unicode="&#x5ae9;" horiz-adv-x="1027" 
 />
    <glyph glyph-name="uni5B05" unicode="&#x5b05;" horiz-adv-x="1027" 
 />
    <glyph glyph-name="uni5B09" unicode="&#x5b09;" horiz-adv-x="1027" 
 />
    <glyph glyph-name="uni5B0B" unicode="&#x5b0b;" horiz-adv-x="1027" 
 />
    <glyph glyph-name="uni5B0C" unicode="&#x5b0c;" horiz-adv-x="1027" 
 />
    <glyph glyph-name="uni5B16" unicode="&#x5b16;" horiz-adv-x="1027" 
 />
    <glyph glyph-name="uni5B2A" unicode="&#x5b2a;" horiz-adv-x="1027" 
 />
    <glyph glyph-name="uni5B40" unicode="&#x5b40;" horiz-adv-x="1027" 
 />
    <glyph glyph-name="uni5B43" unicode="&#x5b43;" horiz-adv-x="1027" 
 />
    <glyph glyph-name="uni5B50" unicode="&#x5b50;" horiz-adv-x="1027" 
 />
    <glyph glyph-name="uni5B51" unicode="&#x5b51;" horiz-adv-x="1027" 
 />
    <glyph glyph-name="uni5B54" unicode="&#x5b54;" horiz-adv-x="1027" 
 />
    <glyph glyph-name="uni5B55" unicode="&#x5b55;" horiz-adv-x="1027" 
 />
    <glyph glyph-name="uni5B57" unicode="&#x5b57;" horiz-adv-x="1027" 
 />
    <glyph glyph-name="uni5B58" unicode="&#x5b58;" horiz-adv-x="1027" 
 />
    <glyph glyph-name="uni5B5A" unicode="&#x5b5a;" horiz-adv-x="1027" 
 />
    <glyph glyph-name="uni5B5C" unicode="&#x5b5c;" horiz-adv-x="1027" 
 />
    <glyph glyph-name="uni5B5D" unicode="&#x5b5d;" horiz-adv-x="1027" 
 />
    <glyph glyph-name="uni5B5F" unicode="&#x5b5f;" horiz-adv-x="1027" 
 />
    <glyph glyph-name="uni5B63" unicode="&#x5b63;" horiz-adv-x="1027" 
 />
    <glyph glyph-name="uni5B64" unicode="&#x5b64;" horiz-adv-x="1027" 
 />
    <glyph glyph-name="uni5B69" unicode="&#x5b69;" horiz-adv-x="1027" 
 />
    <glyph glyph-name="uni5B6B" unicode="&#x5b6b;" horiz-adv-x="1027" 
 />
    <glyph glyph-name="uni5B70" unicode="&#x5b70;" horiz-adv-x="1027" 
 />
    <glyph glyph-name="uni5B71" unicode="&#x5b71;" horiz-adv-x="1027" 
 />
    <glyph glyph-name="uni5B75" unicode="&#x5b75;" horiz-adv-x="1027" 
 />
    <glyph glyph-name="uni5B78" unicode="&#x5b78;" horiz-adv-x="1027" 
 />
    <glyph glyph-name="uni5B7A" unicode="&#x5b7a;" horiz-adv-x="1027" 
 />
    <glyph glyph-name="uni5B7C" unicode="&#x5b7c;" horiz-adv-x="1027" 
 />
    <glyph glyph-name="uni5B85" unicode="&#x5b85;" horiz-adv-x="1027" 
 />
    <glyph glyph-name="uni5B87" unicode="&#x5b87;" horiz-adv-x="1027" 
 />
    <glyph glyph-name="uni5B88" unicode="&#x5b88;" horiz-adv-x="1027" 
 />
    <glyph glyph-name="uni5B89" unicode="&#x5b89;" horiz-adv-x="1027" 
 />
    <glyph glyph-name="uni5B8B" unicode="&#x5b8b;" horiz-adv-x="1027" 
 />
    <glyph glyph-name="uni5B8C" unicode="&#x5b8c;" horiz-adv-x="1027" 
 />
    <glyph glyph-name="uni5B8F" unicode="&#x5b8f;" horiz-adv-x="1027" 
 />
    <glyph glyph-name="uni5B93" unicode="&#x5b93;" horiz-adv-x="1027" 
 />
    <glyph glyph-name="uni5B95" unicode="&#x5b95;" horiz-adv-x="1027" 
 />
    <glyph glyph-name="uni5B96" unicode="&#x5b96;" horiz-adv-x="1027" 
 />
    <glyph glyph-name="uni5B97" unicode="&#x5b97;" horiz-adv-x="1027" 
 />
    <glyph glyph-name="uni5B98" unicode="&#x5b98;" horiz-adv-x="1027" 
 />
    <glyph glyph-name="uni5B99" unicode="&#x5b99;" horiz-adv-x="1027" 
 />
    <glyph glyph-name="uni5B9A" unicode="&#x5b9a;" horiz-adv-x="1027" 
 />
    <glyph glyph-name="uni5B9B" unicode="&#x5b9b;" horiz-adv-x="1027" 
 />
    <glyph glyph-name="uni5B9C" unicode="&#x5b9c;" horiz-adv-x="1027" 
 />
    <glyph glyph-name="uni5BA2" unicode="&#x5ba2;" horiz-adv-x="1027" 
 />
    <glyph glyph-name="uni5BA3" unicode="&#x5ba3;" horiz-adv-x="1027" 
 />
    <glyph glyph-name="uni5BA4" unicode="&#x5ba4;" horiz-adv-x="1027" 
 />
    <glyph glyph-name="uni5BA5" unicode="&#x5ba5;" horiz-adv-x="1027" 
 />
    <glyph glyph-name="uni5BA6" unicode="&#x5ba6;" horiz-adv-x="1027" 
 />
    <glyph glyph-name="uni5BAC" unicode="&#x5bac;" horiz-adv-x="1027" 
 />
    <glyph glyph-name="uni5BAE" unicode="&#x5bae;" horiz-adv-x="1027" 
 />
    <glyph glyph-name="uni5BB0" unicode="&#x5bb0;" horiz-adv-x="1027" 
 />
    <glyph glyph-name="uni5BB3" unicode="&#x5bb3;" horiz-adv-x="1027" 
 />
    <glyph glyph-name="uni5BB4" unicode="&#x5bb4;" horiz-adv-x="1027" 
 />
    <glyph glyph-name="uni5BB5" unicode="&#x5bb5;" horiz-adv-x="1027" 
 />
    <glyph glyph-name="uni5BB6" unicode="&#x5bb6;" horiz-adv-x="1027" 
 />
    <glyph glyph-name="uni5BB8" unicode="&#x5bb8;" horiz-adv-x="1027" 
 />
    <glyph glyph-name="uni5BB9" unicode="&#x5bb9;" horiz-adv-x="1027" 
 />
    <glyph glyph-name="uni5BBF" unicode="&#x5bbf;" horiz-adv-x="1027" 
 />
    <glyph glyph-name="uni5BC0" unicode="&#x5bc0;" horiz-adv-x="1027" 
 />
    <glyph glyph-name="uni5BC2" unicode="&#x5bc2;" horiz-adv-x="1027" 
 />
    <glyph glyph-name="uni5BC3" unicode="&#x5bc3;" horiz-adv-x="1027" 
 />
    <glyph glyph-name="uni5BC4" unicode="&#x5bc4;" horiz-adv-x="1027" 
 />
    <glyph glyph-name="uni5BC5" unicode="&#x5bc5;" horiz-adv-x="1027" 
 />
    <glyph glyph-name="uni5BC6" unicode="&#x5bc6;" horiz-adv-x="1027" 
 />
    <glyph glyph-name="uni5BC7" unicode="&#x5bc7;" horiz-adv-x="1027" 
 />
    <glyph glyph-name="uni5BCC" unicode="&#x5bcc;" horiz-adv-x="1027" 
 />
    <glyph glyph-name="uni5BD0" unicode="&#x5bd0;" horiz-adv-x="1027" 
 />
    <glyph glyph-name="uni5BD2" unicode="&#x5bd2;" horiz-adv-x="1027" 
 />
    <glyph glyph-name="uni5BD3" unicode="&#x5bd3;" horiz-adv-x="1027" 
 />
    <glyph glyph-name="uni5BD4" unicode="&#x5bd4;" horiz-adv-x="1027" 
 />
    <glyph glyph-name="uni5BD7" unicode="&#x5bd7;" horiz-adv-x="1027" 
 />
    <glyph glyph-name="uni5BDE" unicode="&#x5bde;" horiz-adv-x="1027" 
 />
    <glyph glyph-name="uni5BDF" unicode="&#x5bdf;" horiz-adv-x="1027" 
 />
    <glyph glyph-name="uni5BE1" unicode="&#x5be1;" horiz-adv-x="1027" 
 />
    <glyph glyph-name="uni5BE2" unicode="&#x5be2;" horiz-adv-x="1027" 
 />
    <glyph glyph-name="uni5BE4" unicode="&#x5be4;" horiz-adv-x="1027" 
 />
    <glyph glyph-name="uni5BE5" unicode="&#x5be5;" horiz-adv-x="1027" 
 />
    <glyph glyph-name="uni5BE6" unicode="&#x5be6;" horiz-adv-x="1027" 
 />
    <glyph glyph-name="uni5BE7" unicode="&#x5be7;" horiz-adv-x="1027" 
 />
    <glyph glyph-name="uni5BE8" unicode="&#x5be8;" horiz-adv-x="1027" 
 />
    <glyph glyph-name="uni5BE9" unicode="&#x5be9;" horiz-adv-x="1027" 
 />
    <glyph glyph-name="uni5BEB" unicode="&#x5beb;" horiz-adv-x="1027" 
 />
    <glyph glyph-name="uni5BEC" unicode="&#x5bec;" horiz-adv-x="1027" 
 />
    <glyph glyph-name="uni5BEE" unicode="&#x5bee;" horiz-adv-x="1027" 
 />
    <glyph glyph-name="uni5BEF" unicode="&#x5bef;" horiz-adv-x="1027" 
 />
    <glyph glyph-name="uni5BF5" unicode="&#x5bf5;" horiz-adv-x="1027" 
 />
    <glyph glyph-name="uni5BF6" unicode="&#x5bf6;" horiz-adv-x="1027" 
 />
    <glyph glyph-name="uni5BF8" unicode="&#x5bf8;" horiz-adv-x="1027" 
 />
    <glyph glyph-name="uni5BFA" unicode="&#x5bfa;" horiz-adv-x="1027" 
 />
    <glyph glyph-name="uni5C01" unicode="&#x5c01;" horiz-adv-x="1027" 
 />
    <glyph glyph-name="uni5C04" unicode="&#x5c04;" horiz-adv-x="1027" 
 />
    <glyph glyph-name="uni5C07" unicode="&#x5c07;" horiz-adv-x="1027" 
 />
    <glyph glyph-name="uni5C08" unicode="&#x5c08;" horiz-adv-x="1027" 
 />
    <glyph glyph-name="uni5C09" unicode="&#x5c09;" horiz-adv-x="1027" 
 />
    <glyph glyph-name="uni5C0A" unicode="&#x5c0a;" horiz-adv-x="1027" 
 />
    <glyph glyph-name="uni5C0B" unicode="&#x5c0b;" horiz-adv-x="1027" 
 />
    <glyph glyph-name="uni5C0D" unicode="&#x5c0d;" horiz-adv-x="1027" 
 />
    <glyph glyph-name="uni5C0E" unicode="&#x5c0e;" horiz-adv-x="1027" 
 />
    <glyph glyph-name="uni5C0F" unicode="&#x5c0f;" horiz-adv-x="1027" 
 />
    <glyph glyph-name="uni5C11" unicode="&#x5c11;" horiz-adv-x="1027" 
 />
    <glyph glyph-name="uni5C16" unicode="&#x5c16;" horiz-adv-x="1027" 
 />
    <glyph glyph-name="uni5C19" unicode="&#x5c19;" horiz-adv-x="1027" 
 />
    <glyph glyph-name="uni5C24" unicode="&#x5c24;" horiz-adv-x="1027" 
 />
    <glyph glyph-name="uni5C28" unicode="&#x5c28;" horiz-adv-x="1027" 
 />
    <glyph glyph-name="uni5C31" unicode="&#x5c31;" horiz-adv-x="1027" 
 />
    <glyph glyph-name="uni5C38" unicode="&#x5c38;" horiz-adv-x="1027" 
 />
    <glyph glyph-name="uni5C39" unicode="&#x5c39;" horiz-adv-x="1027" 
 />
    <glyph glyph-name="uni5C3A" unicode="&#x5c3a;" horiz-adv-x="1027" 
 />
    <glyph glyph-name="uni5C3B" unicode="&#x5c3b;" horiz-adv-x="1027" 
 />
    <glyph glyph-name="uni5C3C" unicode="&#x5c3c;" horiz-adv-x="1027" 
 />
    <glyph glyph-name="uni5C3E" unicode="&#x5c3e;" horiz-adv-x="1027" 
 />
    <glyph glyph-name="uni5C3F" unicode="&#x5c3f;" horiz-adv-x="1027" 
 />
    <glyph glyph-name="uni5C40" unicode="&#x5c40;" horiz-adv-x="1027" 
 />
    <glyph glyph-name="uni5C45" unicode="&#x5c45;" horiz-adv-x="1027" 
 />
    <glyph glyph-name="uni5C46" unicode="&#x5c46;" horiz-adv-x="1027" 
 />
    <glyph glyph-name="uni5C48" unicode="&#x5c48;" horiz-adv-x="1027" 
 />
    <glyph glyph-name="uni5C4B" unicode="&#x5c4b;" horiz-adv-x="1027" 
 />
    <glyph glyph-name="uni5C4D" unicode="&#x5c4d;" horiz-adv-x="1027" 
 />
    <glyph glyph-name="uni5C4E" unicode="&#x5c4e;" horiz-adv-x="1027" 
 />
    <glyph glyph-name="uni5C51" unicode="&#x5c51;" horiz-adv-x="1027" 
 />
    <glyph glyph-name="uni5C55" unicode="&#x5c55;" horiz-adv-x="1027" 
 />
    <glyph glyph-name="uni5C5B" unicode="&#x5c5b;" horiz-adv-x="1027" 
 />
    <glyph glyph-name="uni5C60" unicode="&#x5c60;" horiz-adv-x="1027" 
 />
    <glyph glyph-name="uni5C62" unicode="&#x5c62;" horiz-adv-x="1027" 
 />
    <glyph glyph-name="uni5C64" unicode="&#x5c64;" horiz-adv-x="1027" 
 />
    <glyph glyph-name="uni5C65" unicode="&#x5c65;" horiz-adv-x="1027" 
 />
    <glyph glyph-name="uni5C6C" unicode="&#x5c6c;" horiz-adv-x="1027" 
 />
    <glyph glyph-name="uni5C6F" unicode="&#x5c6f;" horiz-adv-x="1027" 
 />
    <glyph glyph-name="uni5C71" unicode="&#x5c71;" horiz-adv-x="1027" 
 />
    <glyph glyph-name="uni5C79" unicode="&#x5c79;" horiz-adv-x="1027" 
 />
    <glyph glyph-name="uni5C90" unicode="&#x5c90;" horiz-adv-x="1027" 
 />
    <glyph glyph-name="uni5C91" unicode="&#x5c91;" horiz-adv-x="1027" 
 />
    <glyph glyph-name="uni5CA1" unicode="&#x5ca1;" horiz-adv-x="1027" 
 />
    <glyph glyph-name="uni5CA9" unicode="&#x5ca9;" horiz-adv-x="1027" 
 />
    <glyph glyph-name="uni5CAB" unicode="&#x5cab;" horiz-adv-x="1027" 
 />
    <glyph glyph-name="uni5CAC" unicode="&#x5cac;" horiz-adv-x="1027" 
 />
    <glyph glyph-name="uni5CB1" unicode="&#x5cb1;" horiz-adv-x="1027" 
 />
    <glyph glyph-name="uni5CB3" unicode="&#x5cb3;" horiz-adv-x="1027" 
 />
    <glyph glyph-name="uni5CB5" unicode="&#x5cb5;" horiz-adv-x="1027" 
 />
    <glyph glyph-name="uni5CB7" unicode="&#x5cb7;" horiz-adv-x="1027" 
 />
    <glyph glyph-name="uni5CB8" unicode="&#x5cb8;" horiz-adv-x="1027" 
 />
    <glyph glyph-name="uni5CBA" unicode="&#x5cba;" horiz-adv-x="1027" 
 />
    <glyph glyph-name="uni5CBE" unicode="&#x5cbe;" horiz-adv-x="1027" 
 />
    <glyph glyph-name="uni5CC0" unicode="&#x5cc0;" horiz-adv-x="1027" 
 />
    <glyph glyph-name="uni5CD9" unicode="&#x5cd9;" horiz-adv-x="1027" 
 />
    <glyph glyph-name="uni5CE0" unicode="&#x5ce0;" horiz-adv-x="1027" 
 />
    <glyph glyph-name="uni5CE8" unicode="&#x5ce8;" horiz-adv-x="1027" 
 />
    <glyph glyph-name="uni5CEF" unicode="&#x5cef;" horiz-adv-x="1027" 
 />
    <glyph glyph-name="uni5CF0" unicode="&#x5cf0;" horiz-adv-x="1027" 
 />
    <glyph glyph-name="uni5CF4" unicode="&#x5cf4;" horiz-adv-x="1027" 
 />
    <glyph glyph-name="uni5CF6" unicode="&#x5cf6;" horiz-adv-x="1027" 
 />
    <glyph glyph-name="uni5CFB" unicode="&#x5cfb;" horiz-adv-x="1027" 
 />
    <glyph glyph-name="uni5CFD" unicode="&#x5cfd;" horiz-adv-x="1027" 
 />
    <glyph glyph-name="uni5D07" unicode="&#x5d07;" horiz-adv-x="1027" 
 />
    <glyph glyph-name="uni5D0D" unicode="&#x5d0d;" horiz-adv-x="1027" 
 />
    <glyph glyph-name="uni5D0E" unicode="&#x5d0e;" horiz-adv-x="1027" 
 />
    <glyph glyph-name="uni5D11" unicode="&#x5d11;" horiz-adv-x="1027" 
 />
    <glyph glyph-name="uni5D14" unicode="&#x5d14;" horiz-adv-x="1027" 
 />
    <glyph glyph-name="uni5D16" unicode="&#x5d16;" horiz-adv-x="1027" 
 />
    <glyph glyph-name="uni5D17" unicode="&#x5d17;" horiz-adv-x="1027" 
 />
    <glyph glyph-name="uni5D19" unicode="&#x5d19;" horiz-adv-x="1027" 
 />
    <glyph glyph-name="uni5D27" unicode="&#x5d27;" horiz-adv-x="1027" 
 />
    <glyph glyph-name="uni5D29" unicode="&#x5d29;" horiz-adv-x="1027" 
 />
    <glyph glyph-name="uni5D4B" unicode="&#x5d4b;" horiz-adv-x="1027" 
 />
    <glyph glyph-name="uni5D4C" unicode="&#x5d4c;" horiz-adv-x="1027" 
 />
    <glyph glyph-name="uni5D50" unicode="&#x5d50;" horiz-adv-x="1027" 
 />
    <glyph glyph-name="uni5D69" unicode="&#x5d69;" horiz-adv-x="1027" 
 />
    <glyph glyph-name="uni5D6C" unicode="&#x5d6c;" horiz-adv-x="1027" 
 />
    <glyph glyph-name="uni5D6F" unicode="&#x5d6f;" horiz-adv-x="1027" 
 />
    <glyph glyph-name="uni5D87" unicode="&#x5d87;" horiz-adv-x="1027" 
 />
    <glyph glyph-name="uni5D8B" unicode="&#x5d8b;" horiz-adv-x="1027" 
 />
    <glyph glyph-name="uni5D9D" unicode="&#x5d9d;" horiz-adv-x="1027" 
 />
    <glyph glyph-name="uni5DA0" unicode="&#x5da0;" horiz-adv-x="1027" 
 />
    <glyph glyph-name="uni5DA2" unicode="&#x5da2;" horiz-adv-x="1027" 
 />
    <glyph glyph-name="uni5DAA" unicode="&#x5daa;" horiz-adv-x="1027" 
 />
    <glyph glyph-name="uni5DB8" unicode="&#x5db8;" horiz-adv-x="1027" 
 />
    <glyph glyph-name="uni5DBA" unicode="&#x5dba;" horiz-adv-x="1027" 
 />
    <glyph glyph-name="uni5DBC" unicode="&#x5dbc;" horiz-adv-x="1027" 
 />
    <glyph glyph-name="uni5DBD" unicode="&#x5dbd;" horiz-adv-x="1027" 
 />
    <glyph glyph-name="uni5DCD" unicode="&#x5dcd;" horiz-adv-x="1027" 
 />
    <glyph glyph-name="uni5DD2" unicode="&#x5dd2;" horiz-adv-x="1027" 
 />
    <glyph glyph-name="uni5DD6" unicode="&#x5dd6;" horiz-adv-x="1027" 
 />
    <glyph glyph-name="uni5DDD" unicode="&#x5ddd;" horiz-adv-x="1027" 
 />
    <glyph glyph-name="uni5DDE" unicode="&#x5dde;" horiz-adv-x="1027" 
 />
    <glyph glyph-name="uni5DE1" unicode="&#x5de1;" horiz-adv-x="1027" 
 />
    <glyph glyph-name="uni5DE2" unicode="&#x5de2;" horiz-adv-x="1027" 
 />
    <glyph glyph-name="uni5DE5" unicode="&#x5de5;" horiz-adv-x="1027" 
 />
    <glyph glyph-name="uni5DE6" unicode="&#x5de6;" horiz-adv-x="1027" 
 />
    <glyph glyph-name="uni5DE7" unicode="&#x5de7;" horiz-adv-x="1027" 
 />
    <glyph glyph-name="uni5DE8" unicode="&#x5de8;" horiz-adv-x="1027" 
 />
    <glyph glyph-name="uni5DEB" unicode="&#x5deb;" horiz-adv-x="1027" 
 />
    <glyph glyph-name="uni5DEE" unicode="&#x5dee;" horiz-adv-x="1027" 
 />
    <glyph glyph-name="uni5DF1" unicode="&#x5df1;" horiz-adv-x="1027" 
 />
    <glyph glyph-name="uni5DF2" unicode="&#x5df2;" horiz-adv-x="1027" 
 />
    <glyph glyph-name="uni5DF3" unicode="&#x5df3;" horiz-adv-x="1027" 
 />
    <glyph glyph-name="uni5DF4" unicode="&#x5df4;" horiz-adv-x="1027" 
 />
    <glyph glyph-name="uni5DF7" unicode="&#x5df7;" horiz-adv-x="1027" 
 />
    <glyph glyph-name="uni5DFD" unicode="&#x5dfd;" horiz-adv-x="1027" 
 />
    <glyph glyph-name="uni5DFE" unicode="&#x5dfe;" horiz-adv-x="1027" 
 />
    <glyph glyph-name="uni5E02" unicode="&#x5e02;" horiz-adv-x="1027" 
 />
    <glyph glyph-name="uni5E03" unicode="&#x5e03;" horiz-adv-x="1027" 
 />
    <glyph glyph-name="uni5E06" unicode="&#x5e06;" horiz-adv-x="1027" 
 />
    <glyph glyph-name="uni5E0C" unicode="&#x5e0c;" horiz-adv-x="1027" 
 />
    <glyph glyph-name="uni5E11" unicode="&#x5e11;" horiz-adv-x="1027" 
 />
    <glyph glyph-name="uni5E16" unicode="&#x5e16;" horiz-adv-x="1027" 
 />
    <glyph glyph-name="uni5E19" unicode="&#x5e19;" horiz-adv-x="1027" 
 />
    <glyph glyph-name="uni5E1B" unicode="&#x5e1b;" horiz-adv-x="1027" 
 />
    <glyph glyph-name="uni5E1D" unicode="&#x5e1d;" horiz-adv-x="1027" 
 />
    <glyph glyph-name="uni5E25" unicode="&#x5e25;" horiz-adv-x="1027" 
 />
    <glyph glyph-name="uni5E2B" unicode="&#x5e2b;" horiz-adv-x="1027" 
 />
    <glyph glyph-name="uni5E2D" unicode="&#x5e2d;" horiz-adv-x="1027" 
 />
    <glyph glyph-name="uni5E33" unicode="&#x5e33;" horiz-adv-x="1027" 
 />
    <glyph glyph-name="uni5E36" unicode="&#x5e36;" horiz-adv-x="1027" 
 />
    <glyph glyph-name="uni5E38" unicode="&#x5e38;" horiz-adv-x="1027" 
 />
    <glyph glyph-name="uni5E3D" unicode="&#x5e3d;" horiz-adv-x="1027" 
 />
    <glyph glyph-name="uni5E3F" unicode="&#x5e3f;" horiz-adv-x="1027" 
 />
    <glyph glyph-name="uni5E40" unicode="&#x5e40;" horiz-adv-x="1027" 
 />
    <glyph glyph-name="uni5E44" unicode="&#x5e44;" horiz-adv-x="1027" 
 />
    <glyph glyph-name="uni5E45" unicode="&#x5e45;" horiz-adv-x="1027" 
 />
    <glyph glyph-name="uni5E47" unicode="&#x5e47;" horiz-adv-x="1027" 
 />
    <glyph glyph-name="uni5E4C" unicode="&#x5e4c;" horiz-adv-x="1027" 
 />
    <glyph glyph-name="uni5E55" unicode="&#x5e55;" horiz-adv-x="1027" 
 />
    <glyph glyph-name="uni5E5F" unicode="&#x5e5f;" horiz-adv-x="1027" 
 />
    <glyph glyph-name="uni5E61" unicode="&#x5e61;" horiz-adv-x="1027" 
 />
    <glyph glyph-name="uni5E62" unicode="&#x5e62;" horiz-adv-x="1027" 
 />
    <glyph glyph-name="uni5E63" unicode="&#x5e63;" horiz-adv-x="1027" 
 />
    <glyph glyph-name="uni5E72" unicode="&#x5e72;" horiz-adv-x="1027" 
 />
    <glyph glyph-name="uni5E73" unicode="&#x5e73;" horiz-adv-x="1027" 
 />
    <glyph glyph-name="uni5E74" unicode="&#x5e74;" horiz-adv-x="1027" 
 />
    <glyph glyph-name="uni5E77" unicode="&#x5e77;" horiz-adv-x="1027" 
 />
    <glyph glyph-name="uni5E78" unicode="&#x5e78;" horiz-adv-x="1027" 
 />
    <glyph glyph-name="uni5E79" unicode="&#x5e79;" horiz-adv-x="1027" 
 />
    <glyph glyph-name="uni5E7B" unicode="&#x5e7b;" horiz-adv-x="1027" 
 />
    <glyph glyph-name="uni5E7C" unicode="&#x5e7c;" horiz-adv-x="1027" 
 />
    <glyph glyph-name="uni5E7D" unicode="&#x5e7d;" horiz-adv-x="1027" 
 />
    <glyph glyph-name="uni5E7E" unicode="&#x5e7e;" horiz-adv-x="1027" 
 />
    <glyph glyph-name="uni5E84" unicode="&#x5e84;" horiz-adv-x="1027" 
 />
    <glyph glyph-name="uni5E87" unicode="&#x5e87;" horiz-adv-x="1027" 
 />
    <glyph glyph-name="uni5E8A" unicode="&#x5e8a;" horiz-adv-x="1027" 
 />
    <glyph glyph-name="uni5E8F" unicode="&#x5e8f;" horiz-adv-x="1027" 
 />
    <glyph glyph-name="uni5E95" unicode="&#x5e95;" horiz-adv-x="1027" 
 />
    <glyph glyph-name="uni5E97" unicode="&#x5e97;" horiz-adv-x="1027" 
 />
    <glyph glyph-name="uni5E9A" unicode="&#x5e9a;" horiz-adv-x="1027" 
 />
    <glyph glyph-name="uni5E9C" unicode="&#x5e9c;" horiz-adv-x="1027" 
 />
    <glyph glyph-name="uni5EA0" unicode="&#x5ea0;" horiz-adv-x="1027" 
 />
    <glyph glyph-name="uni5EA6" unicode="&#x5ea6;" horiz-adv-x="1027" 
 />
    <glyph glyph-name="uni5EA7" unicode="&#x5ea7;" horiz-adv-x="1027" 
 />
    <glyph glyph-name="uni5EAB" unicode="&#x5eab;" horiz-adv-x="1027" 
 />
    <glyph glyph-name="uni5EAD" unicode="&#x5ead;" horiz-adv-x="1027" 
 />
    <glyph glyph-name="uni5EB5" unicode="&#x5eb5;" horiz-adv-x="1027" 
 />
    <glyph glyph-name="uni5EB6" unicode="&#x5eb6;" horiz-adv-x="1027" 
 />
    <glyph glyph-name="uni5EB7" unicode="&#x5eb7;" horiz-adv-x="1027" 
 />
    <glyph glyph-name="uni5EB8" unicode="&#x5eb8;" horiz-adv-x="1027" 
 />
    <glyph glyph-name="uni5EBE" unicode="&#x5ebe;" horiz-adv-x="1027" 
 />
    <glyph glyph-name="uni5EC2" unicode="&#x5ec2;" horiz-adv-x="1027" 
 />
    <glyph glyph-name="uni5EC8" unicode="&#x5ec8;" horiz-adv-x="1027" 
 />
    <glyph glyph-name="uni5EC9" unicode="&#x5ec9;" horiz-adv-x="1027" 
 />
    <glyph glyph-name="uni5ECA" unicode="&#x5eca;" horiz-adv-x="1027" 
 />
    <glyph glyph-name="uni5ED0" unicode="&#x5ed0;" horiz-adv-x="1027" 
 />
    <glyph glyph-name="uni5ED3" unicode="&#x5ed3;" horiz-adv-x="1027" 
 />
    <glyph glyph-name="uni5ED6" unicode="&#x5ed6;" horiz-adv-x="1027" 
 />
    <glyph glyph-name="uni5EDA" unicode="&#x5eda;" horiz-adv-x="1027" 
 />
    <glyph glyph-name="uni5EDB" unicode="&#x5edb;" horiz-adv-x="1027" 
 />
    <glyph glyph-name="uni5EDF" unicode="&#x5edf;" horiz-adv-x="1027" 
 />
    <glyph glyph-name="uni5EE0" unicode="&#x5ee0;" horiz-adv-x="1027" 
 />
    <glyph glyph-name="uni5EE2" unicode="&#x5ee2;" horiz-adv-x="1027" 
 />
    <glyph glyph-name="uni5EE3" unicode="&#x5ee3;" horiz-adv-x="1027" 
 />
    <glyph glyph-name="uni5EEC" unicode="&#x5eec;" horiz-adv-x="1027" 
 />
    <glyph glyph-name="uni5EF3" unicode="&#x5ef3;" horiz-adv-x="1027" 
 />
    <glyph glyph-name="uni5EF6" unicode="&#x5ef6;" horiz-adv-x="1027" 
 />
    <glyph glyph-name="uni5EF7" unicode="&#x5ef7;" horiz-adv-x="1027" 
 />
    <glyph glyph-name="uni5EFA" unicode="&#x5efa;" horiz-adv-x="1027" 
 />
    <glyph glyph-name="uni5EFB" unicode="&#x5efb;" horiz-adv-x="1027" 
 />
    <glyph glyph-name="uni5F01" unicode="&#x5f01;" horiz-adv-x="1027" 
 />
    <glyph glyph-name="uni5F04" unicode="&#x5f04;" horiz-adv-x="1027" 
 />
    <glyph glyph-name="uni5F0A" unicode="&#x5f0a;" horiz-adv-x="1027" 
 />
    <glyph glyph-name="uni5F0F" unicode="&#x5f0f;" horiz-adv-x="1027" 
 />
    <glyph glyph-name="uni5F11" unicode="&#x5f11;" horiz-adv-x="1027" 
 />
    <glyph glyph-name="uni5F13" unicode="&#x5f13;" horiz-adv-x="1027" 
 />
    <glyph glyph-name="uni5F14" unicode="&#x5f14;" horiz-adv-x="1027" 
 />
    <glyph glyph-name="uni5F15" unicode="&#x5f15;" horiz-adv-x="1027" 
 />
    <glyph glyph-name="uni5F17" unicode="&#x5f17;" horiz-adv-x="1027" 
 />
    <glyph glyph-name="uni5F18" unicode="&#x5f18;" horiz-adv-x="1027" 
 />
    <glyph glyph-name="uni5F1B" unicode="&#x5f1b;" horiz-adv-x="1027" 
 />
    <glyph glyph-name="uni5F1F" unicode="&#x5f1f;" horiz-adv-x="1027" 
 />
    <glyph glyph-name="uni5F26" unicode="&#x5f26;" horiz-adv-x="1027" 
 />
    <glyph glyph-name="uni5F27" unicode="&#x5f27;" horiz-adv-x="1027" 
 />
    <glyph glyph-name="uni5F29" unicode="&#x5f29;" horiz-adv-x="1027" 
 />
    <glyph glyph-name="uni5F31" unicode="&#x5f31;" horiz-adv-x="1027" 
 />
    <glyph glyph-name="uni5F35" unicode="&#x5f35;" horiz-adv-x="1027" 
 />
    <glyph glyph-name="uni5F3A" unicode="&#x5f3a;" horiz-adv-x="1027" 
 />
    <glyph glyph-name="uni5F3C" unicode="&#x5f3c;" horiz-adv-x="1027" 
 />
    <glyph glyph-name="uni5F48" unicode="&#x5f48;" horiz-adv-x="1027" 
 />
    <glyph glyph-name="uni5F4A" unicode="&#x5f4a;" horiz-adv-x="1027" 
 />
    <glyph glyph-name="uni5F4C" unicode="&#x5f4c;" horiz-adv-x="1027" 
 />
    <glyph glyph-name="uni5F4E" unicode="&#x5f4e;" horiz-adv-x="1027" 
 />
    <glyph glyph-name="uni5F56" unicode="&#x5f56;" horiz-adv-x="1027" 
 />
    <glyph glyph-name="uni5F57" unicode="&#x5f57;" horiz-adv-x="1027" 
 />
    <glyph glyph-name="uni5F59" unicode="&#x5f59;" horiz-adv-x="1027" 
 />
    <glyph glyph-name="uni5F5B" unicode="&#x5f5b;" horiz-adv-x="1027" 
 />
    <glyph glyph-name="uni5F62" unicode="&#x5f62;" horiz-adv-x="1027" 
 />
    <glyph glyph-name="uni5F66" unicode="&#x5f66;" horiz-adv-x="1027" 
 />
    <glyph glyph-name="uni5F67" unicode="&#x5f67;" horiz-adv-x="1027" 
 />
    <glyph glyph-name="uni5F69" unicode="&#x5f69;" horiz-adv-x="1027" 
 />
    <glyph glyph-name="uni5F6A" unicode="&#x5f6a;" horiz-adv-x="1027" 
 />
    <glyph glyph-name="uni5F6B" unicode="&#x5f6b;" horiz-adv-x="1027" 
 />
    <glyph glyph-name="uni5F6C" unicode="&#x5f6c;" horiz-adv-x="1027" 
 />
    <glyph glyph-name="uni5F6D" unicode="&#x5f6d;" horiz-adv-x="1027" 
 />
    <glyph glyph-name="uni5F70" unicode="&#x5f70;" horiz-adv-x="1027" 
 />
    <glyph glyph-name="uni5F71" unicode="&#x5f71;" horiz-adv-x="1027" 
 />
    <glyph glyph-name="uni5F77" unicode="&#x5f77;" horiz-adv-x="1027" 
 />
    <glyph glyph-name="uni5F79" unicode="&#x5f79;" horiz-adv-x="1027" 
 />
    <glyph glyph-name="uni5F7C" unicode="&#x5f7c;" horiz-adv-x="1027" 
 />
    <glyph glyph-name="uni5F7F" unicode="&#x5f7f;" horiz-adv-x="1027" 
 />
    <glyph glyph-name="uni5F80" unicode="&#x5f80;" horiz-adv-x="1027" 
 />
    <glyph glyph-name="uni5F81" unicode="&#x5f81;" horiz-adv-x="1027" 
 />
    <glyph glyph-name="uni5F85" unicode="&#x5f85;" horiz-adv-x="1027" 
 />
    <glyph glyph-name="uni5F87" unicode="&#x5f87;" horiz-adv-x="1027" 
 />
    <glyph glyph-name="uni5F8A" unicode="&#x5f8a;" horiz-adv-x="1027" 
 />
    <glyph glyph-name="uni5F8B" unicode="&#x5f8b;" horiz-adv-x="1027" 
 />
    <glyph glyph-name="uni5F8C" unicode="&#x5f8c;" horiz-adv-x="1027" 
 />
    <glyph glyph-name="uni5F90" unicode="&#x5f90;" horiz-adv-x="1027" 
 />
    <glyph glyph-name="uni5F91" unicode="&#x5f91;" horiz-adv-x="1027" 
 />
    <glyph glyph-name="uni5F92" unicode="&#x5f92;" horiz-adv-x="1027" 
 />
    <glyph glyph-name="uni5F97" unicode="&#x5f97;" horiz-adv-x="1027" 
 />
    <glyph glyph-name="uni5F98" unicode="&#x5f98;" horiz-adv-x="1027" 
 />
    <glyph glyph-name="uni5F99" unicode="&#x5f99;" horiz-adv-x="1027" 
 />
    <glyph glyph-name="uni5F9E" unicode="&#x5f9e;" horiz-adv-x="1027" 
 />
    <glyph glyph-name="uni5FA0" unicode="&#x5fa0;" horiz-adv-x="1027" 
 />
    <glyph glyph-name="uni5FA1" unicode="&#x5fa1;" horiz-adv-x="1027" 
 />
    <glyph glyph-name="uni5FA8" unicode="&#x5fa8;" horiz-adv-x="1027" 
 />
    <glyph glyph-name="uni5FA9" unicode="&#x5fa9;" horiz-adv-x="1027" 
 />
    <glyph glyph-name="uni5FAA" unicode="&#x5faa;" horiz-adv-x="1027" 
 />
    <glyph glyph-name="uni5FAE" unicode="&#x5fae;" horiz-adv-x="1027" 
 />
    <glyph glyph-name="uni5FB5" unicode="&#x5fb5;" horiz-adv-x="1027" 
 />
    <glyph glyph-name="uni5FB7" unicode="&#x5fb7;" horiz-adv-x="1027" 
 />
    <glyph glyph-name="uni5FB9" unicode="&#x5fb9;" horiz-adv-x="1027" 
 />
    <glyph glyph-name="uni5FBD" unicode="&#x5fbd;" horiz-adv-x="1027" 
 />
    <glyph glyph-name="uni5FC3" unicode="&#x5fc3;" horiz-adv-x="1027" 
 />
    <glyph glyph-name="uni5FC5" unicode="&#x5fc5;" horiz-adv-x="1027" 
 />
    <glyph glyph-name="uni5FCC" unicode="&#x5fcc;" horiz-adv-x="1027" 
 />
    <glyph glyph-name="uni5FCD" unicode="&#x5fcd;" horiz-adv-x="1027" 
 />
    <glyph glyph-name="uni5FD6" unicode="&#x5fd6;" horiz-adv-x="1027" 
 />
    <glyph glyph-name="uni5FD7" unicode="&#x5fd7;" horiz-adv-x="1027" 
 />
    <glyph glyph-name="uni5FD8" unicode="&#x5fd8;" horiz-adv-x="1027" 
 />
    <glyph glyph-name="uni5FD9" unicode="&#x5fd9;" horiz-adv-x="1027" 
 />
    <glyph glyph-name="uni5FE0" unicode="&#x5fe0;" horiz-adv-x="1027" 
 />
    <glyph glyph-name="uni5FEB" unicode="&#x5feb;" horiz-adv-x="1027" 
 />
    <glyph glyph-name="uni5FF5" unicode="&#x5ff5;" horiz-adv-x="1027" 
 />
    <glyph glyph-name="uni5FFD" unicode="&#x5ffd;" horiz-adv-x="1027" 
 />
    <glyph glyph-name="uni5FFF" unicode="&#x5fff;" horiz-adv-x="1027" 
 />
    <glyph glyph-name="uni600F" unicode="&#x600f;" horiz-adv-x="1027" 
 />
    <glyph glyph-name="uni6012" unicode="&#x6012;" horiz-adv-x="1027" 
 />
    <glyph glyph-name="uni6016" unicode="&#x6016;" horiz-adv-x="1027" 
 />
    <glyph glyph-name="uni601C" unicode="&#x601c;" horiz-adv-x="1027" 
 />
    <glyph glyph-name="uni601D" unicode="&#x601d;" horiz-adv-x="1027" 
 />
    <glyph glyph-name="uni6020" unicode="&#x6020;" horiz-adv-x="1027" 
 />
    <glyph glyph-name="uni6021" unicode="&#x6021;" horiz-adv-x="1027" 
 />
    <glyph glyph-name="uni6025" unicode="&#x6025;" horiz-adv-x="1027" 
 />
    <glyph glyph-name="uni6027" unicode="&#x6027;" horiz-adv-x="1027" 
 />
    <glyph glyph-name="uni6028" unicode="&#x6028;" horiz-adv-x="1027" 
 />
    <glyph glyph-name="uni602A" unicode="&#x602a;" horiz-adv-x="1027" 
 />
    <glyph glyph-name="uni602F" unicode="&#x602f;" horiz-adv-x="1027" 
 />
    <glyph glyph-name="uni6041" unicode="&#x6041;" horiz-adv-x="1027" 
 />
    <glyph glyph-name="uni6042" unicode="&#x6042;" horiz-adv-x="1027" 
 />
    <glyph glyph-name="uni6043" unicode="&#x6043;" horiz-adv-x="1027" 
 />
    <glyph glyph-name="uni604D" unicode="&#x604d;" horiz-adv-x="1027" 
 />
    <glyph glyph-name="uni6050" unicode="&#x6050;" horiz-adv-x="1027" 
 />
    <glyph glyph-name="uni6052" unicode="&#x6052;" horiz-adv-x="1027" 
 />
    <glyph glyph-name="uni6055" unicode="&#x6055;" horiz-adv-x="1027" 
 />
    <glyph glyph-name="uni6059" unicode="&#x6059;" horiz-adv-x="1027" 
 />
    <glyph glyph-name="uni605D" unicode="&#x605d;" horiz-adv-x="1027" 
 />
    <glyph glyph-name="uni6062" unicode="&#x6062;" horiz-adv-x="1027" 
 />
    <glyph glyph-name="uni6063" unicode="&#x6063;" horiz-adv-x="1027" 
 />
    <glyph glyph-name="uni6064" unicode="&#x6064;" horiz-adv-x="1027" 
 />
    <glyph glyph-name="uni6065" unicode="&#x6065;" horiz-adv-x="1027" 
 />
    <glyph glyph-name="uni6068" unicode="&#x6068;" horiz-adv-x="1027" 
 />
    <glyph glyph-name="uni6069" unicode="&#x6069;" horiz-adv-x="1027" 
 />
    <glyph glyph-name="uni606A" unicode="&#x606a;" horiz-adv-x="1027" 
 />
    <glyph glyph-name="uni606C" unicode="&#x606c;" horiz-adv-x="1027" 
 />
    <glyph glyph-name="uni606D" unicode="&#x606d;" horiz-adv-x="1027" 
 />
    <glyph glyph-name="uni606F" unicode="&#x606f;" horiz-adv-x="1027" 
 />
    <glyph glyph-name="uni6070" unicode="&#x6070;" horiz-adv-x="1027" 
 />
    <glyph glyph-name="uni6085" unicode="&#x6085;" horiz-adv-x="1027" 
 />
    <glyph glyph-name="uni6089" unicode="&#x6089;" horiz-adv-x="1027" 
 />
    <glyph glyph-name="uni608C" unicode="&#x608c;" horiz-adv-x="1027" 
 />
    <glyph glyph-name="uni608D" unicode="&#x608d;" horiz-adv-x="1027" 
 />
    <glyph glyph-name="uni6094" unicode="&#x6094;" horiz-adv-x="1027" 
 />
    <glyph glyph-name="uni6096" unicode="&#x6096;" horiz-adv-x="1027" 
 />
    <glyph glyph-name="uni609A" unicode="&#x609a;" horiz-adv-x="1027" 
 />
    <glyph glyph-name="uni609B" unicode="&#x609b;" horiz-adv-x="1027" 
 />
    <glyph glyph-name="uni609F" unicode="&#x609f;" horiz-adv-x="1027" 
 />
    <glyph glyph-name="uni60A0" unicode="&#x60a0;" horiz-adv-x="1027" 
 />
    <glyph glyph-name="uni60A3" unicode="&#x60a3;" horiz-adv-x="1027" 
 />
    <glyph glyph-name="uni60A4" unicode="&#x60a4;" horiz-adv-x="1027" 
 />
    <glyph glyph-name="uni60A7" unicode="&#x60a7;" horiz-adv-x="1027" 
 />
    <glyph glyph-name="uni60B0" unicode="&#x60b0;" horiz-adv-x="1027" 
 />
    <glyph glyph-name="uni60B2" unicode="&#x60b2;" horiz-adv-x="1027" 
 />
    <glyph glyph-name="uni60B3" unicode="&#x60b3;" horiz-adv-x="1027" 
 />
    <glyph glyph-name="uni60B4" unicode="&#x60b4;" horiz-adv-x="1027" 
 />
    <glyph glyph-name="uni60B6" unicode="&#x60b6;" horiz-adv-x="1027" 
 />
    <glyph glyph-name="uni60B8" unicode="&#x60b8;" horiz-adv-x="1027" 
 />
    <glyph glyph-name="uni60BC" unicode="&#x60bc;" horiz-adv-x="1027" 
 />
    <glyph glyph-name="uni60BD" unicode="&#x60bd;" horiz-adv-x="1027" 
 />
    <glyph glyph-name="uni60C5" unicode="&#x60c5;" horiz-adv-x="1027" 
 />
    <glyph glyph-name="uni60C7" unicode="&#x60c7;" horiz-adv-x="1027" 
 />
    <glyph glyph-name="uni60D1" unicode="&#x60d1;" horiz-adv-x="1027" 
 />
    <glyph glyph-name="uni60DA" unicode="&#x60da;" horiz-adv-x="1027" 
 />
    <glyph glyph-name="uni60DC" unicode="&#x60dc;" horiz-adv-x="1027" 
 />
    <glyph glyph-name="uni60DF" unicode="&#x60df;" horiz-adv-x="1027" 
 />
    <glyph glyph-name="uni60E0" unicode="&#x60e0;" horiz-adv-x="1027" 
 />
    <glyph glyph-name="uni60E1" unicode="&#x60e1;" horiz-adv-x="1027" 
 />
    <glyph glyph-name="uni60F0" unicode="&#x60f0;" horiz-adv-x="1027" 
 />
    <glyph glyph-name="uni60F1" unicode="&#x60f1;" horiz-adv-x="1027" 
 />
    <glyph glyph-name="uni60F3" unicode="&#x60f3;" horiz-adv-x="1027" 
 />
    <glyph glyph-name="uni60F6" unicode="&#x60f6;" horiz-adv-x="1027" 
 />
    <glyph glyph-name="uni60F9" unicode="&#x60f9;" horiz-adv-x="1027" 
 />
    <glyph glyph-name="uni60FA" unicode="&#x60fa;" horiz-adv-x="1027" 
 />
    <glyph glyph-name="uni60FB" unicode="&#x60fb;" horiz-adv-x="1027" 
 />
    <glyph glyph-name="uni6101" unicode="&#x6101;" horiz-adv-x="1027" 
 />
    <glyph glyph-name="uni6106" unicode="&#x6106;" horiz-adv-x="1027" 
 />
    <glyph glyph-name="uni6108" unicode="&#x6108;" horiz-adv-x="1027" 
 />
    <glyph glyph-name="uni6109" unicode="&#x6109;" horiz-adv-x="1027" 
 />
    <glyph glyph-name="uni610D" unicode="&#x610d;" horiz-adv-x="1027" 
 />
    <glyph glyph-name="uni610E" unicode="&#x610e;" horiz-adv-x="1027" 
 />
    <glyph glyph-name="uni610F" unicode="&#x610f;" horiz-adv-x="1027" 
 />
    <glyph glyph-name="uni6115" unicode="&#x6115;" horiz-adv-x="1027" 
 />
    <glyph glyph-name="uni611A" unicode="&#x611a;" horiz-adv-x="1027" 
 />
    <glyph glyph-name="uni611B" unicode="&#x611b;" horiz-adv-x="1027" 
 />
    <glyph glyph-name="uni611F" unicode="&#x611f;" horiz-adv-x="1027" 
 />
    <glyph glyph-name="uni6127" unicode="&#x6127;" horiz-adv-x="1027" 
 />
    <glyph glyph-name="uni6130" unicode="&#x6130;" horiz-adv-x="1027" 
 />
    <glyph glyph-name="uni6134" unicode="&#x6134;" horiz-adv-x="1027" 
 />
    <glyph glyph-name="uni6137" unicode="&#x6137;" horiz-adv-x="1027" 
 />
    <glyph glyph-name="uni613C" unicode="&#x613c;" horiz-adv-x="1027" 
 />
    <glyph glyph-name="uni613E" unicode="&#x613e;" horiz-adv-x="1027" 
 />
    <glyph glyph-name="uni613F" unicode="&#x613f;" horiz-adv-x="1027" 
 />
    <glyph glyph-name="uni6142" unicode="&#x6142;" horiz-adv-x="1027" 
 />
    <glyph glyph-name="uni6144" unicode="&#x6144;" horiz-adv-x="1027" 
 />
    <glyph glyph-name="uni6147" unicode="&#x6147;" horiz-adv-x="1027" 
 />
    <glyph glyph-name="uni6148" unicode="&#x6148;" horiz-adv-x="1027" 
 />
    <glyph glyph-name="uni614A" unicode="&#x614a;" horiz-adv-x="1027" 
 />
    <glyph glyph-name="uni614B" unicode="&#x614b;" horiz-adv-x="1027" 
 />
    <glyph glyph-name="uni614C" unicode="&#x614c;" horiz-adv-x="1027" 
 />
    <glyph glyph-name="uni6153" unicode="&#x6153;" horiz-adv-x="1027" 
 />
    <glyph glyph-name="uni6155" unicode="&#x6155;" horiz-adv-x="1027" 
 />
    <glyph glyph-name="uni6158" unicode="&#x6158;" horiz-adv-x="1027" 
 />
    <glyph glyph-name="uni6159" unicode="&#x6159;" horiz-adv-x="1027" 
 />
    <glyph glyph-name="uni615D" unicode="&#x615d;" horiz-adv-x="1027" 
 />
    <glyph glyph-name="uni615F" unicode="&#x615f;" horiz-adv-x="1027" 
 />
    <glyph glyph-name="uni6162" unicode="&#x6162;" horiz-adv-x="1027" 
 />
    <glyph glyph-name="uni6163" unicode="&#x6163;" horiz-adv-x="1027" 
 />
    <glyph glyph-name="uni6164" unicode="&#x6164;" horiz-adv-x="1027" 
 />
    <glyph glyph-name="uni6167" unicode="&#x6167;" horiz-adv-x="1027" 
 />
    <glyph glyph-name="uni6168" unicode="&#x6168;" horiz-adv-x="1027" 
 />
    <glyph glyph-name="uni616B" unicode="&#x616b;" horiz-adv-x="1027" 
 />
    <glyph glyph-name="uni616E" unicode="&#x616e;" horiz-adv-x="1027" 
 />
    <glyph glyph-name="uni6170" unicode="&#x6170;" horiz-adv-x="1027" 
 />
    <glyph glyph-name="uni6176" unicode="&#x6176;" horiz-adv-x="1027" 
 />
    <glyph glyph-name="uni6177" unicode="&#x6177;" horiz-adv-x="1027" 
 />
    <glyph glyph-name="uni617D" unicode="&#x617d;" horiz-adv-x="1027" 
 />
    <glyph glyph-name="uni617E" unicode="&#x617e;" horiz-adv-x="1027" 
 />
    <glyph glyph-name="uni6181" unicode="&#x6181;" horiz-adv-x="1027" 
 />
    <glyph glyph-name="uni6182" unicode="&#x6182;" horiz-adv-x="1027" 
 />
    <glyph glyph-name="uni618A" unicode="&#x618a;" horiz-adv-x="1027" 
 />
    <glyph glyph-name="uni618E" unicode="&#x618e;" horiz-adv-x="1027" 
 />
    <glyph glyph-name="uni6190" unicode="&#x6190;" horiz-adv-x="1027" 
 />
    <glyph glyph-name="uni6191" unicode="&#x6191;" horiz-adv-x="1027" 
 />
    <glyph glyph-name="uni6194" unicode="&#x6194;" horiz-adv-x="1027" 
 />
    <glyph glyph-name="uni6198" unicode="&#x6198;" horiz-adv-x="1027" 
 />
    <glyph glyph-name="uni6199" unicode="&#x6199;" horiz-adv-x="1027" 
 />
    <glyph glyph-name="uni619A" unicode="&#x619a;" horiz-adv-x="1027" 
 />
    <glyph glyph-name="uni61A4" unicode="&#x61a4;" horiz-adv-x="1027" 
 />
    <glyph glyph-name="uni61A7" unicode="&#x61a7;" horiz-adv-x="1027" 
 />
    <glyph glyph-name="uni61A9" unicode="&#x61a9;" horiz-adv-x="1027" 
 />
    <glyph glyph-name="uni61AB" unicode="&#x61ab;" horiz-adv-x="1027" 
 />
    <glyph glyph-name="uni61AC" unicode="&#x61ac;" horiz-adv-x="1027" 
 />
    <glyph glyph-name="uni61AE" unicode="&#x61ae;" horiz-adv-x="1027" 
 />
    <glyph glyph-name="uni61B2" unicode="&#x61b2;" horiz-adv-x="1027" 
 />
    <glyph glyph-name="uni61B6" unicode="&#x61b6;" horiz-adv-x="1027" 
 />
    <glyph glyph-name="uni61BA" unicode="&#x61ba;" horiz-adv-x="1027" 
 />
    <glyph glyph-name="uni61BE" unicode="&#x61be;" horiz-adv-x="1027" 
 />
    <glyph glyph-name="uni61C3" unicode="&#x61c3;" horiz-adv-x="1027" 
 />
    <glyph glyph-name="uni61C7" unicode="&#x61c7;" horiz-adv-x="1027" 
 />
    <glyph glyph-name="uni61C8" unicode="&#x61c8;" horiz-adv-x="1027" 
 />
    <glyph glyph-name="uni61C9" unicode="&#x61c9;" horiz-adv-x="1027" 
 />
    <glyph glyph-name="uni61CA" unicode="&#x61ca;" horiz-adv-x="1027" 
 />
    <glyph glyph-name="uni61CB" unicode="&#x61cb;" horiz-adv-x="1027" 
 />
    <glyph glyph-name="uni61E6" unicode="&#x61e6;" horiz-adv-x="1027" 
 />
    <glyph glyph-name="uni61F2" unicode="&#x61f2;" horiz-adv-x="1027" 
 />
    <glyph glyph-name="uni61F6" unicode="&#x61f6;" horiz-adv-x="1027" 
 />
    <glyph glyph-name="uni61F7" unicode="&#x61f7;" horiz-adv-x="1027" 
 />
    <glyph glyph-name="uni61F8" unicode="&#x61f8;" horiz-adv-x="1027" 
 />
    <glyph glyph-name="uni61FA" unicode="&#x61fa;" horiz-adv-x="1027" 
 />
    <glyph glyph-name="uni61FC" unicode="&#x61fc;" horiz-adv-x="1027" 
 />
    <glyph glyph-name="uni61FF" unicode="&#x61ff;" horiz-adv-x="1027" 
 />
    <glyph glyph-name="uni6200" unicode="&#x6200;" horiz-adv-x="1027" 
 />
    <glyph glyph-name="uni6207" unicode="&#x6207;" horiz-adv-x="1027" 
 />
    <glyph glyph-name="uni6208" unicode="&#x6208;" horiz-adv-x="1027" 
 />
    <glyph glyph-name="uni620A" unicode="&#x620a;" horiz-adv-x="1027" 
 />
    <glyph glyph-name="uni620C" unicode="&#x620c;" horiz-adv-x="1027" 
 />
    <glyph glyph-name="uni620D" unicode="&#x620d;" horiz-adv-x="1027" 
 />
    <glyph glyph-name="uni620E" unicode="&#x620e;" horiz-adv-x="1027" 
 />
    <glyph glyph-name="uni6210" unicode="&#x6210;" horiz-adv-x="1027" 
 />
    <glyph glyph-name="uni6211" unicode="&#x6211;" horiz-adv-x="1027" 
 />
    <glyph glyph-name="uni6212" unicode="&#x6212;" horiz-adv-x="1027" 
 />
    <glyph glyph-name="uni6216" unicode="&#x6216;" horiz-adv-x="1027" 
 />
    <glyph glyph-name="uni621A" unicode="&#x621a;" horiz-adv-x="1027" 
 />
    <glyph glyph-name="uni621F" unicode="&#x621f;" horiz-adv-x="1027" 
 />
    <glyph glyph-name="uni6221" unicode="&#x6221;" horiz-adv-x="1027" 
 />
    <glyph glyph-name="uni622A" unicode="&#x622a;" horiz-adv-x="1027" 
 />
    <glyph glyph-name="uni622E" unicode="&#x622e;" horiz-adv-x="1027" 
 />
    <glyph glyph-name="uni6230" unicode="&#x6230;" horiz-adv-x="1027" 
 />
    <glyph glyph-name="uni6231" unicode="&#x6231;" horiz-adv-x="1027" 
 />
    <glyph glyph-name="uni6234" unicode="&#x6234;" horiz-adv-x="1027" 
 />
    <glyph glyph-name="uni6236" unicode="&#x6236;" horiz-adv-x="1027" 
 />
    <glyph glyph-name="uni623E" unicode="&#x623e;" horiz-adv-x="1027" 
 />
    <glyph glyph-name="uni623F" unicode="&#x623f;" horiz-adv-x="1027" 
 />
    <glyph glyph-name="uni6240" unicode="&#x6240;" horiz-adv-x="1027" 
 />
    <glyph glyph-name="uni6241" unicode="&#x6241;" horiz-adv-x="1027" 
 />
    <glyph glyph-name="uni6247" unicode="&#x6247;" horiz-adv-x="1027" 
 />
    <glyph glyph-name="uni6248" unicode="&#x6248;" horiz-adv-x="1027" 
 />
    <glyph glyph-name="uni6249" unicode="&#x6249;" horiz-adv-x="1027" 
 />
    <glyph glyph-name="uni624B" unicode="&#x624b;" horiz-adv-x="1027" 
 />
    <glyph glyph-name="uni624D" unicode="&#x624d;" horiz-adv-x="1027" 
 />
    <glyph glyph-name="uni6253" unicode="&#x6253;" horiz-adv-x="1027" 
 />
    <glyph glyph-name="uni6258" unicode="&#x6258;" horiz-adv-x="1027" 
 />
    <glyph glyph-name="uni626E" unicode="&#x626e;" horiz-adv-x="1027" 
 />
    <glyph glyph-name="uni6271" unicode="&#x6271;" horiz-adv-x="1027" 
 />
    <glyph glyph-name="uni6276" unicode="&#x6276;" horiz-adv-x="1027" 
 />
    <glyph glyph-name="uni6279" unicode="&#x6279;" horiz-adv-x="1027" 
 />
    <glyph glyph-name="uni627C" unicode="&#x627c;" horiz-adv-x="1027" 
 />
    <glyph glyph-name="uni627F" unicode="&#x627f;" horiz-adv-x="1027" 
 />
    <glyph glyph-name="uni6280" unicode="&#x6280;" horiz-adv-x="1027" 
 />
    <glyph glyph-name="uni6284" unicode="&#x6284;" horiz-adv-x="1027" 
 />
    <glyph glyph-name="uni6289" unicode="&#x6289;" horiz-adv-x="1027" 
 />
    <glyph glyph-name="uni628A" unicode="&#x628a;" horiz-adv-x="1027" 
 />
    <glyph glyph-name="uni6291" unicode="&#x6291;" horiz-adv-x="1027" 
 />
    <glyph glyph-name="uni6292" unicode="&#x6292;" horiz-adv-x="1027" 
 />
    <glyph glyph-name="uni6295" unicode="&#x6295;" horiz-adv-x="1027" 
 />
    <glyph glyph-name="uni6297" unicode="&#x6297;" horiz-adv-x="1027" 
 />
    <glyph glyph-name="uni6298" unicode="&#x6298;" horiz-adv-x="1027" 
 />
    <glyph glyph-name="uni629B" unicode="&#x629b;" horiz-adv-x="1027" 
 />
    <glyph glyph-name="uni62AB" unicode="&#x62ab;" horiz-adv-x="1027" 
 />
    <glyph glyph-name="uni62B1" unicode="&#x62b1;" horiz-adv-x="1027" 
 />
    <glyph glyph-name="uni62B5" unicode="&#x62b5;" horiz-adv-x="1027" 
 />
    <glyph glyph-name="uni62B9" unicode="&#x62b9;" horiz-adv-x="1027" 
 />
    <glyph glyph-name="uni62BC" unicode="&#x62bc;" horiz-adv-x="1027" 
 />
    <glyph glyph-name="uni62BD" unicode="&#x62bd;" horiz-adv-x="1027" 
 />
    <glyph glyph-name="uni62C2" unicode="&#x62c2;" horiz-adv-x="1027" 
 />
    <glyph glyph-name="uni62C7" unicode="&#x62c7;" horiz-adv-x="1027" 
 />
    <glyph glyph-name="uni62C8" unicode="&#x62c8;" horiz-adv-x="1027" 
 />
    <glyph glyph-name="uni62C9" unicode="&#x62c9;" horiz-adv-x="1027" 
 />
    <glyph glyph-name="uni62CC" unicode="&#x62cc;" horiz-adv-x="1027" 
 />
    <glyph glyph-name="uni62CD" unicode="&#x62cd;" horiz-adv-x="1027" 
 />
    <glyph glyph-name="uni62CF" unicode="&#x62cf;" horiz-adv-x="1027" 
 />
    <glyph glyph-name="uni62D0" unicode="&#x62d0;" horiz-adv-x="1027" 
 />
    <glyph glyph-name="uni62D2" unicode="&#x62d2;" horiz-adv-x="1027" 
 />
    <glyph glyph-name="uni62D3" unicode="&#x62d3;" horiz-adv-x="1027" 
 />
    <glyph glyph-name="uni62D4" unicode="&#x62d4;" horiz-adv-x="1027" 
 />
    <glyph glyph-name="uni62D6" unicode="&#x62d6;" horiz-adv-x="1027" 
 />
    <glyph glyph-name="uni62D7" unicode="&#x62d7;" horiz-adv-x="1027" 
 />
    <glyph glyph-name="uni62D8" unicode="&#x62d8;" horiz-adv-x="1027" 
 />
    <glyph glyph-name="uni62D9" unicode="&#x62d9;" horiz-adv-x="1027" 
 />
    <glyph glyph-name="uni62DB" unicode="&#x62db;" horiz-adv-x="1027" 
 />
    <glyph glyph-name="uni62DC" unicode="&#x62dc;" horiz-adv-x="1027" 
 />
    <glyph glyph-name="uni62EC" unicode="&#x62ec;" horiz-adv-x="1027" 
 />
    <glyph glyph-name="uni62ED" unicode="&#x62ed;" horiz-adv-x="1027" 
 />
    <glyph glyph-name="uni62EE" unicode="&#x62ee;" horiz-adv-x="1027" 
 />
    <glyph glyph-name="uni62EF" unicode="&#x62ef;" horiz-adv-x="1027" 
 />
    <glyph glyph-name="uni62F1" unicode="&#x62f1;" horiz-adv-x="1027" 
 />
    <glyph glyph-name="uni62F3" unicode="&#x62f3;" horiz-adv-x="1027" 
 />
    <glyph glyph-name="uni62F7" unicode="&#x62f7;" horiz-adv-x="1027" 
 />
    <glyph glyph-name="uni62FE" unicode="&#x62fe;" horiz-adv-x="1027" 
 />
    <glyph glyph-name="uni62FF" unicode="&#x62ff;" horiz-adv-x="1027" 
 />
    <glyph glyph-name="uni6301" unicode="&#x6301;" horiz-adv-x="1027" 
 />
    <glyph glyph-name="uni6307" unicode="&#x6307;" horiz-adv-x="1027" 
 />
    <glyph glyph-name="uni6309" unicode="&#x6309;" horiz-adv-x="1027" 
 />
    <glyph glyph-name="uni6311" unicode="&#x6311;" horiz-adv-x="1027" 
 />
    <glyph glyph-name="uni632B" unicode="&#x632b;" horiz-adv-x="1027" 
 />
    <glyph glyph-name="uni632F" unicode="&#x632f;" horiz-adv-x="1027" 
 />
    <glyph glyph-name="uni633A" unicode="&#x633a;" horiz-adv-x="1027" 
 />
    <glyph glyph-name="uni633B" unicode="&#x633b;" horiz-adv-x="1027" 
 />
    <glyph glyph-name="uni633D" unicode="&#x633d;" horiz-adv-x="1027" 
 />
    <glyph glyph-name="uni633E" unicode="&#x633e;" horiz-adv-x="1027" 
 />
    <glyph glyph-name="uni6349" unicode="&#x6349;" horiz-adv-x="1027" 
 />
    <glyph glyph-name="uni634C" unicode="&#x634c;" horiz-adv-x="1027" 
 />
    <glyph glyph-name="uni634F" unicode="&#x634f;" horiz-adv-x="1027" 
 />
    <glyph glyph-name="uni6350" unicode="&#x6350;" horiz-adv-x="1027" 
 />
    <glyph glyph-name="uni6355" unicode="&#x6355;" horiz-adv-x="1027" 
 />
    <glyph glyph-name="uni6367" unicode="&#x6367;" horiz-adv-x="1027" 
 />
    <glyph glyph-name="uni6368" unicode="&#x6368;" horiz-adv-x="1027" 
 />
    <glyph glyph-name="uni636E" unicode="&#x636e;" horiz-adv-x="1027" 
 />
    <glyph glyph-name="uni6372" unicode="&#x6372;" horiz-adv-x="1027" 
 />
    <glyph glyph-name="uni6377" unicode="&#x6377;" horiz-adv-x="1027" 
 />
    <glyph glyph-name="uni637A" unicode="&#x637a;" horiz-adv-x="1027" 
 />
    <glyph glyph-name="uni637B" unicode="&#x637b;" horiz-adv-x="1027" 
 />
    <glyph glyph-name="uni637F" unicode="&#x637f;" horiz-adv-x="1027" 
 />
    <glyph glyph-name="uni6383" unicode="&#x6383;" horiz-adv-x="1027" 
 />
    <glyph glyph-name="uni6388" unicode="&#x6388;" horiz-adv-x="1027" 
 />
    <glyph glyph-name="uni6389" unicode="&#x6389;" horiz-adv-x="1027" 
 />
    <glyph glyph-name="uni638C" unicode="&#x638c;" horiz-adv-x="1027" 
 />
    <glyph glyph-name="uni6392" unicode="&#x6392;" horiz-adv-x="1027" 
 />
    <glyph glyph-name="uni6396" unicode="&#x6396;" horiz-adv-x="1027" 
 />
    <glyph glyph-name="uni6398" unicode="&#x6398;" horiz-adv-x="1027" 
 />
    <glyph glyph-name="uni639B" unicode="&#x639b;" horiz-adv-x="1027" 
 />
    <glyph glyph-name="uni63A0" unicode="&#x63a0;" horiz-adv-x="1027" 
 />
    <glyph glyph-name="uni63A1" unicode="&#x63a1;" horiz-adv-x="1027" 
 />
    <glyph glyph-name="uni63A2" unicode="&#x63a2;" horiz-adv-x="1027" 
 />
    <glyph glyph-name="uni63A5" unicode="&#x63a5;" horiz-adv-x="1027" 
 />
    <glyph glyph-name="uni63A7" unicode="&#x63a7;" horiz-adv-x="1027" 
 />
    <glyph glyph-name="uni63A8" unicode="&#x63a8;" horiz-adv-x="1027" 
 />
    <glyph glyph-name="uni63A9" unicode="&#x63a9;" horiz-adv-x="1027" 
 />
    <glyph glyph-name="uni63AA" unicode="&#x63aa;" horiz-adv-x="1027" 
 />
    <glyph glyph-name="uni63C0" unicode="&#x63c0;" horiz-adv-x="1027" 
 />
    <glyph glyph-name="uni63C4" unicode="&#x63c4;" horiz-adv-x="1027" 
 />
    <glyph glyph-name="uni63C6" unicode="&#x63c6;" horiz-adv-x="1027" 
 />
    <glyph glyph-name="uni63CF" unicode="&#x63cf;" horiz-adv-x="1027" 
 />
    <glyph glyph-name="uni63D0" unicode="&#x63d0;" horiz-adv-x="1027" 
 />
    <glyph glyph-name="uni63D6" unicode="&#x63d6;" horiz-adv-x="1027" 
 />
    <glyph glyph-name="uni63DA" unicode="&#x63da;" horiz-adv-x="1027" 
 />
    <glyph glyph-name="uni63DB" unicode="&#x63db;" horiz-adv-x="1027" 
 />
    <glyph glyph-name="uni63E1" unicode="&#x63e1;" horiz-adv-x="1027" 
 />
    <glyph glyph-name="uni63ED" unicode="&#x63ed;" horiz-adv-x="1027" 
 />
    <glyph glyph-name="uni63EE" unicode="&#x63ee;" horiz-adv-x="1027" 
 />
    <glyph glyph-name="uni63F4" unicode="&#x63f4;" horiz-adv-x="1027" 
 />
    <glyph glyph-name="uni63F6" unicode="&#x63f6;" horiz-adv-x="1027" 
 />
    <glyph glyph-name="uni63F7" unicode="&#x63f7;" horiz-adv-x="1027" 
 />
    <glyph glyph-name="uni640D" unicode="&#x640d;" horiz-adv-x="1027" 
 />
    <glyph glyph-name="uni640F" unicode="&#x640f;" horiz-adv-x="1027" 
 />
    <glyph glyph-name="uni6414" unicode="&#x6414;" horiz-adv-x="1027" 
 />
    <glyph glyph-name="uni6416" unicode="&#x6416;" horiz-adv-x="1027" 
 />
    <glyph glyph-name="uni6417" unicode="&#x6417;" horiz-adv-x="1027" 
 />
    <glyph glyph-name="uni641C" unicode="&#x641c;" horiz-adv-x="1027" 
 />
    <glyph glyph-name="uni6422" unicode="&#x6422;" horiz-adv-x="1027" 
 />
    <glyph glyph-name="uni642C" unicode="&#x642c;" horiz-adv-x="1027" 
 />
    <glyph glyph-name="uni642D" unicode="&#x642d;" horiz-adv-x="1027" 
 />
    <glyph glyph-name="uni643A" unicode="&#x643a;" horiz-adv-x="1027" 
 />
    <glyph glyph-name="uni643E" unicode="&#x643e;" horiz-adv-x="1027" 
 />
    <glyph glyph-name="uni6458" unicode="&#x6458;" horiz-adv-x="1027" 
 />
    <glyph glyph-name="uni6460" unicode="&#x6460;" horiz-adv-x="1027" 
 />
    <glyph glyph-name="uni6469" unicode="&#x6469;" horiz-adv-x="1027" 
 />
    <glyph glyph-name="uni646F" unicode="&#x646f;" horiz-adv-x="1027" 
 />
    <glyph glyph-name="uni6478" unicode="&#x6478;" horiz-adv-x="1027" 
 />
    <glyph glyph-name="uni6479" unicode="&#x6479;" horiz-adv-x="1027" 
 />
    <glyph glyph-name="uni647A" unicode="&#x647a;" horiz-adv-x="1027" 
 />
    <glyph glyph-name="uni6488" unicode="&#x6488;" horiz-adv-x="1027" 
 />
    <glyph glyph-name="uni6491" unicode="&#x6491;" horiz-adv-x="1027" 
 />
    <glyph glyph-name="uni6492" unicode="&#x6492;" horiz-adv-x="1027" 
 />
    <glyph glyph-name="uni6493" unicode="&#x6493;" horiz-adv-x="1027" 
 />
    <glyph glyph-name="uni649A" unicode="&#x649a;" horiz-adv-x="1027" 
 />
    <glyph glyph-name="uni649E" unicode="&#x649e;" horiz-adv-x="1027" 
 />
    <glyph glyph-name="uni64A4" unicode="&#x64a4;" horiz-adv-x="1027" 
 />
    <glyph glyph-name="uni64A5" unicode="&#x64a5;" horiz-adv-x="1027" 
 />
    <glyph glyph-name="uni64AB" unicode="&#x64ab;" horiz-adv-x="1027" 
 />
    <glyph glyph-name="uni64AD" unicode="&#x64ad;" horiz-adv-x="1027" 
 />
    <glyph glyph-name="uni64AE" unicode="&#x64ae;" horiz-adv-x="1027" 
 />
    <glyph glyph-name="uni64B0" unicode="&#x64b0;" horiz-adv-x="1027" 
 />
    <glyph glyph-name="uni64B2" unicode="&#x64b2;" horiz-adv-x="1027" 
 />
    <glyph glyph-name="uni64BB" unicode="&#x64bb;" horiz-adv-x="1027" 
 />
    <glyph glyph-name="uni64C1" unicode="&#x64c1;" horiz-adv-x="1027" 
 />
    <glyph glyph-name="uni64C4" unicode="&#x64c4;" horiz-adv-x="1027" 
 />
    <glyph glyph-name="uni64C5" unicode="&#x64c5;" horiz-adv-x="1027" 
 />
    <glyph glyph-name="uni64C7" unicode="&#x64c7;" horiz-adv-x="1027" 
 />
    <glyph glyph-name="uni64CA" unicode="&#x64ca;" horiz-adv-x="1027" 
 />
    <glyph glyph-name="uni64CD" unicode="&#x64cd;" horiz-adv-x="1027" 
 />
    <glyph glyph-name="uni64CE" unicode="&#x64ce;" horiz-adv-x="1027" 
 />
    <glyph glyph-name="uni64D2" unicode="&#x64d2;" horiz-adv-x="1027" 
 />
    <glyph glyph-name="uni64D4" unicode="&#x64d4;" horiz-adv-x="1027" 
 />
    <glyph glyph-name="uni64D8" unicode="&#x64d8;" horiz-adv-x="1027" 
 />
    <glyph glyph-name="uni64DA" unicode="&#x64da;" horiz-adv-x="1027" 
 />
    <glyph glyph-name="uni64E1" unicode="&#x64e1;" horiz-adv-x="1027" 
 />
    <glyph glyph-name="uni64E2" unicode="&#x64e2;" horiz-adv-x="1027" 
 />
    <glyph glyph-name="uni64E5" unicode="&#x64e5;" horiz-adv-x="1027" 
 />
    <glyph glyph-name="uni64E6" unicode="&#x64e6;" horiz-adv-x="1027" 
 />
    <glyph glyph-name="uni64E7" unicode="&#x64e7;" horiz-adv-x="1027" 
 />
    <glyph glyph-name="uni64EC" unicode="&#x64ec;" horiz-adv-x="1027" 
 />
    <glyph glyph-name="uni64F2" unicode="&#x64f2;" horiz-adv-x="1027" 
 />
    <glyph glyph-name="uni64F4" unicode="&#x64f4;" horiz-adv-x="1027" 
 />
    <glyph glyph-name="uni64FA" unicode="&#x64fa;" horiz-adv-x="1027" 
 />
    <glyph glyph-name="uni64FE" unicode="&#x64fe;" horiz-adv-x="1027" 
 />
    <glyph glyph-name="uni6500" unicode="&#x6500;" horiz-adv-x="1027" 
 />
    <glyph glyph-name="uni6504" unicode="&#x6504;" horiz-adv-x="1027" 
 />
    <glyph glyph-name="uni6518" unicode="&#x6518;" horiz-adv-x="1027" 
 />
    <glyph glyph-name="uni651D" unicode="&#x651d;" horiz-adv-x="1027" 
 />
    <glyph glyph-name="uni6523" unicode="&#x6523;" horiz-adv-x="1027" 
 />
    <glyph glyph-name="uni652A" unicode="&#x652a;" horiz-adv-x="1027" 
 />
    <glyph glyph-name="uni652B" unicode="&#x652b;" horiz-adv-x="1027" 
 />
    <glyph glyph-name="uni652C" unicode="&#x652c;" horiz-adv-x="1027" 
 />
    <glyph glyph-name="uni652F" unicode="&#x652f;" horiz-adv-x="1027" 
 />
    <glyph glyph-name="uni6536" unicode="&#x6536;" horiz-adv-x="1027" 
 />
    <glyph glyph-name="uni6537" unicode="&#x6537;" horiz-adv-x="1027" 
 />
    <glyph glyph-name="uni6538" unicode="&#x6538;" horiz-adv-x="1027" 
 />
    <glyph glyph-name="uni6539" unicode="&#x6539;" horiz-adv-x="1027" 
 />
    <glyph glyph-name="uni653B" unicode="&#x653b;" horiz-adv-x="1027" 
 />
    <glyph glyph-name="uni653E" unicode="&#x653e;" horiz-adv-x="1027" 
 />
    <glyph glyph-name="uni653F" unicode="&#x653f;" horiz-adv-x="1027" 
 />
    <glyph glyph-name="uni6545" unicode="&#x6545;" horiz-adv-x="1027" 
 />
    <glyph glyph-name="uni6548" unicode="&#x6548;" horiz-adv-x="1027" 
 />
    <glyph glyph-name="uni654D" unicode="&#x654d;" horiz-adv-x="1027" 
 />
    <glyph glyph-name="uni654E" unicode="&#x654e;" horiz-adv-x="1027" 
 />
    <glyph glyph-name="uni654F" unicode="&#x654f;" horiz-adv-x="1027" 
 />
    <glyph glyph-name="uni6551" unicode="&#x6551;" horiz-adv-x="1027" 
 />
    <glyph glyph-name="uni6556" unicode="&#x6556;" horiz-adv-x="1027" 
 />
    <glyph glyph-name="uni6557" unicode="&#x6557;" horiz-adv-x="1027" 
 />
    <glyph glyph-name="uni655E" unicode="&#x655e;" horiz-adv-x="1027" 
 />
    <glyph glyph-name="uni6562" unicode="&#x6562;" horiz-adv-x="1027" 
 />
    <glyph glyph-name="uni6563" unicode="&#x6563;" horiz-adv-x="1027" 
 />
    <glyph glyph-name="uni6566" unicode="&#x6566;" horiz-adv-x="1027" 
 />
    <glyph glyph-name="uni656C" unicode="&#x656c;" horiz-adv-x="1027" 
 />
    <glyph glyph-name="uni656D" unicode="&#x656d;" horiz-adv-x="1027" 
 />
    <glyph glyph-name="uni6572" unicode="&#x6572;" horiz-adv-x="1027" 
 />
    <glyph glyph-name="uni6574" unicode="&#x6574;" horiz-adv-x="1027" 
 />
    <glyph glyph-name="uni6575" unicode="&#x6575;" horiz-adv-x="1027" 
 />
    <glyph glyph-name="uni6577" unicode="&#x6577;" horiz-adv-x="1027" 
 />
    <glyph glyph-name="uni6578" unicode="&#x6578;" horiz-adv-x="1027" 
 />
    <glyph glyph-name="uni657E" unicode="&#x657e;" horiz-adv-x="1027" 
 />
    <glyph glyph-name="uni6582" unicode="&#x6582;" horiz-adv-x="1027" 
 />
    <glyph glyph-name="uni6583" unicode="&#x6583;" horiz-adv-x="1027" 
 />
    <glyph glyph-name="uni6585" unicode="&#x6585;" horiz-adv-x="1027" 
 />
    <glyph glyph-name="uni6587" unicode="&#x6587;" horiz-adv-x="1027" 
 />
    <glyph glyph-name="uni658C" unicode="&#x658c;" horiz-adv-x="1027" 
 />
    <glyph glyph-name="uni6590" unicode="&#x6590;" horiz-adv-x="1027" 
 />
    <glyph glyph-name="uni6591" unicode="&#x6591;" horiz-adv-x="1027" 
 />
    <glyph glyph-name="uni6597" unicode="&#x6597;" horiz-adv-x="1027" 
 />
    <glyph glyph-name="uni6599" unicode="&#x6599;" horiz-adv-x="1027" 
 />
    <glyph glyph-name="uni659B" unicode="&#x659b;" horiz-adv-x="1027" 
 />
    <glyph glyph-name="uni659C" unicode="&#x659c;" horiz-adv-x="1027" 
 />
    <glyph glyph-name="uni659F" unicode="&#x659f;" horiz-adv-x="1027" 
 />
    <glyph glyph-name="uni65A1" unicode="&#x65a1;" horiz-adv-x="1027" 
 />
    <glyph glyph-name="uni65A4" unicode="&#x65a4;" horiz-adv-x="1027" 
 />
    <glyph glyph-name="uni65A5" unicode="&#x65a5;" horiz-adv-x="1027" 
 />
    <glyph glyph-name="uni65A7" unicode="&#x65a7;" horiz-adv-x="1027" 
 />
    <glyph glyph-name="uni65AB" unicode="&#x65ab;" horiz-adv-x="1027" 
 />
    <glyph glyph-name="uni65AC" unicode="&#x65ac;" horiz-adv-x="1027" 
 />
    <glyph glyph-name="uni65AF" unicode="&#x65af;" horiz-adv-x="1027" 
 />
    <glyph glyph-name="uni65B0" unicode="&#x65b0;" horiz-adv-x="1027" 
 />
    <glyph glyph-name="uni65B7" unicode="&#x65b7;" horiz-adv-x="1027" 
 />
    <glyph glyph-name="uni65B9" unicode="&#x65b9;" horiz-adv-x="1027" 
 />
    <glyph glyph-name="uni65BC" unicode="&#x65bc;" horiz-adv-x="1027" 
 />
    <glyph glyph-name="uni65BD" unicode="&#x65bd;" horiz-adv-x="1027" 
 />
    <glyph glyph-name="uni65C1" unicode="&#x65c1;" horiz-adv-x="1027" 
 />
    <glyph glyph-name="uni65C5" unicode="&#x65c5;" horiz-adv-x="1027" 
 />
    <glyph glyph-name="uni65CB" unicode="&#x65cb;" horiz-adv-x="1027" 
 />
    <glyph glyph-name="uni65CC" unicode="&#x65cc;" horiz-adv-x="1027" 
 />
    <glyph glyph-name="uni65CF" unicode="&#x65cf;" horiz-adv-x="1027" 
 />
    <glyph glyph-name="uni65D2" unicode="&#x65d2;" horiz-adv-x="1027" 
 />
    <glyph glyph-name="uni65D7" unicode="&#x65d7;" horiz-adv-x="1027" 
 />
    <glyph glyph-name="uni65E0" unicode="&#x65e0;" horiz-adv-x="1027" 
 />
    <glyph glyph-name="uni65E3" unicode="&#x65e3;" horiz-adv-x="1027" 
 />
    <glyph glyph-name="uni65E5" unicode="&#x65e5;" horiz-adv-x="1027" 
 />
    <glyph glyph-name="uni65E6" unicode="&#x65e6;" horiz-adv-x="1027" 
 />
    <glyph glyph-name="uni65E8" unicode="&#x65e8;" horiz-adv-x="1027" 
 />
    <glyph glyph-name="uni65E9" unicode="&#x65e9;" horiz-adv-x="1027" 
 />
    <glyph glyph-name="uni65EC" unicode="&#x65ec;" horiz-adv-x="1027" 
 />
    <glyph glyph-name="uni65ED" unicode="&#x65ed;" horiz-adv-x="1027" 
 />
    <glyph glyph-name="uni65F1" unicode="&#x65f1;" horiz-adv-x="1027" 
 />
    <glyph glyph-name="uni65F4" unicode="&#x65f4;" horiz-adv-x="1027" 
 />
    <glyph glyph-name="uni65FA" unicode="&#x65fa;" horiz-adv-x="1027" 
 />
    <glyph glyph-name="uni65FB" unicode="&#x65fb;" horiz-adv-x="1027" 
 />
    <glyph glyph-name="uni65FC" unicode="&#x65fc;" horiz-adv-x="1027" 
 />
    <glyph glyph-name="uni65FD" unicode="&#x65fd;" horiz-adv-x="1027" 
 />
    <glyph glyph-name="uni65FF" unicode="&#x65ff;" horiz-adv-x="1027" 
 />
    <glyph glyph-name="uni6606" unicode="&#x6606;" horiz-adv-x="1027" 
 />
    <glyph glyph-name="uni6607" unicode="&#x6607;" horiz-adv-x="1027" 
 />
    <glyph glyph-name="uni6609" unicode="&#x6609;" horiz-adv-x="1027" 
 />
    <glyph glyph-name="uni660A" unicode="&#x660a;" horiz-adv-x="1027" 
 />
    <glyph glyph-name="uni660C" unicode="&#x660c;" horiz-adv-x="1027" 
 />
    <glyph glyph-name="uni660E" unicode="&#x660e;" horiz-adv-x="1027" 
 />
    <glyph glyph-name="uni660F" unicode="&#x660f;" horiz-adv-x="1027" 
 />
    <glyph glyph-name="uni6610" unicode="&#x6610;" horiz-adv-x="1027" 
 />
    <glyph glyph-name="uni6611" unicode="&#x6611;" horiz-adv-x="1027" 
 />
    <glyph glyph-name="uni6613" unicode="&#x6613;" horiz-adv-x="1027" 
 />
    <glyph glyph-name="uni6614" unicode="&#x6614;" horiz-adv-x="1027" 
 />
    <glyph glyph-name="uni6615" unicode="&#x6615;" horiz-adv-x="1027" 
 />
    <glyph glyph-name="uni661E" unicode="&#x661e;" horiz-adv-x="1027" 
 />
    <glyph glyph-name="uni661F" unicode="&#x661f;" horiz-adv-x="1027" 
 />
    <glyph glyph-name="uni6620" unicode="&#x6620;" horiz-adv-x="1027" 
 />
    <glyph glyph-name="uni6625" unicode="&#x6625;" horiz-adv-x="1027" 
 />
    <glyph glyph-name="uni6627" unicode="&#x6627;" horiz-adv-x="1027" 
 />
    <glyph glyph-name="uni6628" unicode="&#x6628;" horiz-adv-x="1027" 
 />
    <glyph glyph-name="uni662D" unicode="&#x662d;" horiz-adv-x="1027" 
 />
    <glyph glyph-name="uni662F" unicode="&#x662f;" horiz-adv-x="1027" 
 />
    <glyph glyph-name="uni6630" unicode="&#x6630;" horiz-adv-x="1027" 
 />
    <glyph glyph-name="uni6631" unicode="&#x6631;" horiz-adv-x="1027" 
 />
    <glyph glyph-name="uni6634" unicode="&#x6634;" horiz-adv-x="1027" 
 />
    <glyph glyph-name="uni6636" unicode="&#x6636;" horiz-adv-x="1027" 
 />
    <glyph glyph-name="uni663A" unicode="&#x663a;" horiz-adv-x="1027" 
 />
    <glyph glyph-name="uni663B" unicode="&#x663b;" horiz-adv-x="1027" 
 />
    <glyph glyph-name="uni6641" unicode="&#x6641;" horiz-adv-x="1027" 
 />
    <glyph glyph-name="uni6642" unicode="&#x6642;" horiz-adv-x="1027" 
 />
    <glyph glyph-name="uni6643" unicode="&#x6643;" horiz-adv-x="1027" 
 />
    <glyph glyph-name="uni6644" unicode="&#x6644;" horiz-adv-x="1027" 
 />
    <glyph glyph-name="uni6649" unicode="&#x6649;" horiz-adv-x="1027" 
 />
    <glyph glyph-name="uni664B" unicode="&#x664b;" horiz-adv-x="1027" 
 />
    <glyph glyph-name="uni664F" unicode="&#x664f;" horiz-adv-x="1027" 
 />
    <glyph glyph-name="uni6659" unicode="&#x6659;" horiz-adv-x="1027" 
 />
    <glyph glyph-name="uni665B" unicode="&#x665b;" horiz-adv-x="1027" 
 />
    <glyph glyph-name="uni665D" unicode="&#x665d;" horiz-adv-x="1027" 
 />
    <glyph glyph-name="uni665E" unicode="&#x665e;" horiz-adv-x="1027" 
 />
    <glyph glyph-name="uni665F" unicode="&#x665f;" horiz-adv-x="1027" 
 />
    <glyph glyph-name="uni6664" unicode="&#x6664;" horiz-adv-x="1027" 
 />
    <glyph glyph-name="uni6665" unicode="&#x6665;" horiz-adv-x="1027" 
 />
    <glyph glyph-name="uni6666" unicode="&#x6666;" horiz-adv-x="1027" 
 />
    <glyph glyph-name="uni6667" unicode="&#x6667;" horiz-adv-x="1027" 
 />
    <glyph glyph-name="uni6668" unicode="&#x6668;" horiz-adv-x="1027" 
 />
    <glyph glyph-name="uni6669" unicode="&#x6669;" horiz-adv-x="1027" 
 />
    <glyph glyph-name="uni666B" unicode="&#x666b;" horiz-adv-x="1027" 
 />
    <glyph glyph-name="uni666E" unicode="&#x666e;" horiz-adv-x="1027" 
 />
    <glyph glyph-name="uni666F" unicode="&#x666f;" horiz-adv-x="1027" 
 />
    <glyph glyph-name="uni6673" unicode="&#x6673;" horiz-adv-x="1027" 
 />
    <glyph glyph-name="uni6674" unicode="&#x6674;" horiz-adv-x="1027" 
 />
    <glyph glyph-name="uni6676" unicode="&#x6676;" horiz-adv-x="1027" 
 />
    <glyph glyph-name="uni6677" unicode="&#x6677;" horiz-adv-x="1027" 
 />
    <glyph glyph-name="uni6678" unicode="&#x6678;" horiz-adv-x="1027" 
 />
    <glyph glyph-name="uni667A" unicode="&#x667a;" horiz-adv-x="1027" 
 />
    <glyph glyph-name="uni6684" unicode="&#x6684;" horiz-adv-x="1027" 
 />
    <glyph glyph-name="uni6687" unicode="&#x6687;" horiz-adv-x="1027" 
 />
    <glyph glyph-name="uni6688" unicode="&#x6688;" horiz-adv-x="1027" 
 />
    <glyph glyph-name="uni6689" unicode="&#x6689;" horiz-adv-x="1027" 
 />
    <glyph glyph-name="uni668E" unicode="&#x668e;" horiz-adv-x="1027" 
 />
    <glyph glyph-name="uni6690" unicode="&#x6690;" horiz-adv-x="1027" 
 />
    <glyph glyph-name="uni6691" unicode="&#x6691;" horiz-adv-x="1027" 
 />
    <glyph glyph-name="uni6696" unicode="&#x6696;" horiz-adv-x="1027" 
 />
    <glyph glyph-name="uni6697" unicode="&#x6697;" horiz-adv-x="1027" 
 />
    <glyph glyph-name="uni6698" unicode="&#x6698;" horiz-adv-x="1027" 
 />
    <glyph glyph-name="uni669D" unicode="&#x669d;" horiz-adv-x="1027" 
 />
    <glyph glyph-name="uni66A0" unicode="&#x66a0;" horiz-adv-x="1027" 
 />
    <glyph glyph-name="uni66A2" unicode="&#x66a2;" horiz-adv-x="1027" 
 />
    <glyph glyph-name="uni66AB" unicode="&#x66ab;" horiz-adv-x="1027" 
 />
    <glyph glyph-name="uni66AE" unicode="&#x66ae;" horiz-adv-x="1027" 
 />
    <glyph glyph-name="uni66B2" unicode="&#x66b2;" horiz-adv-x="1027" 
 />
    <glyph glyph-name="uni66B3" unicode="&#x66b3;" horiz-adv-x="1027" 
 />
    <glyph glyph-name="uni66B4" unicode="&#x66b4;" horiz-adv-x="1027" 
 />
    <glyph glyph-name="uni66B9" unicode="&#x66b9;" horiz-adv-x="1027" 
 />
    <glyph glyph-name="uni66BB" unicode="&#x66bb;" horiz-adv-x="1027" 
 />
    <glyph glyph-name="uni66BE" unicode="&#x66be;" horiz-adv-x="1027" 
 />
    <glyph glyph-name="uni66C4" unicode="&#x66c4;" horiz-adv-x="1027" 
 />
    <glyph glyph-name="uni66C6" unicode="&#x66c6;" horiz-adv-x="1027" 
 />
    <glyph glyph-name="uni66C7" unicode="&#x66c7;" horiz-adv-x="1027" 
 />
    <glyph glyph-name="uni66C9" unicode="&#x66c9;" horiz-adv-x="1027" 
 />
    <glyph glyph-name="uni66D6" unicode="&#x66d6;" horiz-adv-x="1027" 
 />
    <glyph glyph-name="uni66D9" unicode="&#x66d9;" horiz-adv-x="1027" 
 />
    <glyph glyph-name="uni66DC" unicode="&#x66dc;" horiz-adv-x="1027" 
 />
    <glyph glyph-name="uni66DD" unicode="&#x66dd;" horiz-adv-x="1027" 
 />
    <glyph glyph-name="uni66E0" unicode="&#x66e0;" horiz-adv-x="1027" 
 />
    <glyph glyph-name="uni66E6" unicode="&#x66e6;" horiz-adv-x="1027" 
 />
    <glyph glyph-name="uni66F0" unicode="&#x66f0;" horiz-adv-x="1027" 
 />
    <glyph glyph-name="uni66F2" unicode="&#x66f2;" horiz-adv-x="1027" 
 />
    <glyph glyph-name="uni66F3" unicode="&#x66f3;" horiz-adv-x="1027" 
 />
    <glyph glyph-name="uni66F4" unicode="&#x66f4;" horiz-adv-x="1027" 
 />
    <glyph glyph-name="uni66F7" unicode="&#x66f7;" horiz-adv-x="1027" 
 />
    <glyph glyph-name="uni66F8" unicode="&#x66f8;" horiz-adv-x="1027" 
 />
    <glyph glyph-name="uni66F9" unicode="&#x66f9;" horiz-adv-x="1027" 
 />
    <glyph glyph-name="uni66FA" unicode="&#x66fa;" horiz-adv-x="1027" 
 />
    <glyph glyph-name="uni66FC" unicode="&#x66fc;" horiz-adv-x="1027" 
 />
    <glyph glyph-name="uni66FE" unicode="&#x66fe;" horiz-adv-x="1027" 
 />
    <glyph glyph-name="uni66FF" unicode="&#x66ff;" horiz-adv-x="1027" 
 />
    <glyph glyph-name="uni6700" unicode="&#x6700;" horiz-adv-x="1027" 
 />
    <glyph glyph-name="uni6703" unicode="&#x6703;" horiz-adv-x="1027" 
 />
    <glyph glyph-name="uni6708" unicode="&#x6708;" horiz-adv-x="1027" 
 />
    <glyph glyph-name="uni6709" unicode="&#x6709;" horiz-adv-x="1027" 
 />
    <glyph glyph-name="uni670B" unicode="&#x670b;" horiz-adv-x="1027" 
 />
    <glyph glyph-name="uni670D" unicode="&#x670d;" horiz-adv-x="1027" 
 />
    <glyph glyph-name="uni6714" unicode="&#x6714;" horiz-adv-x="1027" 
 />
    <glyph glyph-name="uni6715" unicode="&#x6715;" horiz-adv-x="1027" 
 />
    <glyph glyph-name="uni6717" unicode="&#x6717;" horiz-adv-x="1027" 
 />
    <glyph glyph-name="uni671B" unicode="&#x671b;" horiz-adv-x="1027" 
 />
    <glyph glyph-name="uni671D" unicode="&#x671d;" horiz-adv-x="1027" 
 />
    <glyph glyph-name="uni671E" unicode="&#x671e;" horiz-adv-x="1027" 
 />
    <glyph glyph-name="uni671F" unicode="&#x671f;" horiz-adv-x="1027" 
 />
    <glyph glyph-name="uni6726" unicode="&#x6726;" horiz-adv-x="1027" 
 />
    <glyph glyph-name="uni6727" unicode="&#x6727;" horiz-adv-x="1027" 
 />
    <glyph glyph-name="uni6728" unicode="&#x6728;" horiz-adv-x="1027" 
 />
    <glyph glyph-name="uni672A" unicode="&#x672a;" horiz-adv-x="1027" 
 />
    <glyph glyph-name="uni672B" unicode="&#x672b;" horiz-adv-x="1027" 
 />
    <glyph glyph-name="uni672C" unicode="&#x672c;" horiz-adv-x="1027" 
 />
    <glyph glyph-name="uni672D" unicode="&#x672d;" horiz-adv-x="1027" 
 />
    <glyph glyph-name="uni672E" unicode="&#x672e;" horiz-adv-x="1027" 
 />
    <glyph glyph-name="uni6731" unicode="&#x6731;" horiz-adv-x="1027" 
 />
    <glyph glyph-name="uni6734" unicode="&#x6734;" horiz-adv-x="1027" 
 />
    <glyph glyph-name="uni6736" unicode="&#x6736;" horiz-adv-x="1027" 
 />
    <glyph glyph-name="uni673A" unicode="&#x673a;" horiz-adv-x="1027" 
 />
    <glyph glyph-name="uni673D" unicode="&#x673d;" horiz-adv-x="1027" 
 />
    <glyph glyph-name="uni6746" unicode="&#x6746;" horiz-adv-x="1027" 
 />
    <glyph glyph-name="uni6749" unicode="&#x6749;" horiz-adv-x="1027" 
 />
    <glyph glyph-name="uni674E" unicode="&#x674e;" horiz-adv-x="1027" 
 />
    <glyph glyph-name="uni674F" unicode="&#x674f;" horiz-adv-x="1027" 
 />
    <glyph glyph-name="uni6750" unicode="&#x6750;" horiz-adv-x="1027" 
 />
    <glyph glyph-name="uni6751" unicode="&#x6751;" horiz-adv-x="1027" 
 />
    <glyph glyph-name="uni6753" unicode="&#x6753;" horiz-adv-x="1027" 
 />
    <glyph glyph-name="uni6756" unicode="&#x6756;" horiz-adv-x="1027" 
 />
    <glyph glyph-name="uni675C" unicode="&#x675c;" horiz-adv-x="1027" 
 />
    <glyph glyph-name="uni675E" unicode="&#x675e;" horiz-adv-x="1027" 
 />
    <glyph glyph-name="uni675F" unicode="&#x675f;" horiz-adv-x="1027" 
 />
    <glyph glyph-name="uni676D" unicode="&#x676d;" horiz-adv-x="1027" 
 />
    <glyph glyph-name="uni676F" unicode="&#x676f;" horiz-adv-x="1027" 
 />
    <glyph glyph-name="uni6770" unicode="&#x6770;" horiz-adv-x="1027" 
 />
    <glyph glyph-name="uni6771" unicode="&#x6771;" horiz-adv-x="1027" 
 />
    <glyph glyph-name="uni6773" unicode="&#x6773;" horiz-adv-x="1027" 
 />
    <glyph glyph-name="uni6775" unicode="&#x6775;" horiz-adv-x="1027" 
 />
    <glyph glyph-name="uni6777" unicode="&#x6777;" horiz-adv-x="1027" 
 />
    <glyph glyph-name="uni677B" unicode="&#x677b;" horiz-adv-x="1027" 
 />
    <glyph glyph-name="uni677E" unicode="&#x677e;" horiz-adv-x="1027" 
 />
    <glyph glyph-name="uni677F" unicode="&#x677f;" horiz-adv-x="1027" 
 />
    <glyph glyph-name="uni6787" unicode="&#x6787;" horiz-adv-x="1027" 
 />
    <glyph glyph-name="uni6789" unicode="&#x6789;" horiz-adv-x="1027" 
 />
    <glyph glyph-name="uni678B" unicode="&#x678b;" horiz-adv-x="1027" 
 />
    <glyph glyph-name="uni678F" unicode="&#x678f;" horiz-adv-x="1027" 
 />
    <glyph glyph-name="uni6790" unicode="&#x6790;" horiz-adv-x="1027" 
 />
    <glyph glyph-name="uni6793" unicode="&#x6793;" horiz-adv-x="1027" 
 />
    <glyph glyph-name="uni6795" unicode="&#x6795;" horiz-adv-x="1027" 
 />
    <glyph glyph-name="uni6797" unicode="&#x6797;" horiz-adv-x="1027" 
 />
    <glyph glyph-name="uni679A" unicode="&#x679a;" horiz-adv-x="1027" 
 />
    <glyph glyph-name="uni679C" unicode="&#x679c;" horiz-adv-x="1027" 
 />
    <glyph glyph-name="uni679D" unicode="&#x679d;" horiz-adv-x="1027" 
 />
    <glyph glyph-name="uni67AF" unicode="&#x67af;" horiz-adv-x="1027" 
 />
    <glyph glyph-name="uni67B0" unicode="&#x67b0;" horiz-adv-x="1027" 
 />
    <glyph glyph-name="uni67B3" unicode="&#x67b3;" horiz-adv-x="1027" 
 />
    <glyph glyph-name="uni67B6" unicode="&#x67b6;" horiz-adv-x="1027" 
 />
    <glyph glyph-name="uni67B7" unicode="&#x67b7;" horiz-adv-x="1027" 
 />
    <glyph glyph-name="uni67B8" unicode="&#x67b8;" horiz-adv-x="1027" 
 />
    <glyph glyph-name="uni67BE" unicode="&#x67be;" horiz-adv-x="1027" 
 />
    <glyph glyph-name="uni67C4" unicode="&#x67c4;" horiz-adv-x="1027" 
 />
    <glyph glyph-name="uni67CF" unicode="&#x67cf;" horiz-adv-x="1027" 
 />
    <glyph glyph-name="uni67D0" unicode="&#x67d0;" horiz-adv-x="1027" 
 />
    <glyph glyph-name="uni67D1" unicode="&#x67d1;" horiz-adv-x="1027" 
 />
    <glyph glyph-name="uni67D2" unicode="&#x67d2;" horiz-adv-x="1027" 
 />
    <glyph glyph-name="uni67D3" unicode="&#x67d3;" horiz-adv-x="1027" 
 />
    <glyph glyph-name="uni67D4" unicode="&#x67d4;" horiz-adv-x="1027" 
 />
    <glyph glyph-name="uni67DA" unicode="&#x67da;" horiz-adv-x="1027" 
 />
    <glyph glyph-name="uni67DD" unicode="&#x67dd;" horiz-adv-x="1027" 
 />
    <glyph glyph-name="uni67E9" unicode="&#x67e9;" horiz-adv-x="1027" 
 />
    <glyph glyph-name="uni67EC" unicode="&#x67ec;" horiz-adv-x="1027" 
 />
    <glyph glyph-name="uni67EF" unicode="&#x67ef;" horiz-adv-x="1027" 
 />
    <glyph glyph-name="uni67F0" unicode="&#x67f0;" horiz-adv-x="1027" 
 />
    <glyph glyph-name="uni67F1" unicode="&#x67f1;" horiz-adv-x="1027" 
 />
    <glyph glyph-name="uni67F3" unicode="&#x67f3;" horiz-adv-x="1027" 
 />
    <glyph glyph-name="uni67F4" unicode="&#x67f4;" horiz-adv-x="1027" 
 />
    <glyph glyph-name="uni67F5" unicode="&#x67f5;" horiz-adv-x="1027" 
 />
    <glyph glyph-name="uni67F6" unicode="&#x67f6;" horiz-adv-x="1027" 
 />
    <glyph glyph-name="uni67FB" unicode="&#x67fb;" horiz-adv-x="1027" 
 />
    <glyph glyph-name="uni67FE" unicode="&#x67fe;" horiz-adv-x="1027" 
 />
    <glyph glyph-name="uni6812" unicode="&#x6812;" horiz-adv-x="1027" 
 />
    <glyph glyph-name="uni6813" unicode="&#x6813;" horiz-adv-x="1027" 
 />
    <glyph glyph-name="uni6816" unicode="&#x6816;" horiz-adv-x="1027" 
 />
    <glyph glyph-name="uni6817" unicode="&#x6817;" horiz-adv-x="1027" 
 />
    <glyph glyph-name="uni6821" unicode="&#x6821;" horiz-adv-x="1027" 
 />
    <glyph glyph-name="uni6822" unicode="&#x6822;" horiz-adv-x="1027" 
 />
    <glyph glyph-name="uni682A" unicode="&#x682a;" horiz-adv-x="1027" 
 />
    <glyph glyph-name="uni682F" unicode="&#x682f;" horiz-adv-x="1027" 
 />
    <glyph glyph-name="uni6838" unicode="&#x6838;" horiz-adv-x="1027" 
 />
    <glyph glyph-name="uni6839" unicode="&#x6839;" horiz-adv-x="1027" 
 />
    <glyph glyph-name="uni683C" unicode="&#x683c;" horiz-adv-x="1027" 
 />
    <glyph glyph-name="uni683D" unicode="&#x683d;" horiz-adv-x="1027" 
 />
    <glyph glyph-name="uni6840" unicode="&#x6840;" horiz-adv-x="1027" 
 />
    <glyph glyph-name="uni6841" unicode="&#x6841;" horiz-adv-x="1027" 
 />
    <glyph glyph-name="uni6842" unicode="&#x6842;" horiz-adv-x="1027" 
 />
    <glyph glyph-name="uni6843" unicode="&#x6843;" horiz-adv-x="1027" 
 />
    <glyph glyph-name="uni6848" unicode="&#x6848;" horiz-adv-x="1027" 
 />
    <glyph glyph-name="uni684E" unicode="&#x684e;" horiz-adv-x="1027" 
 />
    <glyph glyph-name="uni6850" unicode="&#x6850;" horiz-adv-x="1027" 
 />
    <glyph glyph-name="uni6851" unicode="&#x6851;" horiz-adv-x="1027" 
 />
    <glyph glyph-name="uni6853" unicode="&#x6853;" horiz-adv-x="1027" 
 />
    <glyph glyph-name="uni6854" unicode="&#x6854;" horiz-adv-x="1027" 
 />
    <glyph glyph-name="uni686D" unicode="&#x686d;" horiz-adv-x="1027" 
 />
    <glyph glyph-name="uni6876" unicode="&#x6876;" horiz-adv-x="1027" 
 />
    <glyph glyph-name="uni687F" unicode="&#x687f;" horiz-adv-x="1027" 
 />
    <glyph glyph-name="uni6881" unicode="&#x6881;" horiz-adv-x="1027" 
 />
    <glyph glyph-name="uni6885" unicode="&#x6885;" horiz-adv-x="1027" 
 />
    <glyph glyph-name="uni688F" unicode="&#x688f;" horiz-adv-x="1027" 
 />
    <glyph glyph-name="uni6893" unicode="&#x6893;" horiz-adv-x="1027" 
 />
    <glyph glyph-name="uni6894" unicode="&#x6894;" horiz-adv-x="1027" 
 />
    <glyph glyph-name="uni6897" unicode="&#x6897;" horiz-adv-x="1027" 
 />
    <glyph glyph-name="uni689D" unicode="&#x689d;" horiz-adv-x="1027" 
 />
    <glyph glyph-name="uni689F" unicode="&#x689f;" horiz-adv-x="1027" 
 />
    <glyph glyph-name="uni68A1" unicode="&#x68a1;" horiz-adv-x="1027" 
 />
    <glyph glyph-name="uni68A2" unicode="&#x68a2;" horiz-adv-x="1027" 
 />
    <glyph glyph-name="uni68A7" unicode="&#x68a7;" horiz-adv-x="1027" 
 />
    <glyph glyph-name="uni68A8" unicode="&#x68a8;" horiz-adv-x="1027" 
 />
    <glyph glyph-name="uni68AD" unicode="&#x68ad;" horiz-adv-x="1027" 
 />
    <glyph glyph-name="uni68AF" unicode="&#x68af;" horiz-adv-x="1027" 
 />
    <glyph glyph-name="uni68B0" unicode="&#x68b0;" horiz-adv-x="1027" 
 />
    <glyph glyph-name="uni68B1" unicode="&#x68b1;" horiz-adv-x="1027" 
 />
    <glyph glyph-name="uni68B3" unicode="&#x68b3;" horiz-adv-x="1027" 
 />
    <glyph glyph-name="uni68B5" unicode="&#x68b5;" horiz-adv-x="1027" 
 />
    <glyph glyph-name="uni68B6" unicode="&#x68b6;" horiz-adv-x="1027" 
 />
    <glyph glyph-name="uni68C4" unicode="&#x68c4;" horiz-adv-x="1027" 
 />
    <glyph glyph-name="uni68C5" unicode="&#x68c5;" horiz-adv-x="1027" 
 />
    <glyph glyph-name="uni68C9" unicode="&#x68c9;" horiz-adv-x="1027" 
 />
    <glyph glyph-name="uni68CB" unicode="&#x68cb;" horiz-adv-x="1027" 
 />
    <glyph glyph-name="uni68CD" unicode="&#x68cd;" horiz-adv-x="1027" 
 />
    <glyph glyph-name="uni68D2" unicode="&#x68d2;" horiz-adv-x="1027" 
 />
    <glyph glyph-name="uni68D5" unicode="&#x68d5;" horiz-adv-x="1027" 
 />
    <glyph glyph-name="uni68D7" unicode="&#x68d7;" horiz-adv-x="1027" 
 />
    <glyph glyph-name="uni68D8" unicode="&#x68d8;" horiz-adv-x="1027" 
 />
    <glyph glyph-name="uni68DA" unicode="&#x68da;" horiz-adv-x="1027" 
 />
    <glyph glyph-name="uni68DF" unicode="&#x68df;" horiz-adv-x="1027" 
 />
    <glyph glyph-name="uni68E0" unicode="&#x68e0;" horiz-adv-x="1027" 
 />
    <glyph glyph-name="uni68E7" unicode="&#x68e7;" horiz-adv-x="1027" 
 />
    <glyph glyph-name="uni68E8" unicode="&#x68e8;" horiz-adv-x="1027" 
 />
    <glyph glyph-name="uni68EE" unicode="&#x68ee;" horiz-adv-x="1027" 
 />
    <glyph glyph-name="uni68F2" unicode="&#x68f2;" horiz-adv-x="1027" 
 />
    <glyph glyph-name="uni68F9" unicode="&#x68f9;" horiz-adv-x="1027" 
 />
    <glyph glyph-name="uni68FA" unicode="&#x68fa;" horiz-adv-x="1027" 
 />
    <glyph glyph-name="uni6900" unicode="&#x6900;" horiz-adv-x="1027" 
 />
    <glyph glyph-name="uni6905" unicode="&#x6905;" horiz-adv-x="1027" 
 />
    <glyph glyph-name="uni690D" unicode="&#x690d;" horiz-adv-x="1027" 
 />
    <glyph glyph-name="uni690E" unicode="&#x690e;" horiz-adv-x="1027" 
 />
    <glyph glyph-name="uni6912" unicode="&#x6912;" horiz-adv-x="1027" 
 />
    <glyph glyph-name="uni6927" unicode="&#x6927;" horiz-adv-x="1027" 
 />
    <glyph glyph-name="uni6930" unicode="&#x6930;" horiz-adv-x="1027" 
 />
    <glyph glyph-name="uni693D" unicode="&#x693d;" horiz-adv-x="1027" 
 />
    <glyph glyph-name="uni693F" unicode="&#x693f;" horiz-adv-x="1027" 
 />
    <glyph glyph-name="uni694A" unicode="&#x694a;" horiz-adv-x="1027" 
 />
    <glyph glyph-name="uni6953" unicode="&#x6953;" horiz-adv-x="1027" 
 />
    <glyph glyph-name="uni6954" unicode="&#x6954;" horiz-adv-x="1027" 
 />
    <glyph glyph-name="uni6955" unicode="&#x6955;" horiz-adv-x="1027" 
 />
    <glyph glyph-name="uni6957" unicode="&#x6957;" horiz-adv-x="1027" 
 />
    <glyph glyph-name="uni6959" unicode="&#x6959;" horiz-adv-x="1027" 
 />
    <glyph glyph-name="uni695A" unicode="&#x695a;" horiz-adv-x="1027" 
 />
    <glyph glyph-name="uni695E" unicode="&#x695e;" horiz-adv-x="1027" 
 />
    <glyph glyph-name="uni6960" unicode="&#x6960;" horiz-adv-x="1027" 
 />
    <glyph glyph-name="uni6961" unicode="&#x6961;" horiz-adv-x="1027" 
 />
    <glyph glyph-name="uni6962" unicode="&#x6962;" horiz-adv-x="1027" 
 />
    <glyph glyph-name="uni6963" unicode="&#x6963;" horiz-adv-x="1027" 
 />
    <glyph glyph-name="uni6968" unicode="&#x6968;" horiz-adv-x="1027" 
 />
    <glyph glyph-name="uni696B" unicode="&#x696b;" horiz-adv-x="1027" 
 />
    <glyph glyph-name="uni696D" unicode="&#x696d;" horiz-adv-x="1027" 
 />
    <glyph glyph-name="uni696E" unicode="&#x696e;" horiz-adv-x="1027" 
 />
    <glyph glyph-name="uni696F" unicode="&#x696f;" horiz-adv-x="1027" 
 />
    <glyph glyph-name="uni6975" unicode="&#x6975;" horiz-adv-x="1027" 
 />
    <glyph glyph-name="uni6977" unicode="&#x6977;" horiz-adv-x="1027" 
 />
    <glyph glyph-name="uni6978" unicode="&#x6978;" horiz-adv-x="1027" 
 />
    <glyph glyph-name="uni6979" unicode="&#x6979;" horiz-adv-x="1027" 
 />
    <glyph glyph-name="uni6995" unicode="&#x6995;" horiz-adv-x="1027" 
 />
    <glyph glyph-name="uni699B" unicode="&#x699b;" horiz-adv-x="1027" 
 />
    <glyph glyph-name="uni699C" unicode="&#x699c;" horiz-adv-x="1027" 
 />
    <glyph glyph-name="uni69A5" unicode="&#x69a5;" horiz-adv-x="1027" 
 />
    <glyph glyph-name="uni69A7" unicode="&#x69a7;" horiz-adv-x="1027" 
 />
    <glyph glyph-name="uni69AE" unicode="&#x69ae;" horiz-adv-x="1027" 
 />
    <glyph glyph-name="uni69B4" unicode="&#x69b4;" horiz-adv-x="1027" 
 />
    <glyph glyph-name="uni69BB" unicode="&#x69bb;" horiz-adv-x="1027" 
 />
    <glyph glyph-name="uni69C1" unicode="&#x69c1;" horiz-adv-x="1027" 
 />
    <glyph glyph-name="uni69C3" unicode="&#x69c3;" horiz-adv-x="1027" 
 />
    <glyph glyph-name="uni69CB" unicode="&#x69cb;" horiz-adv-x="1027" 
 />
    <glyph glyph-name="uni69CC" unicode="&#x69cc;" horiz-adv-x="1027" 
 />
    <glyph glyph-name="uni69CD" unicode="&#x69cd;" horiz-adv-x="1027" 
 />
    <glyph glyph-name="uni69D0" unicode="&#x69d0;" horiz-adv-x="1027" 
 />
    <glyph glyph-name="uni69E8" unicode="&#x69e8;" horiz-adv-x="1027" 
 />
    <glyph glyph-name="uni69EA" unicode="&#x69ea;" horiz-adv-x="1027" 
 />
    <glyph glyph-name="uni69FB" unicode="&#x69fb;" horiz-adv-x="1027" 
 />
    <glyph glyph-name="uni69FD" unicode="&#x69fd;" horiz-adv-x="1027" 
 />
    <glyph glyph-name="uni69FF" unicode="&#x69ff;" horiz-adv-x="1027" 
 />
    <glyph glyph-name="uni6A02" unicode="&#x6a02;" horiz-adv-x="1027" 
 />
    <glyph glyph-name="uni6A0A" unicode="&#x6a0a;" horiz-adv-x="1027" 
 />
    <glyph glyph-name="uni6A11" unicode="&#x6a11;" horiz-adv-x="1027" 
 />
    <glyph glyph-name="uni6A13" unicode="&#x6a13;" horiz-adv-x="1027" 
 />
    <glyph glyph-name="uni6A17" unicode="&#x6a17;" horiz-adv-x="1027" 
 />
    <glyph glyph-name="uni6A19" unicode="&#x6a19;" horiz-adv-x="1027" 
 />
    <glyph glyph-name="uni6A1E" unicode="&#x6a1e;" horiz-adv-x="1027" 
 />
    <glyph glyph-name="uni6A1F" unicode="&#x6a1f;" horiz-adv-x="1027" 
 />
    <glyph glyph-name="uni6A21" unicode="&#x6a21;" horiz-adv-x="1027" 
 />
    <glyph glyph-name="uni6A23" unicode="&#x6a23;" horiz-adv-x="1027" 
 />
    <glyph glyph-name="uni6A35" unicode="&#x6a35;" horiz-adv-x="1027" 
 />
    <glyph glyph-name="uni6A38" unicode="&#x6a38;" horiz-adv-x="1027" 
 />
    <glyph glyph-name="uni6A39" unicode="&#x6a39;" horiz-adv-x="1027" 
 />
    <glyph glyph-name="uni6A3A" unicode="&#x6a3a;" horiz-adv-x="1027" 
 />
    <glyph glyph-name="uni6A3D" unicode="&#x6a3d;" horiz-adv-x="1027" 
 />
    <glyph glyph-name="uni6A44" unicode="&#x6a44;" horiz-adv-x="1027" 
 />
    <glyph glyph-name="uni6A48" unicode="&#x6a48;" horiz-adv-x="1027" 
 />
    <glyph glyph-name="uni6A4B" unicode="&#x6a4b;" horiz-adv-x="1027" 
 />
    <glyph glyph-name="uni6A52" unicode="&#x6a52;" horiz-adv-x="1027" 
 />
    <glyph glyph-name="uni6A53" unicode="&#x6a53;" horiz-adv-x="1027" 
 />
    <glyph glyph-name="uni6A58" unicode="&#x6a58;" horiz-adv-x="1027" 
 />
    <glyph glyph-name="uni6A59" unicode="&#x6a59;" horiz-adv-x="1027" 
 />
    <glyph glyph-name="uni6A5F" unicode="&#x6a5f;" horiz-adv-x="1027" 
 />
    <glyph glyph-name="uni6A61" unicode="&#x6a61;" horiz-adv-x="1027" 
 />
    <glyph glyph-name="uni6A6B" unicode="&#x6a6b;" horiz-adv-x="1027" 
 />
    <glyph glyph-name="uni6A80" unicode="&#x6a80;" horiz-adv-x="1027" 
 />
    <glyph glyph-name="uni6A84" unicode="&#x6a84;" horiz-adv-x="1027" 
 />
    <glyph glyph-name="uni6A89" unicode="&#x6a89;" horiz-adv-x="1027" 
 />
    <glyph glyph-name="uni6A8D" unicode="&#x6a8d;" horiz-adv-x="1027" 
 />
    <glyph glyph-name="uni6A8E" unicode="&#x6a8e;" horiz-adv-x="1027" 
 />
    <glyph glyph-name="uni6A97" unicode="&#x6a97;" horiz-adv-x="1027" 
 />
    <glyph glyph-name="uni6A9C" unicode="&#x6a9c;" horiz-adv-x="1027" 
 />
    <glyph glyph-name="uni6AA2" unicode="&#x6aa2;" horiz-adv-x="1027" 
 />
    <glyph glyph-name="uni6AA3" unicode="&#x6aa3;" horiz-adv-x="1027" 
 />
    <glyph glyph-name="uni6AB3" unicode="&#x6ab3;" horiz-adv-x="1027" 
 />
    <glyph glyph-name="uni6ABB" unicode="&#x6abb;" horiz-adv-x="1027" 
 />
    <glyph glyph-name="uni6AC2" unicode="&#x6ac2;" horiz-adv-x="1027" 
 />
    <glyph glyph-name="uni6AC3" unicode="&#x6ac3;" horiz-adv-x="1027" 
 />
    <glyph glyph-name="uni6AD3" unicode="&#x6ad3;" horiz-adv-x="1027" 
 />
    <glyph glyph-name="uni6ADA" unicode="&#x6ada;" horiz-adv-x="1027" 
 />
    <glyph glyph-name="uni6ADB" unicode="&#x6adb;" horiz-adv-x="1027" 
 />
    <glyph glyph-name="uni6AF6" unicode="&#x6af6;" horiz-adv-x="1027" 
 />
    <glyph glyph-name="uni6AFB" unicode="&#x6afb;" horiz-adv-x="1027" 
 />
    <glyph glyph-name="uni6B04" unicode="&#x6b04;" horiz-adv-x="1027" 
 />
    <glyph glyph-name="uni6B0A" unicode="&#x6b0a;" horiz-adv-x="1027" 
 />
    <glyph glyph-name="uni6B0C" unicode="&#x6b0c;" horiz-adv-x="1027" 
 />
    <glyph glyph-name="uni6B12" unicode="&#x6b12;" horiz-adv-x="1027" 
 />
    <glyph glyph-name="uni6B16" unicode="&#x6b16;" horiz-adv-x="1027" 
 />
    <glyph glyph-name="uni6B20" unicode="&#x6b20;" horiz-adv-x="1027" 
 />
    <glyph glyph-name="uni6B21" unicode="&#x6b21;" horiz-adv-x="1027" 
 />
    <glyph glyph-name="uni6B23" unicode="&#x6b23;" horiz-adv-x="1027" 
 />
    <glyph glyph-name="uni6B32" unicode="&#x6b32;" horiz-adv-x="1027" 
 />
    <glyph glyph-name="uni6B3A" unicode="&#x6b3a;" horiz-adv-x="1027" 
 />
    <glyph glyph-name="uni6B3D" unicode="&#x6b3d;" horiz-adv-x="1027" 
 />
    <glyph glyph-name="uni6B3E" unicode="&#x6b3e;" horiz-adv-x="1027" 
 />
    <glyph glyph-name="uni6B46" unicode="&#x6b46;" horiz-adv-x="1027" 
 />
    <glyph glyph-name="uni6B47" unicode="&#x6b47;" horiz-adv-x="1027" 
 />
    <glyph glyph-name="uni6B4C" unicode="&#x6b4c;" horiz-adv-x="1027" 
 />
    <glyph glyph-name="uni6B4E" unicode="&#x6b4e;" horiz-adv-x="1027" 
 />
    <glyph glyph-name="uni6B50" unicode="&#x6b50;" horiz-adv-x="1027" 
 />
    <glyph glyph-name="uni6B5F" unicode="&#x6b5f;" horiz-adv-x="1027" 
 />
    <glyph glyph-name="uni6B61" unicode="&#x6b61;" horiz-adv-x="1027" 
 />
    <glyph glyph-name="uni6B62" unicode="&#x6b62;" horiz-adv-x="1027" 
 />
    <glyph glyph-name="uni6B63" unicode="&#x6b63;" horiz-adv-x="1027" 
 />
    <glyph glyph-name="uni6B64" unicode="&#x6b64;" horiz-adv-x="1027" 
 />
    <glyph glyph-name="uni6B65" unicode="&#x6b65;" horiz-adv-x="1027" 
 />
    <glyph glyph-name="uni6B66" unicode="&#x6b66;" horiz-adv-x="1027" 
 />
    <glyph glyph-name="uni6B6A" unicode="&#x6b6a;" horiz-adv-x="1027" 
 />
    <glyph glyph-name="uni6B72" unicode="&#x6b72;" horiz-adv-x="1027" 
 />
    <glyph glyph-name="uni6B77" unicode="&#x6b77;" horiz-adv-x="1027" 
 />
    <glyph glyph-name="uni6B78" unicode="&#x6b78;" horiz-adv-x="1027" 
 />
    <glyph glyph-name="uni6B7B" unicode="&#x6b7b;" horiz-adv-x="1027" 
 />
    <glyph glyph-name="uni6B7F" unicode="&#x6b7f;" horiz-adv-x="1027" 
 />
    <glyph glyph-name="uni6B83" unicode="&#x6b83;" horiz-adv-x="1027" 
 />
    <glyph glyph-name="uni6B84" unicode="&#x6b84;" horiz-adv-x="1027" 
 />
    <glyph glyph-name="uni6B86" unicode="&#x6b86;" horiz-adv-x="1027" 
 />
    <glyph glyph-name="uni6B89" unicode="&#x6b89;" horiz-adv-x="1027" 
 />
    <glyph glyph-name="uni6B8A" unicode="&#x6b8a;" horiz-adv-x="1027" 
 />
    <glyph glyph-name="uni6B96" unicode="&#x6b96;" horiz-adv-x="1027" 
 />
    <glyph glyph-name="uni6B98" unicode="&#x6b98;" horiz-adv-x="1027" 
 />
    <glyph glyph-name="uni6B9E" unicode="&#x6b9e;" horiz-adv-x="1027" 
 />
    <glyph glyph-name="uni6BAE" unicode="&#x6bae;" horiz-adv-x="1027" 
 />
    <glyph glyph-name="uni6BAF" unicode="&#x6baf;" horiz-adv-x="1027" 
 />
    <glyph glyph-name="uni6BB2" unicode="&#x6bb2;" horiz-adv-x="1027" 
 />
    <glyph glyph-name="uni6BB5" unicode="&#x6bb5;" horiz-adv-x="1027" 
 />
    <glyph glyph-name="uni6BB7" unicode="&#x6bb7;" horiz-adv-x="1027" 
 />
    <glyph glyph-name="uni6BBA" unicode="&#x6bba;" horiz-adv-x="1027" 
 />
    <glyph glyph-name="uni6BBC" unicode="&#x6bbc;" horiz-adv-x="1027" 
 />
    <glyph glyph-name="uni6BBF" unicode="&#x6bbf;" horiz-adv-x="1027" 
 />
    <glyph glyph-name="uni6BC1" unicode="&#x6bc1;" horiz-adv-x="1027" 
 />
    <glyph glyph-name="uni6BC5" unicode="&#x6bc5;" horiz-adv-x="1027" 
 />
    <glyph glyph-name="uni6BC6" unicode="&#x6bc6;" horiz-adv-x="1027" 
 />
    <glyph glyph-name="uni6BCB" unicode="&#x6bcb;" horiz-adv-x="1027" 
 />
    <glyph glyph-name="uni6BCD" unicode="&#x6bcd;" horiz-adv-x="1027" 
 />
    <glyph glyph-name="uni6BCF" unicode="&#x6bcf;" horiz-adv-x="1027" 
 />
    <glyph glyph-name="uni6BD2" unicode="&#x6bd2;" horiz-adv-x="1027" 
 />
    <glyph glyph-name="uni6BD3" unicode="&#x6bd3;" horiz-adv-x="1027" 
 />
    <glyph glyph-name="uni6BD4" unicode="&#x6bd4;" horiz-adv-x="1027" 
 />
    <glyph glyph-name="uni6BD6" unicode="&#x6bd6;" horiz-adv-x="1027" 
 />
    <glyph glyph-name="uni6BD7" unicode="&#x6bd7;" horiz-adv-x="1027" 
 />
    <glyph glyph-name="uni6BD8" unicode="&#x6bd8;" horiz-adv-x="1027" 
 />
    <glyph glyph-name="uni6BDB" unicode="&#x6bdb;" horiz-adv-x="1027" 
 />
    </font>
</defs>
</svg>
